<svg width="60" height="61" viewBox="0 0 60 61" fill="none" xmlns="http://www.w3.org/2000/svg">
<mask id="mask0_2335_10546" style="mask-type:luminance" maskUnits="userSpaceOnUse" x="10" y="10" width="41" height="46">
<path fill-rule="evenodd" clip-rule="evenodd" d="M34.7624 55.8462C34.2274 55.8462 33.6974 55.6762 33.2549 55.3387L23.1899 47.7262C22.5649 47.2537 22.1974 46.5162 22.1974 45.7337V37.5487L10.2824 14.4937C9.88236 13.7187 9.91486 12.7912 10.3699 12.0462C10.8224 11.3012 11.6324 10.8462 12.5049 10.8462H47.5049C48.3849 10.8462 49.1999 11.3087 49.6524 12.0662C50.1024 12.8212 50.1224 13.7612 49.7049 14.5337L37.2624 37.5712V53.3462C37.2624 54.2937 36.7249 55.1612 35.8749 55.5862C35.5224 55.7587 35.1424 55.8462 34.7624 55.8462" fill="white"/>
</mask>
<g mask="url(#mask0_2335_10546)">
<rect y="0.84668" width="60" height="60" fill="#667085"/>
</g>
</svg>
