<svg width="61" height="61" viewBox="0 0 61 61" fill="none" xmlns="http://www.w3.org/2000/svg">
<mask id="mask0_2335_10495" style="mask-type:luminance" maskUnits="userSpaceOnUse" x="5" y="5" width="51" height="51">
<path fill-rule="evenodd" clip-rule="evenodd" d="M33.3118 13.436C33.3118 14.8185 32.1918 15.936 30.8118 15.936C29.4318 15.936 28.3118 14.8185 28.3118 13.436V8.43604C28.3118 7.05354 29.4318 5.93604 30.8118 5.93604C32.1918 5.93604 33.3118 7.05354 33.3118 8.43604V13.436ZM18.3182 30.9366C18.3182 24.0441 23.9257 18.4366 30.8182 18.4366C37.7107 18.4366 43.3182 24.0441 43.3182 30.9366C43.3182 34.8841 41.4332 38.5916 38.3182 40.9266V50.9366C38.3182 53.6941 36.0757 55.9366 33.3182 55.9366H28.3182C25.5607 55.9366 23.3182 53.6941 23.3182 50.9366V40.9266C20.2007 38.5916 18.3182 34.8841 18.3182 30.9366ZM53.3201 28.4363H48.3201C46.9376 28.4363 45.8201 29.5538 45.8201 30.9363C45.8201 32.3188 46.9376 33.4363 48.3201 33.4363H53.3201C54.7026 33.4363 55.8201 32.3188 55.8201 30.9363C55.8201 29.5538 54.7026 28.4363 53.3201 28.4363ZM8.31641 28.4363H13.3164C14.6964 28.4363 15.8164 29.5538 15.8164 30.9363C15.8164 32.3188 14.6964 33.4363 13.3164 33.4363H8.31641C6.93641 33.4363 5.81641 32.3188 5.81641 30.9363C5.81641 29.5538 6.93641 28.4363 8.31641 28.4363ZM19.9658 16.9808L16.3683 13.5058C15.3758 12.5483 13.7958 12.5783 12.8333 13.5708C11.8733 14.5608 11.9008 16.1458 12.8933 17.1058L16.4908 20.5783C16.9783 21.0483 17.6033 21.2808 18.2283 21.2808C18.8833 21.2808 19.5358 21.0233 20.0258 20.5158C20.9858 19.5258 20.9583 17.9408 19.9658 16.9808ZM45.2614 13.5098C46.2515 12.5523 47.8415 12.5798 48.794 13.5698C49.754 14.5598 49.7265 16.1448 48.734 17.1023L45.1365 20.5773C44.654 21.0448 44.0265 21.2798 43.4015 21.2798C42.7465 21.2798 42.0915 21.0223 41.604 20.5148C40.6439 19.5248 40.6714 17.9398 41.6639 16.9823L45.2614 13.5098Z" fill="white"/>
</mask>
<g mask="url(#mask0_2335_10495)">
<rect x="0.820312" y="0.935547" width="60" height="60" fill="#667085"/>
</g>
</svg>
