<svg width="61" height="61" viewBox="0 0 61 61" fill="none" xmlns="http://www.w3.org/2000/svg">
<mask id="mask0_2335_10493" style="mask-type:luminance" maskUnits="userSpaceOnUse" x="13" y="13" width="38" height="36">
<path fill-rule="evenodd" clip-rule="evenodd" d="M50.2963 31.875L40.2963 19.375C39.4338 18.295 37.8588 18.1225 36.7838 18.985C35.7038 19.845 35.5287 21.42 36.3912 22.4975L43.1438 30.9375H20.8438C19.4663 30.9375 18.3438 29.815 18.3438 28.4375V15.9375C18.3438 14.555 17.2237 13.4375 15.8438 13.4375C14.4638 13.4375 13.3438 14.555 13.3438 15.9375V28.4375C13.3438 32.5725 16.7087 35.9375 20.8438 35.9375H43.1438L36.3912 44.375C35.5287 45.4525 35.7038 47.0275 36.7838 47.8875C37.2438 48.2575 37.7963 48.4375 38.3438 48.4375C39.0763 48.4375 39.8038 48.115 40.2963 47.4975L50.2963 34.9975C51.0263 34.085 51.0263 32.7875 50.2963 31.875" fill="white"/>
</mask>
<g mask="url(#mask0_2335_10493)">
<rect x="0.84375" y="0.935547" width="60" height="60" fill="#667085"/>
</g>
</svg>
