<svg width="61" height="61" viewBox="0 0 61 61" fill="none" xmlns="http://www.w3.org/2000/svg">
<mask id="mask0_2335_10466" style="mask-type:luminance" maskUnits="userSpaceOnUse" x="5" y="5" width="51" height="51">
<path fill-rule="evenodd" clip-rule="evenodd" d="M35.5515 21.7497L42.7019 29.2497C42.8094 29.3622 42.8618 29.5022 42.9443 29.6272C43.0342 29.7622 43.1417 29.8822 43.2041 30.0322C43.3266 30.3347 43.394 30.6547 43.394 30.9747C43.394 31.3022 43.3266 31.6272 43.2016 31.9322C43.0742 32.2372 42.8918 32.5147 42.6595 32.7447L35.1668 40.2422C34.1899 41.2197 32.6084 41.2197 31.634 40.2422C30.6572 39.2672 30.6572 37.6847 31.634 36.7072L34.8645 33.4747H20.9084C19.5268 33.4747 18.41 32.3572 18.41 30.9747C18.41 29.5947 19.5268 28.4747 20.9084 28.4747H35.0568L31.9363 25.2022C30.9844 24.2022 31.0194 22.6222 32.0188 21.6672C33.0181 20.7122 34.5996 20.7522 35.5515 21.7497M5.91797 30.9741C5.91797 44.7616 17.1258 55.9741 30.902 55.9741C44.6782 55.9741 55.886 44.7616 55.886 30.9741C55.886 17.1891 44.6782 5.97412 30.902 5.97412C17.1258 5.97412 5.91797 17.1891 5.91797 30.9741" fill="white"/>
</mask>
<g mask="url(#mask0_2335_10466)">
<rect x="0.921875" y="0.974609" width="59.9617" height="60" fill="#667085"/>
</g>
</svg>
