<svg width="24" height="25" viewBox="0 0 24 25" fill="none" xmlns="http://www.w3.org/2000/svg">
<mask id="mask0_2039_25580" style="mask-type:luminance" maskUnits="userSpaceOnUse" x="1" y="6" width="22" height="13">
<path fill-rule="evenodd" clip-rule="evenodd" d="M8.99966 16.5H7.20966C5.10366 16.5 3.20366 14.965 3.01666 12.866C2.80366 10.496 4.67266 8.5 6.99966 8.5H8.99966C9.55166 8.5 9.99966 8.053 9.99966 7.5C9.99966 6.947 9.55166 6.5 8.99966 6.5H7.20866C4.15966 6.5 1.43866 8.687 1.05066 11.711C0.581663 15.369 3.43166 18.5 6.99966 18.5H8.99966C9.55166 18.5 9.99966 18.053 9.99966 17.5C9.99966 16.947 9.55166 16.5 8.99966 16.5ZM7.99966 12.5C7.99966 13.053 8.44766 13.5 8.99966 13.5H14.9997C15.5517 13.5 15.9997 13.053 15.9997 12.5C15.9997 11.947 15.5517 11.5 14.9997 11.5H8.99966C8.44766 11.5 7.99966 11.947 7.99966 12.5ZM16.7588 6.5002C19.8258 6.5002 22.5778 8.6972 22.9528 11.7422C23.4018 15.3882 20.5578 18.5002 16.9998 18.5002H14.9998C14.4478 18.5002 13.9998 18.0532 13.9998 17.5002C13.9998 16.9472 14.4478 16.5002 14.9998 16.5002H16.9998C19.3268 16.5002 21.1958 14.5042 20.9828 12.1342C20.7958 10.0352 18.8958 8.5002 16.7888 8.5002H14.9998C14.4478 8.5002 13.9998 8.0532 13.9998 7.5002C13.9998 6.9472 14.4428 6.5002 15.2488 6.5002H16.7588Z" fill="white"/>
</mask>
<g mask="url(#mask0_2039_25580)">
<rect y="0.5" width="24" height="24" fill="#98A2B3"/>
</g>
</svg>
