<svg width="61" height="61" viewBox="0 0 61 61" fill="none" xmlns="http://www.w3.org/2000/svg">
<mask id="mask0_2335_10474" style="mask-type:luminance" maskUnits="userSpaceOnUse" x="5" y="5" width="51" height="51">
<path fill-rule="evenodd" clip-rule="evenodd" d="M53.3802 28.3974H53.3877C54.7644 28.3974 55.8836 29.5124 55.8861 30.8899C55.9061 37.5674 53.3253 43.8549 48.6183 48.5899C43.9138 53.3249 37.6478 55.9424 30.9746 55.9624H30.9021C24.2539 55.9624 18.0004 53.3824 13.2859 48.6899C8.5539 43.9824 5.93807 37.7124 5.91808 31.0349C5.8981 24.3549 8.47895 18.0699 13.1859 13.3349C17.8904 8.5999 24.1564 5.9824 30.8297 5.9624C32.8159 5.9924 34.8396 6.1924 36.7784 6.6574C38.1175 6.9824 38.9445 8.3324 38.6197 9.6749C38.2974 11.0149 36.9407 11.8399 35.6066 11.5199C34.0551 11.1449 32.4086 10.9874 30.8446 10.9624C25.5056 10.9774 20.4913 13.0724 16.7287 16.8599C12.9636 20.6474 10.8999 25.6774 10.9149 31.0199C10.9299 36.3624 13.0235 41.3774 16.8086 45.1449C20.5812 48.8974 25.583 50.9624 30.9021 50.9624H30.9596C36.2987 50.9474 41.313 48.8524 45.0755 45.0649C48.8406 41.2749 50.9043 36.2474 50.8893 30.9049C50.8868 29.5249 52.0011 28.3999 53.3802 28.3974ZM21.641 29.1949C22.6179 28.2174 24.1969 28.2174 25.1738 29.1949L30.7802 34.8049L46.5126 16.8149C47.4221 15.7824 48.9985 15.6724 50.0379 16.5824C51.0747 17.4899 51.1797 19.0699 50.2702 20.1099L32.7814 40.1099C32.3267 40.6299 31.6771 40.9374 30.9851 40.9624H30.9026C30.2405 40.9624 29.6059 40.6999 29.1362 40.2299L21.641 32.7299C20.6642 31.7524 20.6642 30.1724 21.641 29.1949Z" fill="white"/>
</mask>
<g mask="url(#mask0_2335_10474)">
<rect x="0.921875" y="0.961914" width="59.9617" height="60" fill="#667085"/>
</g>
</svg>
