<svg width="61" height="61" viewBox="0 0 61 61" fill="none" xmlns="http://www.w3.org/2000/svg">
<mask id="mask0_2335_10475" style="mask-type:luminance" maskUnits="userSpaceOnUse" x="13" y="13" width="36" height="36">
<path fill-rule="evenodd" clip-rule="evenodd" d="M30.8469 30.962C30.2798 30.962 29.7102 30.7695 29.248 30.382L14.2575 17.882C13.1982 16.997 13.0558 15.422 13.9377 14.362C14.8222 13.2995 16.3937 13.1595 17.4555 14.042L30.8744 25.2295L44.2709 14.4445C45.3452 13.5795 46.9217 13.7495 47.7836 14.8245C48.6506 15.8995 48.4782 17.472 47.4038 18.3395L32.4134 30.4095C31.9562 30.777 31.4016 30.962 30.8469 30.962ZM30.8763 42.7308L44.2727 31.9433C45.347 31.0808 46.9235 31.2508 47.7855 32.3233C48.6499 33.4008 48.48 34.9733 47.4057 35.8408L32.4153 47.9108C31.9581 48.2783 31.4034 48.4608 30.8488 48.4608C30.2791 48.4608 29.712 48.2683 29.2498 47.8807L14.2594 35.3808C13.1976 34.4983 13.0552 32.9233 13.9396 31.8608C14.8215 30.8008 16.3955 30.6558 17.4573 31.5408L30.8763 42.7308Z" fill="white"/>
</mask>
<g mask="url(#mask0_2335_10475)">
<rect x="0.867188" y="0.961914" width="59.9617" height="60" fill="#667085"/>
</g>
</svg>
