<svg width="61" height="61" viewBox="0 0 61 61" fill="none" xmlns="http://www.w3.org/2000/svg">
<mask id="mask0_2335_10457" style="mask-type:luminance" maskUnits="userSpaceOnUse" x="8" y="8" width="48" height="46">
<path fill-rule="evenodd" clip-rule="evenodd" d="M25.9537 28.4873C31.4651 28.4873 35.9473 24.0023 35.9473 18.4873C35.9473 12.9723 31.4651 8.4873 25.9537 8.4873C20.4422 8.4873 15.9601 12.9723 15.9601 18.4873C15.9601 24.0023 20.4422 28.4873 25.9537 28.4873ZM53.4361 15.9869H50.9377V13.4869C50.9377 12.1119 49.8134 10.9869 48.4393 10.9869C47.0652 10.9869 45.9409 12.1119 45.9409 13.4869V15.9869H43.4425C42.0684 15.9869 40.9441 17.1119 40.9441 18.4869C40.9441 19.8619 42.0684 20.9869 43.4425 20.9869H45.9409V23.4869C45.9409 24.8619 47.0652 25.9869 48.4393 25.9869C49.8134 25.9869 50.9377 24.8619 50.9377 23.4869V20.9869H53.4361C54.8102 20.9869 55.9345 19.8619 55.9345 18.4869C55.9345 17.1119 54.8102 15.9869 53.4361 15.9869ZM43.4425 50.9872C43.4425 52.3672 42.3257 53.4872 40.9441 53.4872H10.9632C9.58163 53.4872 8.46484 52.3672 8.46484 50.9872C8.46484 41.3372 16.3123 33.4872 25.9537 33.4872C35.595 33.4872 43.4425 41.3372 43.4425 50.9872Z" fill="white"/>
</mask>
<g mask="url(#mask0_2335_10457)">
<rect x="0.96875" y="0.987305" width="59.9617" height="60" fill="#667085"/>
</g>
</svg>
