<svg width="61" height="61" viewBox="0 0 61 61" fill="none" xmlns="http://www.w3.org/2000/svg">
<mask id="mask0_2335_10541" style="mask-type:luminance" maskUnits="userSpaceOnUse" x="8" y="8" width="46" height="46">
<path fill-rule="evenodd" clip-rule="evenodd" d="M13.457 8.35938H23.457C26.2145 8.35938 28.457 10.6019 28.457 13.3594V23.3594C28.457 26.1169 26.2145 28.3594 23.457 28.3594H13.457C10.6995 28.3594 8.45703 26.1169 8.45703 23.3594V13.3594C8.45703 10.6019 10.6995 8.35938 13.457 8.35938ZM38.4606 8.35938H48.4606C51.2181 8.35938 53.4606 10.6019 53.4606 13.3594V23.3594C53.4606 26.1169 51.2181 28.3594 48.4606 28.3594H38.4606C35.7031 28.3594 33.4606 26.1169 33.4606 23.3594V13.3594C33.4606 10.6019 35.7031 8.35938 38.4606 8.35938ZM23.457 33.3593H13.457C10.6995 33.3593 8.45703 35.6018 8.45703 38.3593V48.3593C8.45703 51.1168 10.6995 53.3593 13.457 53.3593H23.457C26.2145 53.3593 28.457 51.1168 28.457 48.3593V38.3593C28.457 35.6018 26.2145 33.3593 23.457 33.3593ZM38.4606 33.3593H48.4606C51.2181 33.3593 53.4606 35.6018 53.4606 38.3593V48.3593C53.4606 51.1168 51.2181 53.3593 48.4606 53.3593H38.4606C35.7031 53.3593 33.4606 51.1168 33.4606 48.3593V38.3593C33.4606 35.6018 35.7031 33.3593 38.4606 33.3593Z" fill="white"/>
</mask>
<g mask="url(#mask0_2335_10541)">
<rect x="0.960938" y="0.859375" width="60" height="60" fill="#667085"/>
</g>
</svg>
