<svg width="84" height="131" viewBox="0 0 84 131" fill="none" xmlns="http://www.w3.org/2000/svg">
<g clip-path="url(#clip0_2506_12064)">
<rect width="84" height="131" fill="url(#paint0_linear_2506_12064)"/>
<circle cx="41.5" cy="21.5" r="13.5" fill="#ECECEC"/>
<rect x="12" y="43" width="60" height="8" rx="4" fill="#ECECEC"/>
<rect x="8" y="66" width="68" height="57" rx="16" fill="white"/>
<rect x="16" y="74" width="52" height="8" rx="4" fill="#ECECEC"/>
<rect x="16" y="90" width="52" height="8" rx="4" fill="#ECECEC"/>
<rect x="16" y="106" width="52" height="8" rx="4" fill="#ECECEC"/>
</g>
<g clip-path="url(#clip1_2506_12064)">
<rect width="84" height="131" transform="matrix(-1 0 0 1 84 0)" fill="#505050"/>
<circle cx="13.5" cy="13.5" r="13.5" transform="matrix(-1 0 0 1 56 8)" fill="#6F6F6F"/>
<rect width="60" height="8" rx="4" transform="matrix(-1 0 0 1 72 43)" fill="#6F6F6F"/>
<rect width="68" height="57" rx="16" transform="matrix(-1 0 0 1 76 66)" fill="#181818"/>
<rect width="52" height="8" rx="4" transform="matrix(-1 0 0 1 68 74)" fill="#3B3B3B"/>
<rect width="52" height="8" rx="4" transform="matrix(-1 0 0 1 68 90)" fill="#3B3B3B"/>
<rect width="52" height="8" rx="4" transform="matrix(-1 0 0 1 68 106)" fill="#3B3B3B"/>
</g>
<defs>
<linearGradient id="paint0_linear_2506_12064" x1="2.17247e-07" y1="104" x2="91.5" y2="8.5" gradientUnits="userSpaceOnUse">
<stop stop-color="#C9C9C9"/>
<stop offset="1" stop-color="#DBDBDB"/>
</linearGradient>
<clipPath id="clip0_2506_12064">
<rect width="42" height="131" fill="white"/>
</clipPath>
<clipPath id="clip1_2506_12064">
<rect width="42" height="131" fill="white" transform="matrix(-1 0 0 1 84 0)"/>
</clipPath>
</defs>
</svg>
