<svg width="61" height="61" viewBox="0 0 61 61" fill="none" xmlns="http://www.w3.org/2000/svg">
<mask id="mask0_2335_10531" style="mask-type:luminance" maskUnits="userSpaceOnUse" x="5" y="5" width="44" height="51">
<path fill-rule="evenodd" clip-rule="evenodd" d="M38.4837 13.3718V24.7218H33.4837V13.3718C33.4837 11.9943 34.6037 10.8718 35.9837 10.8718C36.6512 10.8718 37.2687 11.1268 37.7662 11.6368C38.2262 12.0893 38.4837 12.7043 38.4837 13.3718ZM23.4803 43.3726C23.4803 50.2651 29.0878 55.8726 35.9803 55.8726C42.8728 55.8726 48.4803 50.2651 48.4803 43.3726C48.4803 39.4226 46.5953 35.7151 43.4803 33.3801V13.3726C43.4803 11.3451 42.6903 9.45756 41.2978 8.10256C39.8953 6.66506 38.0103 5.87256 35.9803 5.87256C31.8453 5.87256 28.4803 9.23756 28.4803 13.3726V33.3801C25.3653 35.7151 23.4803 39.4226 23.4803 43.3726ZM8.48047 18.3724H18.4805C19.8555 18.3724 20.9805 17.2474 20.9805 15.8724C20.9805 14.4974 19.8555 13.3724 18.4805 13.3724H8.48047C7.10547 13.3724 5.98047 14.4974 5.98047 15.8724C5.98047 17.2474 7.10547 18.3724 8.48047 18.3724Z" fill="white"/>
</mask>
<g mask="url(#mask0_2335_10531)">
<rect x="0.984375" y="0.87207" width="60" height="60" fill="#667085"/>
</g>
</svg>
