<svg width="60" height="61" viewBox="0 0 60 61" fill="none" xmlns="http://www.w3.org/2000/svg">
<mask id="mask0_2335_10530" style="mask-type:luminance" maskUnits="userSpaceOnUse" x="7" y="10" width="46" height="41">
<path fill-rule="evenodd" clip-rule="evenodd" d="M46.7686 36.6084C45.7936 35.6284 44.2086 35.6234 43.2336 36.6009C42.2536 37.5759 42.2486 39.1584 43.2236 40.1359L43.9561 40.8734H39.9961C34.4811 40.8734 29.9961 36.3859 29.9961 30.8734C29.9961 25.3584 34.4811 20.8734 39.9961 20.8734H43.9661L43.2336 21.6009C42.2536 22.5759 42.2486 24.1584 43.2236 25.1359C43.7111 25.6259 44.3536 25.8734 44.9961 25.8734C45.6336 25.8734 46.2736 25.6284 46.7586 25.1434L51.7586 20.1659C52.2311 19.6984 52.4936 19.0634 52.4961 18.4009C52.4986 17.7359 52.2361 17.1009 51.7686 16.6309L46.7686 11.6084C45.7936 10.6284 44.2086 10.6234 43.2336 11.6009C42.2536 12.5759 42.2486 14.1584 43.2236 15.1359L43.9561 15.8734H39.9961C34.7811 15.8734 30.1836 18.5484 27.4961 22.5984C24.8086 18.5484 20.2111 15.8734 14.9961 15.8734H9.99609C8.61359 15.8734 7.49609 16.9909 7.49609 18.3734C7.49609 19.7534 8.61359 20.8734 9.99609 20.8734H14.9961C20.5111 20.8734 24.9961 25.3584 24.9961 30.8734C24.9961 36.3859 20.5111 40.8734 14.9961 40.8734H9.99609C8.61359 40.8734 7.49609 41.9909 7.49609 43.3734C7.49609 44.7534 8.61359 45.8734 9.99609 45.8734H14.9961C20.2111 45.8734 24.8086 43.1959 27.4961 39.1459C30.1836 43.1959 34.7811 45.8734 39.9961 45.8734H43.9661L43.2336 46.6009C42.2536 47.5759 42.2486 49.1584 43.2236 50.1359C43.7111 50.6259 44.3536 50.8734 44.9961 50.8734C45.6336 50.8734 46.2736 50.6284 46.7586 50.1434L51.7586 45.1659C52.2311 44.6984 52.4936 44.0634 52.4961 43.4009C52.4986 42.7359 52.2361 42.1009 51.7686 41.6309L46.7686 36.6084Z" fill="white"/>
</mask>
<g mask="url(#mask0_2335_10530)">
<rect y="0.87207" width="60" height="60" fill="#667085"/>
</g>
</svg>
