<svg width="61" height="61" viewBox="0 0 61 61" fill="none" xmlns="http://www.w3.org/2000/svg">
<mask id="mask0_2335_10503" style="mask-type:luminance" maskUnits="userSpaceOnUse" x="10" y="13" width="41" height="36">
<path fill-rule="evenodd" clip-rule="evenodd" d="M13.4414 33.4233H43.1039L34.0214 44.3233C33.1364 45.3833 33.2814 46.9608 34.3414 47.8433C35.4039 48.7283 36.9789 48.5833 37.8639 47.5233L50.3639 32.5233C50.4614 32.4058 50.5089 32.2683 50.5814 32.1383C50.6414 32.0333 50.7139 31.9433 50.7589 31.8283C50.8714 31.5408 50.9389 31.2383 50.9389 30.9333C50.9389 30.9308 50.9414 30.9258 50.9414 30.9233C50.9414 30.9208 50.9389 30.9158 50.9389 30.9133C50.9389 30.6083 50.8714 30.3058 50.7589 30.0183C50.7139 29.9033 50.6414 29.8133 50.5814 29.7083C50.5089 29.5783 50.4614 29.4408 50.3639 29.3233L37.8639 14.3233C37.3664 13.7308 36.6564 13.4233 35.9414 13.4233C35.3764 13.4233 34.8089 13.6133 34.3414 14.0033C33.2814 14.8858 33.1364 16.4633 34.0214 17.5233L43.1039 28.4233H13.4414C12.0614 28.4233 10.9414 29.5433 10.9414 30.9233C10.9414 32.3033 12.0614 33.4233 13.4414 33.4233" fill="white"/>
</mask>
<g mask="url(#mask0_2335_10503)">
<rect x="0.9375" y="0.922852" width="60" height="60" fill="#667085"/>
</g>
</svg>
