<svg width="61" height="61" viewBox="0 0 61 61" fill="none" xmlns="http://www.w3.org/2000/svg">
<mask id="mask0_2335_10564" style="mask-type:luminance" maskUnits="userSpaceOnUse" x="10" y="10" width="41" height="44">
<path fill-rule="evenodd" clip-rule="evenodd" d="M48.4698 10.8213C47.0948 10.8213 45.9698 11.9463 45.9698 13.3213V50.8213C45.9698 52.1963 47.0948 53.3213 48.4698 53.3213C49.8448 53.3213 50.9698 52.1963 50.9698 50.8213V13.3213C50.9698 11.9463 49.8448 10.8213 48.4698 10.8213ZM30.9712 20.821C29.5962 20.821 28.4712 21.946 28.4712 23.321V50.821C28.4712 52.196 29.5962 53.321 30.9712 53.321C32.3462 53.321 33.4712 52.196 33.4712 50.821V23.321C33.4712 21.946 32.3462 20.821 30.9712 20.821ZM10.9727 33.3207C10.9727 31.9457 12.0977 30.8207 13.4727 30.8207C14.8477 30.8207 15.9727 31.9457 15.9727 33.3207V50.8207C15.9727 52.1957 14.8477 53.3207 13.4727 53.3207C12.0977 53.3207 10.9727 52.1957 10.9727 50.8207V33.3207Z" fill="white"/>
</mask>
<g mask="url(#mask0_2335_10564)">
<rect x="0.96875" y="0.821289" width="60" height="60" fill="#667085"/>
</g>
</svg>
