<svg width="61" height="61" viewBox="0 0 61 61" fill="none" xmlns="http://www.w3.org/2000/svg">
<mask id="mask0_2335_10490" style="mask-type:luminance" maskUnits="userSpaceOnUse" x="5" y="8" width="51" height="48">
<path fill-rule="evenodd" clip-rule="evenodd" d="M40.8956 30.9163C39.5165 30.9163 38.3972 29.797 38.3972 28.4179C38.3972 27.0388 39.5165 25.9195 40.8956 25.9195C42.2747 25.9195 43.394 27.0388 43.394 28.4179C43.394 29.797 42.2747 30.9163 40.8956 30.9163M30.902 30.9163C29.5229 30.9163 28.4036 29.797 28.4036 28.4179C28.4036 27.0388 29.5229 25.9195 30.902 25.9195C32.2811 25.9195 33.4004 27.0388 33.4004 28.4179C33.4004 29.797 32.2811 30.9163 30.902 30.9163M20.9084 30.9163C19.5293 30.9163 18.41 29.797 18.41 28.4179C18.41 27.0388 19.5293 25.9195 20.9084 25.9195C22.2875 25.9195 23.4068 27.0388 23.4068 28.4179C23.4068 29.797 22.2875 30.9163 20.9084 30.9163M48.3908 8.43066H13.4132C9.28082 8.43066 5.91797 11.7935 5.91797 15.9259V53.4019C5.91797 54.3013 6.40266 55.1333 7.18466 55.5755C7.56691 55.7929 7.99164 55.9003 8.41637 55.9003C8.86109 55.9003 9.3058 55.7829 9.70305 55.543L21.0058 48.7624C21.3956 48.5275 21.8403 48.4051 22.2925 48.4051H48.3908C52.5232 48.4051 55.886 45.0423 55.886 40.9099V15.9259C55.886 11.7935 52.5232 8.43066 48.3908 8.43066" fill="white"/>
</mask>
<g mask="url(#mask0_2335_10490)">
<rect x="0.921875" y="0.935547" width="59.9617" height="59.9617" fill="#667085"/>
</g>
</svg>
