<svg width="61" height="61" viewBox="0 0 61 61" fill="none" xmlns="http://www.w3.org/2000/svg">
<mask id="mask0_2335_10482" style="mask-type:luminance" maskUnits="userSpaceOnUse" x="5" y="5" width="51" height="51">
<path fill-rule="evenodd" clip-rule="evenodd" d="M21.686 26.2793L29.1812 19.1289C29.2936 19.0215 29.4335 18.969 29.5584 18.8865C29.6933 18.7966 29.8133 18.6892 29.9632 18.6267C30.2655 18.5043 30.5853 18.4368 30.9051 18.4368C31.2324 18.4368 31.5571 18.5043 31.8619 18.6292C32.1668 18.7566 32.4441 18.939 32.6739 19.1714L40.1666 26.6641C41.1435 27.641 41.1435 29.2224 40.1666 30.1968C39.1923 31.1737 37.6108 31.1737 36.6339 30.1968L33.4035 26.9664V40.9225C33.4035 42.3041 32.2867 43.4209 30.9051 43.4209C29.5259 43.4209 28.4067 42.3041 28.4067 40.9225V26.774L25.1362 29.8945C24.1369 30.8464 22.5579 30.8114 21.6035 29.8121C20.6491 28.8127 20.6891 27.2312 21.686 26.2793M30.9059 55.9129C44.6846 55.9129 55.8899 44.705 55.8899 30.9289C55.8899 17.1527 44.6846 5.94482 30.9059 5.94482C17.1297 5.94482 5.92188 17.1527 5.92188 30.9289C5.92188 44.705 17.1297 55.9129 30.9059 55.9129" fill="white"/>
</mask>
<g mask="url(#mask0_2335_10482)">
<rect x="0.925781" y="0.949219" width="59.9617" height="59.9617" fill="#667085"/>
</g>
</svg>
