<svg width="61" height="61" viewBox="0 0 61 61" fill="none" xmlns="http://www.w3.org/2000/svg">
<mask id="mask0_2335_10533" style="mask-type:luminance" maskUnits="userSpaceOnUse" x="5" y="10" width="51" height="44">
<path fill-rule="evenodd" clip-rule="evenodd" d="M55.5725 30.4408C55.6258 30.6109 55.6792 30.7812 55.7145 30.958C55.8695 31.7405 55.957 32.5455 55.957 33.373C55.957 34.143 55.867 34.9005 55.727 35.648C55.6961 35.8184 55.6544 35.9817 55.6127 36.1452C55.5938 36.2192 55.5749 36.2933 55.557 36.368C55.432 36.8655 55.2845 37.353 55.102 37.8305C55.007 38.078 54.9095 38.3205 54.7995 38.5605C54.582 39.0355 54.3295 39.4905 54.052 39.938C54.0089 40.0074 53.9679 40.0779 53.9269 40.1483C53.8585 40.2657 53.7902 40.383 53.712 40.4955C53.6892 40.528 53.6698 40.5616 53.6506 40.595C53.6298 40.631 53.6092 40.6668 53.5845 40.7005C53.5652 40.7281 53.5383 40.7458 53.5118 40.7633C53.4902 40.7775 53.4688 40.7915 53.452 40.8105C51.172 43.8655 47.562 45.873 43.457 45.873H35.957V42.7055C36.7095 43.1405 37.5645 43.373 38.457 43.373C39.792 43.373 41.047 42.853 41.992 41.908C43.942 39.9605 43.942 36.7855 41.992 34.838L34.492 27.338C33.552 26.3955 32.297 25.8755 30.962 25.8755C29.6645 25.8755 28.432 26.368 27.492 27.2655L19.9845 34.5155C18.002 36.4305 17.947 39.603 19.862 41.5855C20.802 42.558 22.112 43.1155 23.462 43.1155C24.3495 43.1155 25.2045 42.883 25.957 42.448V45.873H18.457C14.352 45.873 10.742 43.8655 8.46453 40.8105C8.44701 40.7919 8.42565 40.7781 8.40424 40.7643C8.37676 40.7465 8.3492 40.7286 8.32953 40.7005C8.30309 40.6644 8.2813 40.6259 8.25941 40.5872C8.24198 40.5564 8.22448 40.5255 8.20453 40.4955C8.12474 40.3806 8.05411 40.2606 7.98355 40.1408C7.94357 40.0728 7.90362 40.005 7.86203 39.938C7.58703 39.4905 7.33203 39.0355 7.11453 38.5605C7.00806 38.3282 6.91564 38.0936 6.8214 37.8543L6.81203 37.8305C6.63203 37.353 6.48203 36.8655 6.35953 36.368C6.34371 36.3048 6.32738 36.242 6.31107 36.1794C6.26551 36.0044 6.22017 35.8303 6.18703 35.648C6.04953 34.9005 5.95703 34.143 5.95703 33.373C5.95703 32.5455 6.04703 31.7405 6.19953 30.958C6.23597 30.7759 6.29147 30.6007 6.34697 30.4256C6.37906 30.3244 6.41114 30.2231 6.43953 30.1205C6.44998 30.0822 6.4604 30.0438 6.47081 30.0054C6.59 29.5661 6.7092 29.1267 6.87703 28.7105C6.96759 28.4842 7.07876 28.2723 7.19028 28.0598C7.23886 27.9673 7.2875 27.8746 7.33453 27.7805C7.35053 27.7488 7.36648 27.717 7.3824 27.6853C7.55809 27.3354 7.73115 26.9908 7.94203 26.663C8.10146 26.4108 8.28207 26.1781 8.46281 25.9452C8.50597 25.8896 8.54914 25.8339 8.59203 25.778L8.60089 25.7667C8.84288 25.4555 9.08282 25.147 9.35203 24.858C9.59322 24.5979 9.85231 24.3647 10.1145 24.1286C10.1295 24.1151 10.1445 24.1016 10.1595 24.088C10.4545 23.823 10.7545 23.568 11.0745 23.333C11.372 23.113 11.677 22.913 11.9945 22.723C12.3445 22.508 12.702 22.3155 13.072 22.138C13.397 21.9805 13.722 21.838 14.062 21.7105C14.467 21.5555 14.8845 21.433 15.3095 21.323C15.647 21.233 15.977 21.1455 16.327 21.088C16.3931 21.0759 16.4572 21.0585 16.5213 21.0411C16.6028 21.0189 16.6842 20.9967 16.7695 20.9855C18.822 15.0255 24.507 10.873 30.957 10.873C37.4095 10.873 43.0945 15.0255 45.1445 20.9855C45.2301 20.9968 45.3124 21.019 45.3948 21.0412C45.4592 21.0586 45.5236 21.076 45.5895 21.088C45.937 21.1455 46.2695 21.233 46.6045 21.323C47.0295 21.433 47.447 21.5555 47.852 21.7105C48.192 21.838 48.5195 21.9805 48.842 22.138C49.212 22.3155 49.5695 22.508 49.9195 22.723C50.237 22.913 50.5445 23.113 50.842 23.333C51.1595 23.568 51.4595 23.823 51.7545 24.088C52.0345 24.338 52.307 24.583 52.5645 24.858C52.837 25.1505 53.0795 25.463 53.322 25.778C53.3537 25.8189 53.3855 25.8596 53.4172 25.9003C53.6106 26.1483 53.8027 26.3946 53.9745 26.663C54.1823 26.9895 54.3546 27.3327 54.5296 27.6811C54.5462 27.7142 54.5628 27.7474 54.5795 27.7805C54.6266 27.8746 54.6752 27.9673 54.7238 28.0599C54.8353 28.2723 54.9465 28.4842 55.037 28.7105C55.2077 29.1279 55.3273 29.5687 55.4468 30.0093C55.4569 30.0464 55.4669 30.0835 55.477 30.1205C55.5059 30.2283 55.5392 30.3345 55.5725 30.4408ZM29.2198 29.0723C30.2048 28.1323 31.7623 28.1398 32.7248 29.1048L40.2248 36.6048C41.2023 37.5823 41.2023 39.1623 40.2248 40.1398C39.7373 40.6273 39.0973 40.8723 38.4573 40.8723C37.8173 40.8723 37.1773 40.6273 36.6898 40.1398L33.4573 36.9073V50.8723C33.4573 52.2548 32.3373 53.3723 30.9573 53.3723C29.5773 53.3723 28.4573 52.2548 28.4573 50.8723V36.7623L25.1948 39.9123C24.2023 40.8748 22.6198 40.8423 21.6598 39.8498C20.6998 38.8548 20.7273 37.2748 21.7198 36.3148L29.2198 29.0723Z" fill="white"/>
</mask>
<g mask="url(#mask0_2335_10533)">
<rect x="0.960938" y="0.87207" width="60" height="60" fill="#667085"/>
</g>
</svg>
