<svg width="61" height="61" viewBox="0 0 61 61" fill="none" xmlns="http://www.w3.org/2000/svg">
<mask id="mask0_2335_10469" style="mask-type:luminance" maskUnits="userSpaceOnUse" x="8" y="8" width="46" height="46">
<path fill-rule="evenodd" clip-rule="evenodd" d="M15.7569 13.4751C14.3803 13.4751 13.2585 14.5976 13.2585 15.9751V45.9751C13.2585 47.3526 14.3803 48.4751 15.7569 48.4751H45.7378C47.1144 48.4751 48.2362 47.3526 48.2362 45.9751V15.9751C48.2362 14.5976 47.1144 13.4751 45.7378 13.4751H15.7569ZM45.7378 53.4746H15.7569C11.6246 53.4746 8.26172 50.1096 8.26172 45.9746V15.9746C8.26172 11.8396 11.6246 8.47461 15.7569 8.47461H45.7378C49.8701 8.47461 53.233 11.8396 53.233 15.9746V45.9746C53.233 50.1096 49.8701 53.4746 45.7378 53.4746V53.4746Z" fill="white"/>
</mask>
<g mask="url(#mask0_2335_10469)">
<rect x="0.765625" y="0.974609" width="59.9617" height="60" fill="#667085"/>
</g>
</svg>
