<svg width="61" height="61" viewBox="0 0 61 61" fill="none" xmlns="http://www.w3.org/2000/svg">
<path d="M29.3035 9.3877C28.1585 9.38771 27.0859 9.94784 26.4316 10.8875L15.8519 26.0802C13.8652 28.9331 12.9797 32.4094 13.3595 35.8651L14.173 43.2686C14.5207 46.4324 17.0044 48.9384 20.1649 49.3144L25.4575 49.9439C29.4992 50.4247 33.5971 50.008 37.4592 48.7234C40.1625 47.8242 42.3278 45.7724 43.371 43.1213L47.6426 32.2662C47.8492 31.7411 47.992 31.1931 48.0679 30.634C48.7286 25.7661 44.3301 21.7333 39.5376 22.8131L29.7929 25.0089L32.6925 13.7611C33.2635 11.5461 31.591 9.38766 29.3035 9.3877Z" fill="#667085"/>
</svg>
