<svg width="61" height="61" viewBox="0 0 61 61" fill="none" xmlns="http://www.w3.org/2000/svg">
<mask id="mask0_2335_10470" style="mask-type:luminance" maskUnits="userSpaceOnUse" x="8" y="8" width="46" height="46">
<path fill-rule="evenodd" clip-rule="evenodd" d="M23.2053 30.9751V33.4751H14.8781C13.9587 33.4751 13.2116 32.7276 13.2116 31.8076V15.1426C13.2116 14.2226 13.9587 13.4751 14.8781 13.4751H31.5324C32.4518 13.4751 33.1989 14.2226 33.1989 15.1426V23.4751H30.7005C26.5681 23.4751 23.2053 26.8401 23.2053 30.9751M45.6909 23.4746H38.1957V15.1421C38.1957 11.4646 35.2076 8.47461 31.5324 8.47461H14.8781C11.2029 8.47461 8.21484 11.4646 8.21484 15.1421V31.8071C8.21484 35.4846 11.2029 38.4746 14.8781 38.4746H23.2053V45.9746C23.2053 50.1096 26.5681 53.4746 30.7005 53.4746H45.6909C49.8232 53.4746 53.1861 50.1096 53.1861 45.9746V30.9746C53.1861 26.8396 49.8232 23.4746 45.6909 23.4746" fill="white"/>
</mask>
<g mask="url(#mask0_2335_10470)">
<rect x="0.71875" y="0.974609" width="59.9617" height="60" fill="#667085"/>
</g>
</svg>
