<svg width="60" height="61" viewBox="0 0 60 61" fill="none" xmlns="http://www.w3.org/2000/svg">
<mask id="mask0_2335_10488" style="mask-type:luminance" maskUnits="userSpaceOnUse" x="7" y="5" width="46" height="51">
<path fill-rule="evenodd" clip-rule="evenodd" d="M31.7915 6.68333L51.0517 26.3807C51.9661 27.3201 52.4908 28.6293 52.4908 29.9759V50.9026C52.4908 53.6583 50.3746 55.8994 47.7738 55.8994H39.9988V33.4137C39.9988 32.0346 38.882 30.9153 37.5004 30.9153H22.5099C21.1283 30.9153 20.0115 32.0346 20.0115 33.4137V55.8994H12.239C9.63818 55.8994 7.51953 53.6583 7.51953 50.9026V29.9759C7.51953 28.6293 8.0442 27.3201 8.95611 26.3832L28.2188 6.68333C29.1607 5.72144 30.8496 5.72144 31.7915 6.68333ZM35.002 53.4023H25.0083V35.9135H35.002V53.4023Z" fill="white"/>
</mask>
<g mask="url(#mask0_2335_10488)">
<rect x="0.0234375" y="0.935547" width="59.9617" height="59.9617" fill="#667085"/>
</g>
</svg>
