<svg width="60" height="60" viewBox="0 0 60 60" fill="none" xmlns="http://www.w3.org/2000/svg">
<path d="M21.0078 13.125C14.0557 13.125 8.13281 18.3233 8.13281 25.0745C8.13281 29.7319 10.3137 33.653 13.204 36.9011C16.0845 40.138 19.8007 42.855 23.1602 45.1291L28.9568 49.0527C29.5916 49.4824 30.424 49.4824 31.0588 49.0527L36.8554 45.1291C40.215 42.855 43.9312 40.138 46.8116 36.9011C49.7019 33.653 51.8828 29.7319 51.8828 25.0745C51.8828 18.3233 45.96 13.125 39.0078 13.125C35.4241 13.125 32.2707 14.8053 30.0078 16.9796C27.7449 14.8053 24.5915 13.125 21.0078 13.125Z" fill="#667085"/>
</svg>
