<svg width="61" height="61" viewBox="0 0 61 61" fill="none" xmlns="http://www.w3.org/2000/svg">
<mask id="mask0_2335_10460" style="mask-type:luminance" maskUnits="userSpaceOnUse" x="8" y="15" width="46" height="31">
<path fill-rule="evenodd" clip-rule="evenodd" d="M8.35547 18.4878C8.35547 17.1078 9.47475 15.9878 10.8539 15.9878C12.233 15.9878 13.3523 17.1078 13.3523 18.4878C13.3523 19.8678 12.233 20.9878 10.8539 20.9878C9.47475 20.9878 8.35547 19.8678 8.35547 18.4878ZM8.35547 30.9883C8.35547 29.6083 9.47475 28.4883 10.8539 28.4883C12.233 28.4883 13.3523 29.6083 13.3523 30.9883C13.3523 32.3683 12.233 33.4883 10.8539 33.4883C9.47475 33.4883 8.35547 32.3683 8.35547 30.9883ZM10.8539 40.9877C9.47475 40.9877 8.35547 42.1077 8.35547 43.4877C8.35547 44.8677 9.47475 45.9877 10.8539 45.9877C12.233 45.9877 13.3523 44.8677 13.3523 43.4877C13.3523 42.1077 12.233 40.9877 10.8539 40.9877ZM20.6851 28.4883H50.9882C52.2749 28.4883 53.3267 29.5408 53.3267 30.8283V31.1483C53.3267 32.4358 52.2749 33.4883 50.9882 33.4883H20.6851C19.3984 33.4883 18.3491 32.4358 18.3491 31.1483V30.8283C18.3491 29.5408 19.3984 28.4883 20.6851 28.4883ZM50.9882 40.9877H20.6851C19.3984 40.9877 18.3491 42.0402 18.3491 43.3277V43.6477C18.3491 44.9352 19.3984 45.9877 20.6851 45.9877H50.9882C52.2749 45.9877 53.3267 44.9352 53.3267 43.6477V43.3277C53.3267 42.0402 52.2749 40.9877 50.9882 40.9877ZM20.6851 15.9878H50.9882C52.2749 15.9878 53.3267 17.0403 53.3267 18.3278V18.6478C53.3267 19.9353 52.2749 20.9878 50.9882 20.9878H20.6851C19.3984 20.9878 18.3491 19.9353 18.3491 18.6478V18.3278C18.3491 17.0403 19.3984 15.9878 20.6851 15.9878Z" fill="white"/>
</mask>
<g mask="url(#mask0_2335_10460)">
<rect x="0.859375" y="0.987305" width="59.9617" height="60" fill="#667085"/>
</g>
</svg>
