<svg width="24" height="24" viewBox="0 0 24 24" fill="none" xmlns="http://www.w3.org/2000/svg">
<mask id="mask0_2051_29286" style="mask-type:luminance" maskUnits="userSpaceOnUse" x="1" y="4" width="21" height="17">
<path fill-rule="evenodd" clip-rule="evenodd" d="M7.21809 6C6.35409 6 5.54409 6.334 4.93809 6.941C3.68009 8.201 3.68009 10.252 4.93909 11.514L11.9981 18.585L19.0581 11.514C20.3171 10.252 20.3171 8.201 19.0581 6.941C17.8461 5.726 15.7101 5.728 14.4981 6.941L12.7061 8.736C12.3301 9.113 11.6661 9.113 11.2901 8.736L9.49809 6.94C8.89209 6.334 8.08309 6 7.21809 6ZM11.9981 21C11.7331 21 11.4781 20.895 11.2911 20.706L3.52309 12.926C1.48709 10.886 1.48709 7.567 3.52309 5.527C4.50709 4.543 5.81909 4 7.21809 4C8.61709 4 9.93009 4.543 10.9131 5.527L11.9981 6.614L13.0831 5.528C14.0671 4.543 15.3791 4 16.7791 4C18.1771 4 19.4901 4.543 20.4731 5.527C22.5101 7.567 22.5101 10.886 20.4741 12.926L12.7061 20.707C12.5181 20.895 12.2641 21 11.9981 21Z" fill="white"/>
</mask>
<g mask="url(#mask0_2051_29286)">
<rect width="24" height="24" fill="#98A2B3"/>
</g>
</svg>
