<svg width="61" height="61" viewBox="0 0 61 61" fill="none" xmlns="http://www.w3.org/2000/svg">
<mask id="mask0_2335_10548" style="mask-type:luminance" maskUnits="userSpaceOnUse" x="8" y="8" width="46" height="46">
<path fill-rule="evenodd" clip-rule="evenodd" d="M15.0251 28.3471L21.8351 14.7296C22.2601 13.8771 23.1176 13.3471 24.0701 13.3471H37.8901C38.8426 13.3471 39.7001 13.8771 40.1251 14.7296L46.9351 28.3471H15.0251ZM40.9735 43.347H30.9735C29.5985 43.347 28.4735 42.222 28.4735 40.847C28.4735 39.472 29.5985 38.347 30.9735 38.347H40.9735C42.3485 38.347 43.4735 39.472 43.4735 40.847C43.4735 42.222 42.3485 43.347 40.9735 43.347V43.347ZM20.9799 43.347C19.6049 43.347 18.4799 42.222 18.4799 40.847C18.4799 39.472 19.6049 38.347 20.9799 38.347C22.3549 38.347 23.4799 39.472 23.4799 40.847C23.4799 42.222 22.3549 43.347 20.9799 43.347V43.347ZM52.9491 29.2017L44.5941 12.4917C43.3141 9.93668 40.7466 8.34668 37.8866 8.34668H24.0666C21.2066 8.34668 18.6366 9.93668 17.3591 12.4917L9.00406 29.2017C8.65906 29.8917 8.47656 30.6667 8.47656 31.4367V45.8467C8.47656 49.9817 11.8416 53.3467 15.9766 53.3467H45.9766C50.1116 53.3467 53.4766 49.9817 53.4766 45.8467V31.4367C53.4766 30.6667 53.2941 29.8917 52.9491 29.2017V29.2017Z" fill="white"/>
</mask>
<g mask="url(#mask0_2335_10548)">
<rect x="0.96875" y="0.84668" width="60" height="60" fill="#667085"/>
</g>
</svg>
