<svg width="61" height="60" viewBox="0 0 61 60" fill="none" xmlns="http://www.w3.org/2000/svg">
<mask id="mask0_2335_10455" style="mask-type:luminance" maskUnits="userSpaceOnUse" x="10" y="10" width="41" height="43">
<path fill-rule="evenodd" clip-rule="evenodd" d="M13.2757 10H48.2534C49.5416 10 50.6103 10.9888 50.7388 12.2453C50.7474 12.3291 50.7518 12.4141 50.7518 12.5L50.7518 12.5044V17.5C50.7518 18.875 49.6275 20 48.2534 20C46.8793 20 45.755 18.875 45.755 17.5V15H15.7741V17.5C15.7741 18.875 14.6499 20 13.2757 20C11.9016 20 10.7773 18.875 10.7773 17.5V12.5C10.7773 12.4141 10.7817 12.3291 10.7903 12.2453C10.9189 10.9888 11.9875 10 13.2757 10ZM20.7744 35.0005C20.0124 35.0005 19.2654 34.6555 18.7732 34.0005C17.9437 32.8955 18.1686 31.328 19.2729 30.5005L29.2665 23.0005C30.1309 22.3505 31.3202 22.333 32.2021 22.9555L42.1957 29.9905C43.325 30.7855 43.5973 32.3455 42.8028 33.473C42.0083 34.6005 40.4518 34.8755 39.3225 34.0805L33.2559 29.8101C33.2606 29.8727 33.263 29.936 33.263 29.9998V49.9998C33.263 51.3798 32.1462 52.4998 30.7646 52.4998C29.3829 52.4998 28.2662 51.3798 28.2662 49.9998V30.0017L22.2709 34.5005C21.8212 34.838 21.2966 35.0005 20.7744 35.0005Z" fill="white"/>
</mask>
<g mask="url(#mask0_2335_10455)">
<rect x="0.78125" width="59.9617" height="60" fill="#667085"/>
</g>
</svg>
