<svg width="61" height="61" viewBox="0 0 61 61" fill="none" xmlns="http://www.w3.org/2000/svg">
<mask id="mask0_2335_10489" style="mask-type:luminance" maskUnits="userSpaceOnUse" x="5" y="5" width="51" height="51">
<path fill-rule="evenodd" clip-rule="evenodd" d="M40.1686 35.5671L32.6734 42.7176C32.561 42.825 32.4211 42.8775 32.2961 42.9599C32.1612 43.0499 32.0413 43.1573 31.8914 43.2198C31.5891 43.3422 31.2693 43.4096 30.9495 43.4096C30.6222 43.4096 30.2974 43.3422 29.9926 43.2173C29.6878 43.0898 29.4105 42.9075 29.1806 42.6751L21.6879 35.1824C20.711 34.2055 20.711 32.624 21.6879 31.6497C22.6623 30.6728 24.2438 30.6728 25.2207 31.6497L28.4511 34.8801V20.924C28.4511 19.5424 29.5679 18.4256 30.9495 18.4256C32.3286 18.4256 33.4479 19.5424 33.4479 20.924V35.0725L36.7183 31.952C37.7177 31.0001 39.2967 31.035 40.251 32.0344C41.2054 33.0338 41.1655 34.6153 40.1686 35.5671M30.9489 5.93359C17.1702 5.93359 5.96484 17.1414 5.96484 30.9176C5.96484 44.6938 17.1702 55.9016 30.9489 55.9016C44.7251 55.9016 55.9329 44.6938 55.9329 30.9176C55.9329 17.1414 44.7251 5.93359 30.9489 5.93359" fill="white"/>
</mask>
<g mask="url(#mask0_2335_10489)">
<rect x="0.96875" y="0.935547" width="59.9617" height="59.9617" fill="#667085"/>
</g>
</svg>
