<svg width="24" height="24" viewBox="0 0 24 24" fill="none" xmlns="http://www.w3.org/2000/svg">
<mask id="mask0_2051_29250" style="mask-type:luminance" maskUnits="userSpaceOnUse" x="5" y="5" width="14" height="14">
<path fill-rule="evenodd" clip-rule="evenodd" d="M12.0001 12.0003C11.7731 12.0003 11.5451 11.9233 11.3601 11.7683L5.36013 6.76831C4.93613 6.41431 4.87913 5.78431 5.23213 5.36031C5.58613 4.93531 6.21513 4.87931 6.64013 5.23231L12.0111 9.70731L17.3731 5.39331C17.8031 5.04731 18.4341 5.11531 18.7791 5.54531C19.1261 5.97531 19.0571 6.60431 18.6271 6.95131L12.6271 11.7793C12.4441 11.9263 12.2221 12.0003 12.0001 12.0003ZM12.0112 16.7078L17.3732 12.3928C17.8032 12.0478 18.4342 12.1158 18.7792 12.5448C19.1252 12.9758 19.0572 13.6048 18.6272 13.9518L12.6272 18.7798C12.4442 18.9268 12.2222 18.9998 12.0002 18.9998C11.7722 18.9998 11.5452 18.9228 11.3602 18.7678L5.36023 13.7678C4.93523 13.4148 4.87823 12.7848 5.23223 12.3598C5.58523 11.9358 6.21523 11.8778 6.64023 12.2318L12.0112 16.7078Z" fill="white"/>
</mask>
<g mask="url(#mask0_2051_29250)">
<rect width="24" height="24" fill="#98A2B3"/>
</g>
</svg>
