<svg width="61" height="61" viewBox="0 0 61 61" fill="none" xmlns="http://www.w3.org/2000/svg">
<mask id="mask0_2335_10552" style="mask-type:luminance" maskUnits="userSpaceOnUse" x="12" y="8" width="36" height="46">
<path fill-rule="evenodd" clip-rule="evenodd" d="M15.0234 53.4873C14.5984 53.4873 14.1734 53.3798 13.7909 53.1623C13.0084 52.7198 12.5234 51.8873 12.5234 50.9873V14.3198C12.5234 11.1048 14.9909 8.4873 18.0234 8.4873H42.0234C45.0559 8.4873 47.5234 11.1048 47.5234 14.3198V50.9873C47.5234 51.8748 47.0509 52.6998 46.2834 53.1473C45.5159 53.5973 44.5684 53.6023 43.7934 53.1648L29.6134 45.1448L16.3109 53.1298C15.9134 53.3673 15.4684 53.4873 15.0234 53.4873" fill="white"/>
</mask>
<g mask="url(#mask0_2335_10552)">
<rect x="0.0234375" y="0.987305" width="60" height="60" fill="#667085"/>
</g>
</svg>
