<svg width="61" height="61" viewBox="0 0 61 61" fill="none" xmlns="http://www.w3.org/2000/svg">
<mask id="mask0_2335_10557" style="mask-type:luminance" maskUnits="userSpaceOnUse" x="10" y="10" width="41" height="44">
<path fill-rule="evenodd" clip-rule="evenodd" d="M30.9634 10.834C29.5884 10.834 28.4634 11.959 28.4634 13.334V50.834C28.4634 52.209 29.5884 53.334 30.9634 53.334C32.3384 53.334 33.4634 52.209 33.4634 50.834V13.334C33.4634 11.959 32.3384 10.834 30.9634 10.834ZM48.462 30.8334C47.087 30.8334 45.962 31.9584 45.962 33.3334V50.8334C45.962 52.2084 47.087 53.3334 48.462 53.3334C49.837 53.3334 50.962 52.2084 50.962 50.8334V33.3334C50.962 31.9584 49.837 30.8334 48.462 30.8334ZM10.9648 23.3337C10.9648 21.9587 12.0898 20.8337 13.4648 20.8337C14.8398 20.8337 15.9648 21.9587 15.9648 23.3337V50.8337C15.9648 52.2087 14.8398 53.3337 13.4648 53.3337C12.0898 53.3337 10.9648 52.2087 10.9648 50.8337V23.3337Z" fill="white"/>
</mask>
<g mask="url(#mask0_2335_10557)">
<rect x="0.960938" y="0.833984" width="60" height="60" fill="#667085"/>
</g>
</svg>
