<svg width="61" height="61" viewBox="0 0 61 61" fill="none" xmlns="http://www.w3.org/2000/svg">
<path fill-rule="evenodd" clip-rule="evenodd" d="M30.8639 6.6123C31.8994 6.6123 32.7389 7.45177 32.7389 8.4873V12.8296C36.3174 12.8787 39.8945 13.0685 43.4618 13.3989L44.2908 13.4757C49.9526 14.0002 54.3124 18.7018 54.4088 24.387L54.439 26.1707C54.5566 33.1078 53.9974 40.0398 52.7694 46.8683C52.2105 49.976 49.5063 52.2373 46.3488 52.2373H45.7961C42.9549 52.2373 40.3806 50.5629 39.2286 47.9657L36.5771 41.9875C34.3796 37.0328 27.3481 37.0328 25.1506 41.9875L22.4991 47.9657C21.3472 50.5629 18.7728 52.2373 15.9316 52.2373H15.379C12.2215 52.2373 9.51722 49.976 8.95836 46.8683C7.73037 40.0398 7.17119 33.1078 7.28876 26.1707L7.31899 24.3871C7.41535 18.7018 11.7751 14.0002 17.437 13.4757L18.266 13.3989C21.8333 13.0685 25.4103 12.8787 28.9889 12.8296V8.4873C28.9889 7.45177 29.8283 6.6123 30.8639 6.6123ZM43.3639 20.9873C43.3639 19.6066 42.2446 18.4873 40.8639 18.4873C39.4832 18.4873 38.3639 19.6066 38.3639 20.9873V21.6123C38.3639 22.993 39.4832 24.1123 40.8639 24.1123C42.2446 24.1123 43.3639 22.993 43.3639 21.6123V20.9873ZM20.8639 19.1123C21.8994 19.1123 22.7389 19.9518 22.7389 20.9873V24.1123H25.8639C26.8994 24.1123 27.7389 24.9518 27.7389 25.9873C27.7389 27.0228 26.8994 27.8623 25.8639 27.8623H22.7389V30.9873C22.7389 32.0228 21.8994 32.8623 20.8639 32.8623C19.8283 32.8623 18.9889 32.0228 18.9889 30.9873V27.8623H15.8639C14.8283 27.8623 13.9889 27.0228 13.9889 25.9873C13.9889 24.9518 14.8283 24.1123 15.8639 24.1123L18.9889 24.1123V20.9873C18.9889 19.9518 19.8283 19.1123 20.8639 19.1123ZM40.8639 27.8623C42.2446 27.8623 43.3639 28.9816 43.3639 30.3623V30.9873C43.3639 32.368 42.2446 33.4873 40.8639 33.4873C39.4832 33.4873 38.3639 32.368 38.3639 30.9873V30.3623C38.3639 28.9816 39.4832 27.8623 40.8639 27.8623ZM45.8639 28.4873C47.2446 28.4873 48.3639 27.368 48.3639 25.9873C48.3639 24.6066 47.2446 23.4873 45.8639 23.4873H45.2389C43.8582 23.4873 42.7389 24.6066 42.7389 25.9873C42.7389 27.368 43.8582 28.4873 45.2389 28.4873H45.8639ZM38.9889 25.9873C38.9889 27.368 37.8696 28.4873 36.4889 28.4873H35.8639C34.4832 28.4873 33.3639 27.368 33.3639 25.9873C33.3639 24.6066 34.4832 23.4873 35.8639 23.4873H36.4889C37.8696 23.4873 38.9889 24.6066 38.9889 25.9873Z" fill="#667085"/>
</svg>
