<svg width="61" height="61" viewBox="0 0 61 61" fill="none" xmlns="http://www.w3.org/2000/svg">
<mask id="mask0_2335_10471" style="mask-type:luminance" maskUnits="userSpaceOnUse" x="5" y="8" width="51" height="46">
<path fill-rule="evenodd" clip-rule="evenodd" d="M30.6442 32.2241C28.578 32.2241 26.8966 33.9066 26.8966 35.9741C26.8966 38.0416 28.578 39.7241 30.6442 39.7241C32.7104 39.7241 34.3918 38.0416 34.3918 35.9741C34.3918 33.9066 32.7104 32.2241 30.6442 32.2241M30.6442 44.7248C25.8223 44.7248 21.8998 40.7998 21.8998 35.9748C21.8998 31.1498 25.8223 27.2248 30.6442 27.2248C35.4661 27.2248 39.3886 31.1498 39.3886 35.9748C39.3886 40.7998 35.4661 44.7248 30.6442 44.7248V44.7248ZM25.6474 14.7251C25.6474 14.0351 26.2095 13.4751 26.8966 13.4751H34.3918C35.0788 13.4751 35.641 14.0351 35.641 14.7251V18.4751H25.6474V14.7251ZM48.133 18.4746H40.6378V14.7246C40.6378 11.2796 37.8371 8.47461 34.3918 8.47461H26.8966C23.4513 8.47461 20.6506 11.2796 20.6506 14.7246V18.4746H13.1554C9.02301 18.4746 5.66016 21.8396 5.66016 25.9746V45.9746C5.66016 50.1096 9.02301 53.4746 13.1554 53.4746H48.133C52.2654 53.4746 55.6282 50.1096 55.6282 45.9746V25.9746C55.6282 21.8396 52.2654 18.4746 48.133 18.4746V18.4746Z" fill="white"/>
</mask>
<g mask="url(#mask0_2335_10471)">
<rect x="0.664062" y="0.974609" width="59.9617" height="60" fill="#667085"/>
</g>
</svg>
