<svg width="61" height="61" viewBox="0 0 61 61" fill="none" xmlns="http://www.w3.org/2000/svg">
<mask id="mask0_2335_10478" style="mask-type:luminance" maskUnits="userSpaceOnUse" x="13" y="13" width="38" height="36">
<path fill-rule="evenodd" clip-rule="evenodd" d="M50.1398 26.9004L40.1462 14.4004C39.2793 13.3229 37.7103 13.1454 36.6335 14.0104C35.5567 14.8704 35.3818 16.4454 36.2437 17.5229L42.9919 25.9629H20.7061C16.5713 25.9629 13.2109 29.3254 13.2109 33.4629V45.9629C13.2109 47.3429 14.3302 48.4629 15.7093 48.4629C17.0885 48.4629 18.2077 47.3429 18.2077 45.9629V33.4629C18.2077 32.0829 19.327 30.9629 20.7061 30.9629H42.9919L36.2437 39.4004C35.3818 40.4779 35.5567 42.0529 36.6335 42.9129C37.0932 43.2829 37.6453 43.4629 38.1925 43.4629C38.927 43.4629 39.6515 43.1404 40.1462 42.5229L50.1398 30.0229C50.8694 29.1104 50.8694 27.8129 50.1398 26.9004" fill="white"/>
</mask>
<g mask="url(#mask0_2335_10478)">
<rect x="0.71875" y="0.961914" width="59.9617" height="60" fill="#667085"/>
</g>
</svg>
