<svg width="60" height="61" viewBox="0 0 60 61" fill="none" xmlns="http://www.w3.org/2000/svg">
<mask id="mask0_2335_10522" style="mask-type:luminance" maskUnits="userSpaceOnUse" x="10" y="10" width="41" height="41">
<path fill-rule="evenodd" clip-rule="evenodd" d="M47.5045 26.6548C46.1245 26.6548 45.0045 25.5348 45.0045 24.1548L45.002 19.4223L14.272 50.1523C13.7845 50.6398 13.1445 50.8848 12.5045 50.8848C11.8645 50.8848 11.2245 50.6398 10.737 50.1523C9.75953 49.1748 9.75953 47.5923 10.737 46.6173L26.4545 30.8998L11.8745 16.3223C10.897 15.3448 10.897 13.7623 11.8745 12.7873C12.852 11.8098 14.432 11.8098 15.4095 12.7873L29.9895 27.3648L41.4445 15.9073L36.722 15.8848C35.342 15.8773 34.227 14.7523 34.2345 13.3723C34.242 11.9923 35.427 10.9098 36.747 10.8848L47.5095 10.9373C48.8845 10.9448 49.997 12.0623 49.997 13.4373L50.0045 24.1523C50.0045 25.5323 48.887 26.6523 47.507 26.6548H47.5045ZM47.5089 35.0824H47.5214C48.9039 35.0899 50.0164 36.2149 50.0089 37.5949L49.9564 48.1149C50.0364 48.8424 49.8364 49.5949 49.2764 50.1524C48.7889 50.6399 48.1489 50.8848 47.5089 50.8848C47.4708 50.8848 47.4336 50.8745 47.3962 50.8642C47.3673 50.8562 47.3383 50.8481 47.3089 50.8449L36.7414 50.8524C35.3614 50.8524 34.2414 49.7324 34.2414 48.3524C34.2414 46.9724 35.3589 45.8524 36.7389 45.8524L41.4364 45.8499L34.4914 38.9024C33.5139 37.9249 33.5139 36.3424 34.4914 35.3674C35.4689 34.3899 37.0514 34.3899 38.0264 35.3674L44.9839 42.3249L45.0089 37.5699C45.0164 36.1924 46.1339 35.0824 47.5089 35.0824Z" fill="white"/>
</mask>
<g mask="url(#mask0_2335_10522)">
<rect y="0.884766" width="60" height="60" fill="#667085"/>
</g>
</svg>
