<svg width="61" height="61" viewBox="0 0 61 61" fill="none" xmlns="http://www.w3.org/2000/svg">
<mask id="mask0_2335_10535" style="mask-type:luminance" maskUnits="userSpaceOnUse" x="15" y="15" width="31" height="31">
<path fill-rule="evenodd" clip-rule="evenodd" d="M45.205 16.6042C44.2275 15.6267 42.6475 15.6267 41.67 16.6042L20.9375 37.3367V23.3717C20.9375 21.9917 19.82 20.8717 18.4375 20.8717C17.055 20.8717 15.9375 21.9917 15.9375 23.3717V43.3717C15.9375 44.7517 17.055 45.8717 18.4375 45.8717H38.4375C39.82 45.8717 40.9375 44.7517 40.9375 43.3717C40.9375 41.9917 39.82 40.8717 38.4375 40.8717H24.4725L45.205 20.1392C46.1825 19.1617 46.1825 17.5817 45.205 16.6042" fill="white"/>
</mask>
<g mask="url(#mask0_2335_10535)">
<rect x="0.9375" y="0.87207" width="60" height="60" fill="#667085"/>
</g>
</svg>
