<svg width="61" height="60" viewBox="0 0 61 60" fill="none" xmlns="http://www.w3.org/2000/svg">
<mask id="mask0_2335_10454" style="mask-type:luminance" maskUnits="userSpaceOnUse" x="10" y="10" width="41" height="40">
<path fill-rule="evenodd" clip-rule="evenodd" d="M40.8531 26.6969L34.1199 19.9594L38.9868 15.0869L45.7175 21.8219L40.8531 26.6969ZM49.3094 18.3439L49.3069 18.3414L42.4662 11.4964C40.6149 9.64894 37.4344 9.56144 35.6806 11.3239L13.2049 33.8139C12.3905 34.6264 11.8858 35.7064 11.7808 36.8489L10.834 47.2739C10.769 48.0114 11.0313 48.7414 11.556 49.2664C12.0282 49.7389 12.6653 49.9989 13.3224 49.9989C13.3998 49.9989 13.4748 49.9964 13.5497 49.9889L23.9681 49.0414C25.1123 48.9364 26.1891 48.4339 27.0011 47.6214L49.4792 25.1289C51.2981 23.3039 51.2206 20.2589 49.3094 18.3439V18.3439Z" fill="white"/>
</mask>
<g mask="url(#mask0_2335_10454)">
<rect x="0.828125" width="59.9617" height="60" fill="#667085"/>
</g>
</svg>
