<svg width="61" height="61" viewBox="0 0 61 61" fill="none" xmlns="http://www.w3.org/2000/svg">
<mask id="mask0_2335_10492" style="mask-type:luminance" maskUnits="userSpaceOnUse" x="5" y="8" width="51" height="46">
<path fill-rule="evenodd" clip-rule="evenodd" d="M25.8627 14.6865C25.8627 13.9965 26.4227 13.4365 27.1127 13.4365H34.6127C35.3027 13.4365 35.8627 13.9965 35.8627 14.6865V18.4365H25.8627V14.6865ZM18.3578 53.436H43.3578V18.436H40.8578V14.686C40.8578 11.241 38.0528 8.43604 34.6078 8.43604H27.1078C23.6628 8.43604 20.8578 11.241 20.8578 14.686V18.436H18.3578V53.436ZM48.3576 18.4357V53.4357C52.4926 53.4357 55.8576 50.0707 55.8576 45.9357V25.9357C55.8576 21.8007 52.4926 18.4357 48.3576 18.4357ZM5.85547 25.9357C5.85547 21.8007 9.22047 18.4357 13.3555 18.4357V53.4357C9.22047 53.4357 5.85547 50.0707 5.85547 45.9357V25.9357Z" fill="white"/>
</mask>
<g mask="url(#mask0_2335_10492)">
<rect x="0.859375" y="0.935547" width="60" height="60" fill="#667085"/>
</g>
</svg>
