<svg width="61" height="61" viewBox="0 0 61 61" fill="none" xmlns="http://www.w3.org/2000/svg">
<mask id="mask0_2335_10536" style="mask-type:luminance" maskUnits="userSpaceOnUse" x="7" y="25" width="46" height="11">
<path fill-rule="evenodd" clip-rule="evenodd" d="M7.51953 30.0127C7.51953 27.2527 9.75953 25.0127 12.5195 25.0127C15.2795 25.0127 17.5195 27.2527 17.5195 30.0127C17.5195 32.7727 15.2795 35.0127 12.5195 35.0127C9.75953 35.0127 7.51953 32.7727 7.51953 30.0127ZM30.0181 25.0127C27.2581 25.0127 25.0181 27.2527 25.0181 30.0127C25.0181 32.7727 27.2581 35.0127 30.0181 35.0127C32.7781 35.0127 35.0181 32.7727 35.0181 30.0127C35.0181 27.2527 32.7781 25.0127 30.0181 25.0127ZM47.5167 25.0127C44.7567 25.0127 42.5167 27.2527 42.5167 30.0127C42.5167 32.7727 44.7567 35.0127 47.5167 35.0127C50.2767 35.0127 52.5167 32.7727 52.5167 30.0127C52.5167 27.2527 50.2767 25.0127 47.5167 25.0127Z" fill="white"/>
</mask>
<g mask="url(#mask0_2335_10536)">
<rect x="0.0234375" y="0.0126953" width="60" height="60" fill="#667085"/>
</g>
</svg>
