<svg width="61" height="61" viewBox="0 0 61 61" fill="none" xmlns="http://www.w3.org/2000/svg">
<mask id="mask0_2335_10510" style="mask-type:luminance" maskUnits="userSpaceOnUse" x="8" y="10" width="46" height="41">
<path fill-rule="evenodd" clip-rule="evenodd" d="M48.4386 44.5455L43.4386 42.3005V17.2755L48.4386 19.5205V44.5455ZM23.4416 17.2755L28.4416 19.5205V44.5455L23.4416 42.3005V17.2755ZM51.9664 15.6257L41.9664 11.1307C41.9289 11.1132 41.8889 11.1107 41.8514 11.0957C41.7489 11.0557 41.6464 11.0282 41.5414 11.0007C41.4439 10.9757 41.3464 10.9532 41.2464 10.9432C41.1489 10.9307 41.0514 10.9282 40.9514 10.9282C40.8414 10.9282 40.7339 10.9307 40.6239 10.9432C40.5314 10.9532 40.4439 10.9757 40.3539 10.9982C40.2439 11.0257 40.1364 11.0557 40.0289 11.0957C39.9939 11.1107 39.9514 11.1132 39.9164 11.1307L30.9414 15.1632L21.9664 11.1307C21.9289 11.1132 21.8889 11.1107 21.8514 11.0957C21.7489 11.0557 21.6464 11.0282 21.5414 11.0007C21.4439 10.9757 21.3464 10.9532 21.2464 10.9432C21.1489 10.9307 21.0514 10.9282 20.9514 10.9282C20.8414 10.9282 20.7339 10.9307 20.6239 10.9432C20.5314 10.9532 20.4439 10.9757 20.3539 10.9982C20.2439 11.0257 20.1364 11.0557 20.0289 11.0957C19.9939 11.1107 19.9514 11.1132 19.9164 11.1307L9.91641 15.6257C9.01891 16.0282 8.44141 16.9207 8.44141 17.9057V48.4107C8.44141 49.2582 8.87141 50.0482 9.58391 50.5107C9.99391 50.7757 10.4664 50.9107 10.9414 50.9107C11.2889 50.9107 11.6389 50.8382 11.9664 50.6907L20.9414 46.6582L29.9164 50.6907C29.9539 50.7082 29.9939 50.7007 30.0339 50.7157C30.3264 50.8332 30.6289 50.9107 30.9414 50.9107C31.2539 50.9107 31.5564 50.8332 31.8489 50.7157C31.8864 50.7007 31.9314 50.7082 31.9664 50.6907L40.9414 46.6582L49.9164 50.6907C50.2439 50.8382 50.5939 50.9107 50.9414 50.9107C51.4164 50.9107 51.8889 50.7757 52.2989 50.5107C53.0114 50.0482 53.4414 49.2582 53.4414 48.4107V17.9057C53.4414 16.9207 52.8639 16.0282 51.9664 15.6257V15.6257Z" fill="white"/>
</mask>
<g mask="url(#mask0_2335_10510)">
<rect x="0.945312" y="0.910156" width="60" height="60" fill="#667085"/>
</g>
</svg>
