<svg width="61" height="61" viewBox="0 0 61 61" fill="none" xmlns="http://www.w3.org/2000/svg">
<mask id="mask0_2335_10550" style="mask-type:luminance" maskUnits="userSpaceOnUse" x="8" y="8" width="46" height="46">
<path fill-rule="evenodd" clip-rule="evenodd" d="M38.4393 33.3466H23.4393C22.0643 33.3466 20.9393 32.2216 20.9393 30.8466C20.9393 29.4716 22.0643 28.3466 23.4393 28.3466H38.4393C39.8143 28.3466 40.9393 29.4716 40.9393 30.8466C40.9393 32.2216 39.8143 33.3466 38.4393 33.3466M45.9375 8.34717H15.9375C11.8025 8.34717 8.4375 11.7122 8.4375 15.8472V45.8472C8.4375 49.9822 11.8025 53.3472 15.9375 53.3472H45.9375C50.0725 53.3472 53.4375 49.9822 53.4375 45.8472V15.8472C53.4375 11.7122 50.0725 8.34717 45.9375 8.34717" fill="white"/>
</mask>
<g mask="url(#mask0_2335_10550)">
<rect x="0.941406" y="0.847168" width="60" height="60" fill="#667085"/>
</g>
</svg>
