<svg width="61" height="61" viewBox="0 0 61 61" fill="none" xmlns="http://www.w3.org/2000/svg">
<mask id="mask0_2335_10567" style="mask-type:luminance" maskUnits="userSpaceOnUse" x="10" y="5" width="41" height="51">
<path fill-rule="evenodd" clip-rule="evenodd" d="M35.945 10.7673L45.2999 20.8223H37.73C36.745 20.8223 35.945 19.8698 35.945 18.6973V10.7673ZM50.2939 19.1418L39.1814 6.64178C38.7089 6.11928 38.0364 5.82178 37.3314 5.82178H17.3314C13.8064 5.82178 10.9414 8.62678 10.9414 12.0718V49.5718C10.9414 53.0168 13.8064 55.8218 17.3314 55.8218H44.5514C48.0764 55.8218 50.9414 53.0168 50.9414 49.5718V20.8218C50.9414 20.1993 50.7114 19.6018 50.2939 19.1418V19.1418Z" fill="white"/>
</mask>
<g mask="url(#mask0_2335_10567)">
<rect x="0.9375" y="0.821289" width="60" height="60" fill="#667085"/>
</g>
</svg>
