<svg width="60" height="61" viewBox="0 0 60 61" fill="none" xmlns="http://www.w3.org/2000/svg">
<mask id="mask0_2335_10554" style="mask-type:luminance" maskUnits="userSpaceOnUse" x="7" y="8" width="46" height="46">
<path fill-rule="evenodd" clip-rule="evenodd" d="M24.2549 35.8335L26.0774 25.8335H35.7649L33.9424 35.8335H24.2549ZM50.0078 35.8336H39.2528L41.0753 25.8336H50.0078C51.3828 25.8336 52.5078 24.7086 52.5078 23.3336C52.5078 21.9586 51.3828 20.8336 50.0078 20.8336H41.9828L43.7178 11.3061C43.9678 9.93609 43.0128 8.61359 41.5953 8.37359C40.1778 8.13109 38.8153 9.05609 38.5653 10.4286L36.6703 20.8336H26.9828L28.7178 11.3061C28.9678 9.93609 28.0128 8.61359 26.5953 8.37359C25.1778 8.13109 23.8153 9.05609 23.5653 10.4286L21.6703 20.8336H10.0078C8.63281 20.8336 7.50781 21.9586 7.50781 23.3336C7.50781 24.7086 8.63281 25.8336 10.0078 25.8336H20.7628L18.9403 35.8336H10.0078C8.63281 35.8336 7.50781 36.9586 7.50781 38.3336C7.50781 39.7086 8.63281 40.8336 10.0078 40.8336H18.0303L16.2953 50.3611C16.0478 51.7311 17.0028 53.0536 18.4203 53.2936C19.8353 53.5361 21.2003 52.6111 21.4478 51.2386L23.3428 40.8336H33.0303L31.2953 50.3611C31.0478 51.7311 32.0028 53.0536 33.4203 53.2936C34.8353 53.5361 36.2003 52.6111 36.4478 51.2386L38.3428 40.8336H50.0078C51.3828 40.8336 52.5078 39.7086 52.5078 38.3336C52.5078 36.9586 51.3828 35.8336 50.0078 35.8336V35.8336Z" fill="white"/>
</mask>
<g mask="url(#mask0_2335_10554)">
<rect y="0.833984" width="60" height="60" fill="#667085"/>
</g>
</svg>
