<svg width="61" height="61" viewBox="0 0 61 61" fill="none" xmlns="http://www.w3.org/2000/svg">
<mask id="mask0_2335_10481" style="mask-type:luminance" maskUnits="userSpaceOnUse" x="8" y="8" width="46" height="46">
<path fill-rule="evenodd" clip-rule="evenodd" d="M48.4393 45.5057C48.4393 47.1146 47.32 48.4188 45.9409 48.4188H15.9601L34.863 31.3872C35.4776 30.7751 36.5919 30.7776 37.194 31.3847L48.4393 42.5725V45.5057ZM20.9569 18.4379C23.0255 18.4379 24.7045 20.1169 24.7045 22.1856C24.7045 24.2542 23.0255 25.9332 20.9569 25.9332C18.8882 25.9332 17.2093 24.2542 17.2093 22.1856C17.2093 20.1169 18.8882 18.4379 20.9569 18.4379V18.4379ZM45.9409 8.44434H15.9601C11.8277 8.44434 8.46484 11.8072 8.46484 15.9395V45.9204C8.46484 50.0527 11.8277 53.4156 15.9601 53.4156H45.9409C50.0732 53.4156 53.4361 50.0527 53.4361 45.9204V15.9395C53.4361 11.8072 50.0732 8.44434 45.9409 8.44434V8.44434Z" fill="white"/>
</mask>
<g mask="url(#mask0_2335_10481)">
<rect x="0.96875" y="0.949219" width="59.9617" height="59.9617" fill="#667085"/>
</g>
</svg>
