<svg width="61" height="61" viewBox="0 0 61 61" fill="none" xmlns="http://www.w3.org/2000/svg">
<mask id="mask0_2335_10556" style="mask-type:luminance" maskUnits="userSpaceOnUse" x="5" y="8" width="51" height="46">
<path fill-rule="evenodd" clip-rule="evenodd" d="M13.4688 8.33447H48.4688C52.6038 8.33447 55.9688 11.6995 55.9688 15.8345V28.3345H5.96875V15.8345C5.96875 11.6995 9.33375 8.33447 13.4688 8.33447ZM13.4688 43.3344C9.33375 43.3344 5.96875 39.9694 5.96875 35.8344V33.3344H55.9688V35.8344C55.9688 39.9694 52.6038 43.3344 48.4688 43.3344H33.4688V48.3344H43.4688C44.8438 48.3344 45.9688 49.4594 45.9688 50.8344C45.9688 52.2094 44.8438 53.3344 43.4688 53.3344H18.4688C17.0938 53.3344 15.9688 52.2094 15.9688 50.8344C15.9688 49.4594 17.0938 48.3344 18.4688 48.3344H28.4688V43.3344H13.4688Z" fill="white"/>
</mask>
<g mask="url(#mask0_2335_10556)">
<rect x="0.972656" y="0.834473" width="60" height="60" fill="#667085"/>
</g>
</svg>
