<svg width="61" height="61" viewBox="0 0 61 61" fill="none" xmlns="http://www.w3.org/2000/svg">
<mask id="mask0_2335_10484" style="mask-type:luminance" maskUnits="userSpaceOnUse" x="15" y="8" width="31" height="46">
<path fill-rule="evenodd" clip-rule="evenodd" d="M33.2974 46.543V36.372L39.461 42.3157L33.2974 46.543ZM33.2974 15.3406L39.5359 19.6703L33.2974 25.559V15.3406ZM34.8694 30.946L44.9005 21.477C45.5276 20.8824 45.8474 20.053 45.7824 19.1985C45.715 18.3416 45.2703 17.567 44.5582 17.0749L32.8807 8.97005C31.9838 8.34045 30.8195 8.27049 29.8451 8.77767C28.8932 9.27485 28.3011 10.2442 28.3011 11.3061V26.8111L20.3237 16.875C19.4568 15.7957 17.8878 15.6258 16.811 16.4902C15.7342 17.3522 15.5618 18.9262 16.4262 20.0005L25.1057 30.8111L16.3488 41.8715C15.4918 42.9533 15.6742 44.5223 16.756 45.3818C17.2157 45.744 17.7629 45.9189 18.3075 45.9189C19.042 45.9189 19.7716 45.5966 20.2663 44.972L28.3011 34.826V50.551C28.3011 51.6103 28.8882 52.5772 29.8326 53.0768C30.2674 53.3042 30.7371 53.4166 31.2068 53.4166C31.7864 53.4166 32.3635 53.2442 32.8657 52.902L44.4633 44.942C45.1753 44.4524 45.625 43.6804 45.6925 42.8259C45.7625 41.9739 45.4477 41.1445 44.8305 40.5524L34.8694 30.946Z" fill="white"/>
</mask>
<g mask="url(#mask0_2335_10484)">
<rect x="0.820312" y="0.949219" width="59.9617" height="59.9617" fill="#667085"/>
</g>
</svg>
