<svg width="61" height="61" viewBox="0 0 61 61" fill="none" xmlns="http://www.w3.org/2000/svg">
<mask id="mask0_2335_10483" style="mask-type:luminance" maskUnits="userSpaceOnUse" x="5" y="15" width="51" height="31">
<path fill-rule="evenodd" clip-rule="evenodd" d="M29.041 33.4288H18.3553C17.4659 33.4288 16.6414 32.9541 16.1942 32.1846C15.747 31.415 15.7445 30.4632 16.1867 29.6911L24.0442 15.9399H11.2773C8.29173 15.9399 5.86328 18.6607 5.86328 22.0086V39.8522C5.86328 43.2 8.29173 45.9208 11.2773 45.9208H21.903L29.041 33.4288ZM40.4228 15.9399H29.7971L22.6592 28.432H33.3449C34.2343 28.432 35.0588 28.9067 35.5035 29.6762C35.9507 30.4457 35.9532 31.3976 35.5135 32.1696L27.656 45.9208H40.4228C43.4084 45.9208 45.8369 43.2 45.8369 39.8522V22.0086C45.8369 18.6607 43.4084 15.9399 40.4228 15.9399ZM50.8345 25.9336C50.8345 24.5544 51.9538 23.4351 53.3329 23.4351C54.712 23.4351 55.8313 24.5544 55.8313 25.9336V35.9272C55.8313 37.3063 54.712 38.4256 53.3329 38.4256C51.9538 38.4256 50.8345 37.3063 50.8345 35.9272V25.9336Z" fill="white"/>
</mask>
<g mask="url(#mask0_2335_10483)">
<rect x="0.867188" y="0.949219" width="59.9617" height="59.9617" fill="#667085"/>
</g>
</svg>
