<svg width="61" height="61" viewBox="0 0 61 61" fill="none" xmlns="http://www.w3.org/2000/svg">
<mask id="mask0_2335_10462" style="mask-type:luminance" maskUnits="userSpaceOnUse" x="5" y="5" width="51" height="51">
<path fill-rule="evenodd" clip-rule="evenodd" d="M30.7379 23.4883C29.3588 23.4883 28.2395 22.3683 28.2395 20.9883C28.2395 19.6083 29.3588 18.4883 30.7379 18.4883C32.1171 18.4883 33.2363 19.6083 33.2363 20.9883C33.2363 22.3683 32.1171 23.4883 30.7379 23.4883V23.4883ZM33.2363 40.9872C33.2363 42.3672 32.1171 43.4872 30.7379 43.4872C29.3588 43.4872 28.2395 42.3672 28.2395 40.9872V28.4872C28.2395 27.1072 29.3588 25.9872 30.7379 25.9872C32.1171 25.9872 33.2363 27.1072 33.2363 28.4872V40.9872ZM30.7379 5.98779C16.9393 5.98779 5.75391 17.1803 5.75391 30.9878C5.75391 44.7953 16.9393 55.9878 30.7379 55.9878C44.5341 55.9878 55.722 44.7953 55.722 30.9878C55.722 17.1803 44.5341 5.98779 30.7379 5.98779V5.98779Z" fill="white"/>
</mask>
<g mask="url(#mask0_2335_10462)">
<rect x="0.757812" y="0.987305" width="59.9617" height="60" fill="#667085"/>
</g>
</svg>
