<svg width="61" height="61" viewBox="0 0 61 61" fill="none" xmlns="http://www.w3.org/2000/svg">
<mask id="mask0_2335_10555" style="mask-type:luminance" maskUnits="userSpaceOnUse" x="5" y="5" width="51" height="51">
<path fill-rule="evenodd" clip-rule="evenodd" d="M28.4759 8.33447C28.4759 6.95197 29.5958 5.83447 30.9759 5.83447C32.3559 5.83447 33.4758 6.95197 33.4758 8.33447V13.3345C33.4758 14.717 32.3559 15.8345 30.9759 15.8345C29.5958 15.8345 28.4759 14.717 28.4759 13.3345V8.33447ZM48.4842 28.3347H53.4842C54.8642 28.3347 55.9842 29.4522 55.9842 30.8347C55.9842 32.2172 54.8642 33.3347 53.4842 33.3347H48.4842C47.1042 33.3347 45.9842 32.2172 45.9842 30.8347C45.9842 29.4522 47.1042 28.3347 48.4842 28.3347ZM15.9805 30.8347C15.9805 29.4522 14.8605 28.3347 13.4805 28.3347H8.48047C7.10047 28.3347 5.98047 29.4522 5.98047 30.8347C5.98047 32.2172 7.10047 33.3347 8.48047 33.3347H13.4805C14.8605 33.3347 15.9805 32.2172 15.9805 30.8347ZM12.9973 13.468C13.9598 12.478 15.5398 12.4455 16.5323 13.4055L20.1298 16.8805C21.1223 17.838 21.1498 19.423 20.1898 20.4155C19.6998 20.923 19.0473 21.178 18.3923 21.178C17.7673 21.178 17.1423 20.948 16.6548 20.478L13.0573 17.003C12.0648 16.0455 12.0373 14.4605 12.9973 13.468ZM43.5655 21.1792C44.1905 21.1792 44.8155 20.9467 45.303 20.4792L48.9005 17.0042C49.893 16.0442 49.9205 14.4592 48.9605 13.4692C48.003 12.4792 46.423 12.4467 45.4255 13.4067L41.828 16.8792C40.8355 17.8392 40.808 19.4242 41.768 20.4142C42.258 20.9217 42.9105 21.1792 43.5655 21.1792ZM28.4759 48.3345C28.4759 46.952 29.5958 45.8345 30.9759 45.8345C32.3559 45.8345 33.4758 46.952 33.4758 48.3345V53.3345C33.4758 54.717 32.3559 55.8345 30.9759 55.8345C29.5958 55.8345 28.4759 54.717 28.4759 53.3345V48.3345ZM45.303 41.1907C44.3105 40.2332 42.728 40.2632 41.768 41.2532C40.808 42.2457 40.8355 43.8307 41.828 44.7882L45.4255 48.2632C45.913 48.7332 46.538 48.9632 47.163 48.9632C47.818 48.9632 48.4705 48.7082 48.9605 48.2007C49.9205 47.2082 49.893 45.6232 48.9005 44.6657L45.303 41.1907ZM13.0573 44.6657L16.6548 41.1907C17.6498 40.2332 19.2323 40.2632 20.1898 41.2532C21.1498 42.2457 21.1223 43.8307 20.1298 44.7882L16.5323 48.2632C16.0448 48.7332 15.4198 48.9632 14.7948 48.9632C14.1398 48.9632 13.4873 48.7082 12.9973 48.2007C12.0373 47.2082 12.0648 45.6232 13.0573 44.6657Z" fill="white"/>
</mask>
<g mask="url(#mask0_2335_10555)">
<rect x="0.984375" y="0.833984" width="60" height="60" fill="#667085"/>
</g>
</svg>
