<svg width="61" height="61" viewBox="0 0 61 61" fill="none" xmlns="http://www.w3.org/2000/svg">
<mask id="mask0_2335_10487" style="mask-type:luminance" maskUnits="userSpaceOnUse" x="10" y="5" width="41" height="51">
<path fill-rule="evenodd" clip-rule="evenodd" d="M37.428 20.9368C36.4437 20.9368 35.6442 19.9849 35.6442 18.8131V10.8882L44.9932 20.9368H37.428ZM35.6442 38.4255H33.1458V40.9239C33.1458 42.303 32.029 43.4223 30.6474 43.4223C29.2658 43.4223 28.149 42.303 28.149 40.9239V38.4255H25.6506C24.269 38.4255 23.1522 37.3062 23.1522 35.9271C23.1522 34.548 24.269 33.4287 25.6506 33.4287H28.149V30.9303C28.149 29.5512 29.2658 28.4319 30.6474 28.4319C32.029 28.4319 33.1458 29.5512 33.1458 30.9303V33.4287H35.6442C37.0258 33.4287 38.1426 34.548 38.1426 35.9271C38.1426 37.3062 37.0258 38.4255 35.6442 38.4255V38.4255ZM49.985 19.2578L38.8821 6.76577C38.4099 6.2436 37.7378 5.94629 37.0333 5.94629H17.0461C13.5258 5.94629 10.6602 8.7495 10.6602 12.1923V49.6683C10.6602 53.1111 13.5258 55.9143 17.0461 55.9143H44.2487C47.7714 55.9143 50.6346 53.1111 50.6346 49.6683V20.9367C50.6346 20.3146 50.4022 19.7175 49.985 19.2578V19.2578Z" fill="white"/>
</mask>
<g mask="url(#mask0_2335_10487)">
<rect x="0.664062" y="0.949219" width="59.9617" height="59.9617" fill="#667085"/>
</g>
</svg>
