<svg width="61" height="61" viewBox="0 0 61 61" fill="none" xmlns="http://www.w3.org/2000/svg">
<mask id="mask0_2335_10502" style="mask-type:luminance" maskUnits="userSpaceOnUse" x="8" y="3" width="46" height="56">
<path fill-rule="evenodd" clip-rule="evenodd" d="M44.2604 37.1728L50.5179 27.8128C51.0304 27.0453 51.0804 26.0603 50.6454 25.2453C50.2104 24.4303 49.3629 23.9228 48.4404 23.9228H33.7254L35.6479 6.19032C35.7704 5.04782 35.0979 3.96782 34.0154 3.57532C32.9329 3.17782 31.7229 3.57532 31.0829 4.53282L23.2854 16.1978L44.2604 37.1728ZM17.6195 24.6734L11.362 34.0334C10.8495 34.8009 10.7995 35.7859 11.2345 36.6009C11.6695 37.4159 12.517 37.9234 13.4395 37.9234H28.1545L26.232 55.6559C26.1095 56.7984 26.782 57.8784 27.8645 58.2709C28.1445 58.3734 28.432 58.4234 28.717 58.4234C29.5345 58.4234 30.322 58.0234 30.797 57.3134L38.5945 45.6484L17.6195 24.6734ZM12.7095 9.15473L52.7095 49.1547C53.687 50.1322 53.687 51.7122 52.7095 52.6897C52.222 53.1772 51.582 53.4222 50.942 53.4222C50.302 53.4222 49.662 53.1772 49.1745 52.6897L9.17453 12.6897C8.19703 11.7122 8.19703 10.1322 9.17453 9.15473C10.152 8.17723 11.732 8.17723 12.7095 9.15473Z" fill="white"/>
</mask>
<g mask="url(#mask0_2335_10502)">
<rect x="0.945312" y="0.922852" width="60" height="60" fill="#667085"/>
</g>
</svg>
