<svg width="61" height="61" viewBox="0 0 61 61" fill="none" xmlns="http://www.w3.org/2000/svg">
<mask id="mask0_2335_10508" style="mask-type:luminance" maskUnits="userSpaceOnUse" x="8" y="15" width="46" height="31">
<path fill-rule="evenodd" clip-rule="evenodd" d="M53.4461 18.3177C53.4411 18.1377 53.3886 17.9677 53.3411 17.7952C53.3036 17.6502 53.2861 17.5027 53.2236 17.3702C53.1661 17.2402 53.0686 17.1352 52.9836 17.0152C52.8786 16.8627 52.7836 16.7102 52.6486 16.5852C52.6261 16.5627 52.6161 16.5327 52.5911 16.5127C52.5011 16.4352 52.3911 16.4077 52.2936 16.3452C52.1436 16.2477 51.9961 16.1477 51.8261 16.0827C51.6586 16.0227 51.4936 16.0077 51.3211 15.9827C51.2011 15.9652 51.0936 15.9102 50.9661 15.9102H38.4661C37.0836 15.9102 35.9661 17.0302 35.9661 18.4102C35.9661 19.7902 37.0836 20.9102 38.4661 20.9102H45.5311L35.4411 32.6802L24.7511 26.2677C23.6936 25.6277 22.3336 25.8627 21.5436 26.8102L9.04358 41.8102C8.16108 42.8702 8.30358 44.4477 9.36358 45.3302C9.83358 45.7202 10.3986 45.9102 10.9636 45.9102C11.6811 45.9102 12.3911 45.6052 12.8861 45.0102L24.0161 31.6552L34.6786 38.0552C35.7261 38.6827 37.0711 38.4627 37.8636 37.5377L48.4661 25.1677V30.9102C48.4661 32.2902 49.5836 33.4102 50.9661 33.4102C52.3486 33.4102 53.4661 32.2902 53.4661 30.9102V18.4102C53.4661 18.3777 53.4486 18.3502 53.4461 18.3177" fill="white"/>
</mask>
<g mask="url(#mask0_2335_10508)">
<rect x="0.96875" y="0.910156" width="60" height="60" fill="#667085"/>
</g>
</svg>
