<svg width="61" height="61" viewBox="0 0 61 61" fill="none" xmlns="http://www.w3.org/2000/svg">
<mask id="mask0_2335_10468" style="mask-type:luminance" maskUnits="userSpaceOnUse" x="13" y="13" width="36" height="36">
<path fill-rule="evenodd" clip-rule="evenodd" d="M30.7734 19.2064L17.377 29.9939C16.3027 30.8589 14.7312 30.6889 13.8642 29.6139C12.9998 28.5364 13.1697 26.9639 14.244 26.0964L29.2344 14.0264C30.1613 13.2814 31.4855 13.2889 32.3999 14.0564L47.3903 26.5564C48.4521 27.4389 48.5945 29.0139 47.7101 30.0764C47.2154 30.6689 46.5059 30.9764 45.7913 30.9764C45.2267 30.9764 44.6595 30.7839 44.1923 30.3964L30.7734 19.2064ZM29.2354 31.5274C30.1624 30.7799 31.4865 30.7899 32.4009 31.5549L47.3913 44.0549C48.4507 44.9399 48.5931 46.5149 47.7111 47.5749C47.2164 48.1699 46.5069 48.4749 45.7899 48.4749C45.2277 48.4749 44.6606 48.2849 44.1934 47.8949L30.7745 36.7074L17.378 47.4924C16.3037 48.3599 14.7322 48.1899 13.8653 47.1124C12.9983 46.0374 13.1707 44.4649 14.245 43.5974L29.2354 31.5274Z" fill="white"/>
</mask>
<g mask="url(#mask0_2335_10468)">
<rect x="0.820312" y="0.974609" width="59.9617" height="60" fill="#667085"/>
</g>
</svg>
