<svg width="61" height="61" viewBox="0 0 61 61" fill="none" xmlns="http://www.w3.org/2000/svg">
<mask id="mask0_2335_10547" style="mask-type:luminance" maskUnits="userSpaceOnUse" x="13" y="10" width="36" height="39">
<path fill-rule="evenodd" clip-rule="evenodd" d="M47.5469 21.3952L35.0469 11.3952C34.1344 10.6652 32.8369 10.6652 31.9244 11.3952L19.4244 21.3952C18.3444 22.2577 18.1719 23.8302 19.0344 24.9077C19.8944 25.9852 21.4694 26.1602 22.5469 25.3002L30.9844 18.5477V40.8477C30.9844 42.2252 29.8644 43.3477 28.4844 43.3477H15.9844C14.6044 43.3477 13.4844 44.4677 13.4844 45.8477C13.4844 47.2277 14.6044 48.3477 15.9844 48.3477H28.4844C32.6219 48.3477 35.9844 44.9827 35.9844 40.8477V18.5477L44.4244 25.3002C44.8844 25.6677 45.4369 25.8477 45.9844 25.8477C46.7169 25.8477 47.4444 25.5252 47.9369 24.9077C48.7994 23.8302 48.6269 22.2577 47.5469 21.3952" fill="white"/>
</mask>
<g mask="url(#mask0_2335_10547)">
<rect x="0.984375" y="0.84668" width="60" height="60" fill="#667085"/>
</g>
</svg>
