<svg width="60" height="61" viewBox="0 0 60 61" fill="none" xmlns="http://www.w3.org/2000/svg">
<mask id="mask0_2335_10506" style="mask-type:luminance" maskUnits="userSpaceOnUse" x="7" y="8" width="46" height="46">
<path fill-rule="evenodd" clip-rule="evenodd" d="M16.0473 18.4106L20.3148 14.1431C20.7823 13.6781 21.4248 13.4106 22.0823 13.4106H37.9423C38.5998 13.4106 39.2423 13.6781 39.7098 14.1431L43.9773 18.4106H16.0473ZM30.0096 40.9096C24.4946 40.9096 20.0096 36.4246 20.0096 30.9096C20.0096 29.5296 21.1271 28.4096 22.5096 28.4096C23.8921 28.4096 25.0096 29.5296 25.0096 30.9096C25.0096 33.6671 27.2521 35.9096 30.0096 35.9096C32.7646 35.9096 35.0096 33.6671 35.0096 30.9096C35.0096 29.5296 36.1271 28.4096 37.5096 28.4096C38.8921 28.4096 40.0096 29.5296 40.0096 30.9096C40.0096 36.4246 35.5246 40.9096 30.0096 40.9096V40.9096ZM50.3103 17.6777L43.2403 10.6077C41.8253 9.19016 39.9403 8.41016 37.9378 8.41016H22.0778C20.0753 8.41016 18.1903 9.19016 16.7753 10.6077L9.70531 17.6777C8.28781 19.0927 7.50781 20.9777 7.50781 22.9827V45.9102C7.50781 50.0452 10.8728 53.4102 15.0078 53.4102H45.0078C49.1428 53.4102 52.5078 50.0452 52.5078 45.9102V22.9827C52.5078 20.9777 51.7253 19.0927 50.3103 17.6777V17.6777Z" fill="white"/>
</mask>
<g mask="url(#mask0_2335_10506)">
<rect y="0.910156" width="60" height="60" fill="#667085"/>
</g>
</svg>
