<svg width="60" height="61" viewBox="0 0 60 61" fill="none" xmlns="http://www.w3.org/2000/svg">
<mask id="mask0_2335_10562" style="mask-type:luminance" maskUnits="userSpaceOnUse" x="4" y="5" width="51" height="49">
<path fill-rule="evenodd" clip-rule="evenodd" d="M29.9961 5.82178C16.2111 5.82178 4.99609 17.4468 4.99609 31.7368V43.3218C4.99609 48.8368 9.48109 53.3218 14.9961 53.3218C20.5111 53.3218 24.9961 48.8368 24.9961 43.3218C24.9961 37.8068 20.5111 33.3218 14.9961 33.3218C13.1661 33.3218 11.4736 33.8518 9.99609 34.7143V31.7368C9.99609 20.2043 18.9686 10.8218 29.9961 10.8218C41.0236 10.8218 49.9961 20.2043 49.9961 31.7368V34.7143C48.5186 33.8518 46.8261 33.3218 44.9961 33.3218C39.4811 33.3218 34.9961 37.8068 34.9961 43.3218C34.9961 48.8368 39.4811 53.3218 44.9961 53.3218C50.5111 53.3218 54.9961 48.8368 54.9961 43.3218V31.7368C54.9961 17.4468 43.7811 5.82178 29.9961 5.82178" fill="white"/>
</mask>
<g mask="url(#mask0_2335_10562)">
<rect y="0.821289" width="60" height="60" fill="#667085"/>
</g>
</svg>
