<svg width="61" height="61" viewBox="0 0 61 61" fill="none" xmlns="http://www.w3.org/2000/svg">
<mask id="mask0_2335_10532" style="mask-type:luminance" maskUnits="userSpaceOnUse" x="5" y="9" width="51" height="44">
<path fill-rule="evenodd" clip-rule="evenodd" d="M35.9634 38.3728H33.4634V40.8728C33.4634 42.2478 32.3384 43.3728 30.9634 43.3728C29.5884 43.3728 28.4634 42.2478 28.4634 40.8728V38.3728H25.9634C24.5884 38.3728 23.4634 37.2478 23.4634 35.8728C23.4634 34.4978 24.5884 33.3728 25.9634 33.3728H28.4634V30.8728C28.4634 29.4978 29.5884 28.3728 30.9634 28.3728C32.3384 28.3728 33.4634 29.4978 33.4634 30.8728V33.3728H35.9634C37.3384 33.3728 38.4634 34.4978 38.4634 35.8728C38.4634 37.2478 37.3384 38.3728 35.9634 38.3728M49.7148 18.4876H32.1498L25.6523 10.5401C25.1773 9.96006 24.4648 9.62256 23.7173 9.62256H12.2148C8.76984 9.62256 5.96484 12.3501 5.96484 15.7026V46.0426C5.96484 49.3951 8.76984 52.1226 12.2148 52.1226H49.7148C53.1598 52.1226 55.9648 49.3951 55.9648 46.0426V24.5676C55.9648 21.2151 53.1598 18.4876 49.7148 18.4876" fill="white"/>
</mask>
<g mask="url(#mask0_2335_10532)">
<rect x="0.96875" y="0.87207" width="60" height="60" fill="#667085"/>
</g>
</svg>
