<svg width="24" height="25" viewBox="0 0 24 25" fill="none" xmlns="http://www.w3.org/2000/svg">
<path fill-rule="evenodd" clip-rule="evenodd" d="M10.5067 2.00804C10.6884 1.79895 10.9706 1.70705 11.2406 1.76904C14.8494 2.59755 16.6735 6.55217 16.2445 10.0903C16.0778 11.4657 15.6658 12.5439 15.0592 13.4018C15.0555 13.4071 15.0517 13.4123 15.048 13.4175C15.1858 13.3498 15.3129 13.2767 15.4319 13.1995C16.0238 12.8153 16.4583 12.3083 17.0239 11.6481C17.0923 11.5683 17.1626 11.4863 17.2353 11.402C17.3987 11.2125 17.6459 11.1169 17.8942 11.1473C18.1426 11.1776 18.3595 11.3299 18.4725 11.5531C18.97 12.5363 19.25 13.6479 19.25 14.8226C19.25 18.8267 16.0041 22.0726 12 22.0726C7.99594 22.0726 4.75 18.8267 4.75 14.8226C4.75 12.2856 6.05371 10.0535 8.02431 8.75906L8.09187 8.69098C8.12658 8.65601 8.16464 8.62454 8.20552 8.59703C9.07138 8.0144 9.69312 7.53786 10.1117 6.97743C10.5071 6.44801 10.75 5.8022 10.75 4.82264C10.75 4.09736 10.6161 3.40512 10.3723 2.76809C10.2733 2.50936 10.3249 2.21713 10.5067 2.00804ZM12.1712 3.75081C12.2231 4.10079 12.25 4.45872 12.25 4.82264C12.25 6.09106 11.9223 7.05995 11.3135 7.87505C10.7417 8.64054 9.95028 9.22847 9.10466 9.7999L9.03236 9.87275C8.99362 9.91179 8.95071 9.94644 8.90439 9.9761C7.30648 10.9991 6.25 12.7877 6.25 14.8226C6.25 17.9983 8.82436 20.5726 12 20.5726C15.1756 20.5726 17.75 17.9983 17.75 14.8226C17.75 14.3028 17.6812 13.7997 17.5523 13.3217C17.1721 13.7334 16.7524 14.1307 16.2485 14.4577C15.3253 15.0569 14.1699 15.399 12.5 15.399C12.1577 15.399 11.8589 15.1673 11.7736 14.8358C11.6884 14.5044 11.8383 14.1572 12.1381 13.9921C12.8169 13.6181 13.3923 13.161 13.8345 12.5357C14.2757 11.9118 14.6137 11.0787 14.7555 9.90975C15.0623 7.379 14.0149 4.88107 12.1712 3.75081Z" fill="#98A2B3"/>
</svg>
