<svg width="61" height="60" viewBox="0 0 61 60" fill="none" xmlns="http://www.w3.org/2000/svg">
<mask id="mask0_2335_10447" style="mask-type:luminance" maskUnits="userSpaceOnUse" x="5" y="12" width="51" height="36">
<path fill-rule="evenodd" clip-rule="evenodd" d="M30.8395 26.2459C28.7733 26.2459 27.0919 27.9273 27.0919 29.9935C27.0919 32.0596 28.7733 33.7411 30.8395 33.7411C32.9057 33.7411 34.5871 32.0596 34.5871 29.9935C34.5871 27.9273 32.9057 26.2459 30.8395 26.2459M30.8395 38.7379C26.0176 38.7379 22.0951 34.8154 22.0951 29.9935C22.0951 25.1715 26.0176 21.249 30.8395 21.249C35.6614 21.249 39.5839 25.1715 39.5839 29.9935C39.5839 34.8154 35.6614 38.7379 30.8395 38.7379M55.4937 28.7496C53.8973 25.9714 45.0954 12.0453 30.1624 12.5125C16.3538 12.8647 8.31889 25.032 6.18526 28.7496C5.74554 29.5216 5.74554 30.466 6.18526 31.238C7.75925 33.9787 16.2538 47.4826 30.902 47.4826C31.1043 47.4826 31.3092 47.4801 31.5166 47.4751C45.3252 47.1228 53.3601 34.9556 55.4937 31.238C55.9335 30.466 55.9335 29.5216 55.4937 28.7496" fill="white"/>
</mask>
<g mask="url(#mask0_2335_10447)">
<rect x="0.859375" y="0.0126953" width="59.9617" height="59.9617" fill="#667085"/>
</g>
</svg>
