<svg width="60" height="61" viewBox="0 0 60 61" fill="none" xmlns="http://www.w3.org/2000/svg">
<mask id="mask0_2335_10538" style="mask-type:luminance" maskUnits="userSpaceOnUse" x="4" y="5" width="51" height="51">
<path fill-rule="evenodd" clip-rule="evenodd" d="M9.9929 30.8603C9.9929 26.2453 11.5804 22.0053 14.2129 18.6178L42.2354 46.6403C38.8479 49.2753 34.6079 50.8603 29.9929 50.8603C18.9654 50.8603 9.9929 41.8878 9.9929 30.8603M49.9941 30.8603C49.9941 35.4753 48.4066 39.7153 45.7741 43.1028L17.7516 15.0803C21.1391 12.4453 25.3791 10.8603 29.9941 10.8603C41.0216 10.8603 49.9941 19.8328 49.9941 30.8603M29.9961 5.85986C16.2111 5.85986 4.99609 17.0749 4.99609 30.8599C4.99609 44.6449 16.2111 55.8599 29.9961 55.8599C43.7811 55.8599 54.9961 44.6449 54.9961 30.8599C54.9961 17.0749 43.7811 5.85986 29.9961 5.85986" fill="white"/>
</mask>
<g mask="url(#mask0_2335_10538)">
<rect y="0.859375" width="60" height="60" fill="#667085"/>
</g>
</svg>
