<svg width="61" height="61" viewBox="0 0 61 61" fill="none" xmlns="http://www.w3.org/2000/svg">
<mask id="mask0_2335_10519" style="mask-type:luminance" maskUnits="userSpaceOnUse" x="15" y="15" width="31" height="31">
<path fill-rule="evenodd" clip-rule="evenodd" d="M45.2051 41.63L24.4826 20.9075L38.4401 20.8975C39.8201 20.8975 40.9376 19.775 40.9376 18.395C40.9376 17.015 39.8176 15.8975 38.4376 15.8975H38.4351L18.5601 15.9125C17.1851 15.915 16.0726 17.025 16.0626 18.3975L15.9376 38.3825C15.9276 39.7625 17.0401 40.89 18.4226 40.8975H18.4376C19.8126 40.8975 20.9276 39.7875 20.9376 38.4125L21.0251 24.52L41.6701 45.165C42.1576 45.6525 42.7976 45.8975 43.4376 45.8975C44.0776 45.8975 44.7176 45.6525 45.2051 45.165C46.1826 44.1875 46.1826 42.6075 45.2051 41.63" fill="white"/>
</mask>
<g mask="url(#mask0_2335_10519)">
<rect x="0.9375" y="0.897461" width="60" height="60" fill="#667085"/>
</g>
</svg>
