<svg width="60" height="61" viewBox="0 0 60 61" fill="none" xmlns="http://www.w3.org/2000/svg">
<mask id="mask0_2335_10480" style="mask-type:luminance" maskUnits="userSpaceOnUse" x="7" y="8" width="46" height="46">
<path fill-rule="evenodd" clip-rule="evenodd" d="M20.0115 25.9489C22.0802 25.9489 23.7591 24.2689 23.7591 22.1989C23.7591 20.1289 22.0802 18.4489 20.0115 18.4489C17.9429 18.4489 16.2639 20.1289 16.2639 22.1989C16.2639 24.2689 17.9429 25.9489 20.0115 25.9489M15.0147 13.4497H44.9956C46.3747 13.4497 47.494 14.5697 47.494 15.9497V36.8597L39.4916 30.0297C37.0182 27.9247 33.1481 27.9247 30.6972 30.0147L12.5163 45.1947V15.9497C12.5163 14.5697 13.6356 13.4497 15.0147 13.4497M44.9956 8.44922H15.0147C10.8824 8.44922 7.51953 11.8142 7.51953 15.9492V45.9492C7.51953 50.0842 10.8824 53.4492 15.0147 53.4492H44.9956C49.1279 53.4492 52.4908 50.0842 52.4908 45.9492V15.9492C52.4908 11.8142 49.1279 8.44922 44.9956 8.44922" fill="white"/>
</mask>
<g mask="url(#mask0_2335_10480)">
<rect x="0.0234375" y="0.949219" width="59.9617" height="60" fill="#667085"/>
</g>
</svg>
