<svg width="60" height="61" viewBox="0 0 60 61" fill="none" xmlns="http://www.w3.org/2000/svg">
<mask id="mask0_2335_10498" style="mask-type:luminance" maskUnits="userSpaceOnUse" x="7" y="8" width="41" height="46">
<path fill-rule="evenodd" clip-rule="evenodd" d="M47.3708 38.4027V10.9227C47.3708 10.1652 47.0258 9.44524 46.4358 8.97274C45.8433 8.49774 45.0633 8.31774 44.3283 8.48274L21.9008 13.4652C20.7558 13.7202 19.9408 14.7352 19.9408 15.9052V36.7577C18.8408 36.2577 17.6308 35.9602 16.3433 35.9602C11.5283 35.9602 7.61328 39.8777 7.61328 44.6927C7.61328 49.5052 11.5283 53.4227 16.3433 53.4227C21.1583 53.4227 25.0733 49.5052 25.0733 44.6927C25.0733 44.2452 25.0083 43.8177 24.9408 43.3877V17.9127L42.3708 14.0377V31.7752C41.2708 31.2727 40.0583 30.9777 38.7733 30.9777C33.9583 30.9777 30.0408 34.8927 30.0408 39.7077C30.0408 44.5227 33.9583 48.4377 38.7733 48.4377C43.5858 48.4377 47.5033 44.5227 47.5033 39.7077C47.5033 39.2602 47.4358 38.8327 47.3708 38.4027" fill="white"/>
</mask>
<g mask="url(#mask0_2335_10498)">
<rect y="0.922852" width="60" height="60" fill="#667085"/>
</g>
</svg>
