<svg width="61" height="61" viewBox="0 0 61 61" fill="none" xmlns="http://www.w3.org/2000/svg">
<mask id="mask0_2335_10476" style="mask-type:luminance" maskUnits="userSpaceOnUse" x="8" y="8" width="46" height="46">
<path fill-rule="evenodd" clip-rule="evenodd" d="M48.2908 33.0454C48.2908 31.6654 49.4101 30.5454 50.7893 30.5454C52.1684 30.5454 53.2877 31.6654 53.2877 33.0454V46.9604C53.2877 50.5454 50.372 53.4629 46.7918 53.4629H14.8123C11.232 53.4629 8.31641 50.5454 8.31641 46.9604V14.9629C8.31641 11.3779 11.232 8.46289 14.8123 8.46289H38.7145C40.0936 8.46289 41.2129 9.58039 41.2129 10.9629C41.2129 12.3429 40.0936 13.4629 38.7145 13.4629H14.8123C13.9853 13.4629 13.3132 14.1354 13.3132 14.9629V46.9604C13.3132 47.7879 13.9853 48.4629 14.8123 48.4629H46.7918C47.6188 48.4629 48.2908 47.7879 48.2908 46.9604V33.0454ZM24.0805 28.3281C25.0798 27.3731 26.6588 27.4131 27.6132 28.4106L31.3733 32.3556L46.4962 16.7231C47.453 15.7331 49.0345 15.7031 50.0289 16.6656C51.0208 17.6256 51.0457 19.2081 50.0864 20.2006L33.1547 37.7006C32.685 38.1881 32.0379 38.4631 31.3608 38.4631H31.3508C30.6713 38.4606 30.0217 38.1806 29.552 37.6881L23.998 31.8631C23.0436 30.8631 23.0836 29.2806 24.0805 28.3281Z" fill="white"/>
</mask>
<g mask="url(#mask0_2335_10476)">
<rect x="0.820312" y="0.961914" width="59.9617" height="60" fill="#667085"/>
</g>
</svg>
