<svg width="60" height="60" viewBox="0 0 60 60" fill="none" xmlns="http://www.w3.org/2000/svg">
<mask id="mask0_2335_10450" style="mask-type:luminance" maskUnits="userSpaceOnUse" x="12" y="4" width="36" height="51">
<path fill-rule="evenodd" clip-rule="evenodd" d="M29.9808 9.99361C35.4923 9.99361 39.9744 14.4757 39.9744 19.9872C39.9744 25.4987 35.4923 29.9808 29.9808 29.9808C24.4694 29.9808 19.9872 25.4987 19.9872 19.9872C19.9872 14.4757 24.4694 9.99361 29.9808 9.99361M47.3932 51.8441L41.6244 29.411C43.713 26.8326 44.9722 23.5572 44.9722 19.987C44.9722 11.7198 38.249 4.99658 29.9818 4.99658C21.7146 4.99658 14.9914 11.7198 14.9914 19.987C14.9914 23.5572 16.2506 26.8326 18.3393 29.411L12.5704 51.8441C12.3206 52.8235 12.6804 53.8553 13.4874 54.4625C14.2943 55.0696 15.3861 55.1245 16.2556 54.6199L29.5721 46.8024L43.763 54.6523C44.1403 54.8622 44.5575 54.9646 44.9722 54.9646C45.5144 54.9646 46.054 54.7897 46.5012 54.4425C47.2907 53.8329 47.6405 52.811 47.3932 51.8441" fill="white"/>
</mask>
<g mask="url(#mask0_2335_10450)">
<rect width="59.9617" height="59.9617" fill="#667085"/>
</g>
</svg>
