<svg width="61" height="61" viewBox="0 0 61 61" fill="none" xmlns="http://www.w3.org/2000/svg">
<mask id="mask0_2335_10565" style="mask-type:luminance" maskUnits="userSpaceOnUse" x="8" y="5" width="46" height="51">
<path fill-rule="evenodd" clip-rule="evenodd" d="M48.4538 28.3215H13.4538V18.3215C13.4538 16.944 14.5763 15.8215 15.9538 15.8215H18.4538V18.3215C18.4538 19.6965 19.5788 20.8215 20.9538 20.8215C22.3288 20.8215 23.4538 19.6965 23.4538 18.3215V15.8215H38.4538V18.3215C38.4538 19.6965 39.5788 20.8215 40.9538 20.8215C42.3288 20.8215 43.4538 19.6965 43.4538 18.3215V15.8215H45.9538C47.3313 15.8215 48.4538 16.944 48.4538 18.3215V28.3215ZM40.954 43.3218H30.954C29.579 43.3218 28.454 42.1968 28.454 40.8218C28.454 39.4468 29.579 38.3218 30.954 38.3218H40.954C42.329 38.3218 43.454 39.4468 43.454 40.8218C43.454 42.1968 42.329 43.3218 40.954 43.3218V43.3218ZM20.9604 43.3218C19.5854 43.3218 18.4604 42.1968 18.4604 40.8218C18.4604 39.4468 19.5854 38.3218 20.9604 38.3218C22.3354 38.3218 23.4604 39.4468 23.4604 40.8218C23.4604 42.1968 22.3354 43.3218 20.9604 43.3218V43.3218ZM45.957 10.8218H43.457V8.32178C43.457 6.94678 42.332 5.82178 40.957 5.82178C39.582 5.82178 38.457 6.94678 38.457 8.32178V10.8218H23.457V8.32178C23.457 6.94678 22.332 5.82178 20.957 5.82178C19.582 5.82178 18.457 6.94678 18.457 8.32178V10.8218H15.957C11.822 10.8218 8.45703 14.1868 8.45703 18.3218V48.3218C8.45703 52.4568 11.822 55.8218 15.957 55.8218H45.957C50.092 55.8218 53.457 52.4568 53.457 48.3218V18.3218C53.457 14.1868 50.092 10.8218 45.957 10.8218V10.8218Z" fill="white"/>
</mask>
<g mask="url(#mask0_2335_10565)">
<rect x="0.960938" y="0.821289" width="60" height="60" fill="#667085"/>
</g>
</svg>
