<svg width="60" height="61" viewBox="0 0 60 61" fill="none" xmlns="http://www.w3.org/2000/svg">
<mask id="mask0_2335_10505" style="mask-type:luminance" maskUnits="userSpaceOnUse" x="7" y="5" width="46" height="51">
<path fill-rule="evenodd" clip-rule="evenodd" d="M17.8221 11.6577L21.4871 15.3202L45.3071 39.1427L50.2896 44.1252L51.0546 44.8877C51.5271 44.4802 51.9371 43.9927 52.1871 43.3877C52.8246 41.8552 52.4771 40.1027 51.3071 38.9302L46.8046 34.4202V23.2527C46.8046 14.5502 40.5496 7.15773 32.2521 6.06023C27.4496 5.42023 22.5996 6.88773 18.9621 10.0777C18.4771 10.5027 18.0221 10.9552 17.5921 11.4277L17.8221 11.6577ZM35.0083 46.7646C35.0083 49.0121 32.7183 50.9121 30.0083 50.9121C27.2983 50.9121 25.0083 49.0121 25.0083 46.7646V45.9121H35.0083V46.7646ZM39.6983 47.6798L38.2333 46.2148L34.8708 42.8548L34.6983 42.6798L16.4408 24.4223L13.2808 21.2623C13.2383 21.7498 13.2008 22.2373 13.2008 22.7298L13.1983 34.4223L8.69834 38.9323C7.52584 40.1048 7.17834 41.8548 7.81334 43.3873C8.45084 44.9198 9.93334 45.9123 11.5933 45.9123H20.0008V46.7648C20.0008 51.8098 24.4858 55.9123 30.0008 55.9123C35.1058 55.9123 39.2808 52.3848 39.8783 47.8598L39.6983 47.6798ZM48.519 45.8934L51.769 49.1434C52.7465 50.1209 52.7465 51.7009 51.769 52.6784C51.2815 53.1659 50.6415 53.4109 50.0015 53.4109C49.3615 53.4109 48.7215 53.1659 48.234 52.6784L41.4665 45.9109L40.0015 44.4459L36.639 41.0834L36.4665 40.9109L18.209 22.6534L13.829 18.2759L8.23401 12.6784C7.25651 11.7009 7.25651 10.1209 8.23401 9.14339C9.21151 8.16589 10.7915 8.16589 11.769 9.14339L16.0515 13.4259L19.7165 17.0884L43.5365 40.9109L48.519 45.8934Z" fill="white"/>
</mask>
<g mask="url(#mask0_2335_10505)">
<rect x="0.0078125" y="0.910156" width="60" height="60" fill="#667085"/>
</g>
</svg>
