<svg width="61" height="60" viewBox="0 0 61 60" fill="none" xmlns="http://www.w3.org/2000/svg">
<path fill-rule="evenodd" clip-rule="evenodd" d="M33.4797 6.6344C41.378 7.88151 47.1953 14.6893 47.1953 22.6855L47.1953 37.3139C47.1953 45.3101 41.378 52.1179 33.4797 53.365C31.8005 53.6302 30.0901 53.6302 28.4109 53.365C20.5126 52.1179 14.6953 45.3101 14.6953 37.3139V22.6855C14.6953 14.6894 20.5126 7.88151 28.4109 6.6344C30.0901 6.36926 31.8005 6.36926 33.4797 6.6344ZM29.0703 24.9997C29.0703 26.0352 29.9098 26.8747 30.9453 26.8747C31.9808 26.8747 32.8203 26.0352 32.8203 24.9997V17.4997C32.8203 16.4642 31.9808 15.6247 30.9453 15.6247C29.9098 15.6247 29.0703 16.4642 29.0703 17.4997V24.9997Z" fill="#667085"/>
</svg>
