<svg width="61" height="61" viewBox="0 0 61 61" fill="none" xmlns="http://www.w3.org/2000/svg">
<mask id="mask0_2335_10563" style="mask-type:luminance" maskUnits="userSpaceOnUse" x="5" y="5" width="51" height="51">
<path fill-rule="evenodd" clip-rule="evenodd" d="M40.9792 33.3196C39.5992 33.3196 38.4792 32.1996 38.4792 30.8196C38.4792 29.4396 39.5992 28.3196 40.9792 28.3196C42.3592 28.3196 43.4792 29.4396 43.4792 30.8196C43.4792 32.1996 42.3592 33.3196 40.9792 33.3196M30.9759 33.3196C29.5959 33.3196 28.4759 32.1996 28.4759 30.8196C28.4759 29.4396 29.5959 28.3196 30.9759 28.3196C32.3559 28.3196 33.4759 29.4396 33.4759 30.8196C33.4759 32.1996 32.3559 33.3196 30.9759 33.3196M20.9822 33.3196C19.6022 33.3196 18.4822 32.1996 18.4822 30.8196C18.4822 29.4396 19.6022 28.3196 20.9822 28.3196C22.3622 28.3196 23.4822 29.4396 23.4822 30.8196C23.4822 32.1996 22.3622 33.3196 20.9822 33.3196M48.657 13.1422C42.947 7.43221 35.0445 4.88471 26.972 6.13221C16.7795 7.72221 8.32949 15.9322 6.42199 26.0997C5.50449 30.9947 6.03199 35.9797 7.94949 40.5122C8.19449 41.0872 8.26949 41.6272 8.17199 42.1097L6.02949 52.8297C5.86449 53.6497 6.12199 54.4972 6.71199 55.0872C7.18449 55.5597 7.82199 55.8197 8.47949 55.8197C8.64199 55.8197 8.80699 55.8047 8.96949 55.7697L19.677 53.6297C20.292 53.5122 20.8895 53.6847 21.287 53.8497C25.822 55.7672 30.807 56.2922 35.6995 55.3772C45.867 53.4697 54.077 45.0197 55.667 34.8272C56.9245 26.7572 54.3695 18.8547 48.657 13.1422" fill="white"/>
</mask>
<g mask="url(#mask0_2335_10563)">
<rect x="0.984375" y="0.821289" width="60" height="60" fill="#667085"/>
</g>
</svg>
