<svg width="60" height="61" viewBox="0 0 60 61" fill="none" xmlns="http://www.w3.org/2000/svg">
<mask id="mask0_2335_10456" style="mask-type:luminance" maskUnits="userSpaceOnUse" x="7" y="8" width="46" height="46">
<path fill-rule="evenodd" clip-rule="evenodd" d="M38.2299 10.6823L50.2947 22.7548C51.6988 24.1598 52.4908 26.0698 52.4908 28.0598V45.9873C52.4908 50.1298 49.1354 53.4873 44.9956 53.4873H39.9988V43.4873C39.9988 40.7298 37.7552 38.4873 35.002 38.4873H25.0083C22.2526 38.4873 20.0115 40.7298 20.0115 43.4873V53.4873H15.0147C10.8749 53.4873 7.51953 50.1298 7.51953 45.9873V15.9873C7.51953 11.8448 10.8749 8.4873 15.0147 8.4873H20.0115V25.9873C20.0115 27.3673 21.1283 28.4873 22.5099 28.4873H37.5004C38.882 28.4873 39.9988 27.3673 39.9988 25.9873C39.9988 24.6073 38.882 23.4873 37.5004 23.4873H25.0083V8.4873H32.9333C34.9195 8.4873 36.8258 9.2773 38.2299 10.6823ZM25.0083 43.4869H35.002L35.0045 53.4869H25.0083V43.4869Z" fill="white"/>
</mask>
<g mask="url(#mask0_2335_10456)">
<rect x="0.0234375" y="0.987305" width="59.9617" height="60" fill="#667085"/>
</g>
</svg>
