<svg width="61" height="60" viewBox="0 0 61 60" fill="none" xmlns="http://www.w3.org/2000/svg">
<mask id="mask0_2335_10452" style="mask-type:luminance" maskUnits="userSpaceOnUse" x="3" y="5" width="56" height="48">
<path fill-rule="evenodd" clip-rule="evenodd" d="M33.4144 32.5007C33.4144 33.8807 32.2951 35.0007 30.916 35.0007C29.5369 35.0007 28.4176 33.8807 28.4176 32.5007V22.5007C28.4176 21.1207 29.5369 20.0007 30.916 20.0007C32.2951 20.0007 33.4144 21.1207 33.4144 22.5007V32.5007ZM30.916 42.5005C29.5369 42.5005 28.4176 41.3805 28.4176 40.0005C28.4176 38.6205 29.5369 37.5005 30.916 37.5005C32.2951 37.5005 33.4144 38.6205 33.4144 40.0005C33.4144 41.3805 32.2951 42.5005 30.916 42.5005V42.5005ZM57.3 40.758L38.1322 8.96049C36.6357 6.48049 33.9374 5.00049 30.9143 5.00049C27.8913 5.00049 25.193 6.48049 23.6965 8.96049L4.52871 40.758C3.10961 43.1155 3.06714 45.9505 4.41628 48.3405C5.86285 50.908 8.67356 52.5005 11.7466 52.5005H50.0821C53.1551 52.5005 55.9658 50.908 57.4124 48.3405C58.7615 45.9505 58.7191 43.1155 57.3 40.758V40.758Z" fill="white"/>
</mask>
<g mask="url(#mask0_2335_10452)">
<rect x="0.9375" width="59.9617" height="60" fill="#667085"/>
</g>
</svg>
