<svg width="24" height="24" viewBox="0 0 24 24" fill="none" xmlns="http://www.w3.org/2000/svg">
<path d="M20.7854 12.6688C20.7854 12.7843 20.7854 12.8998 20.7854 13.0153C20.7826 13.4954 20.6003 13.7347 20.2343 13.7389C19.8656 13.7431 19.6666 13.5037 19.6736 13.0292C19.6889 12.0287 19.5915 11.038 19.2088 10.1099C18.0845 7.38948 16.0849 5.7823 13.1335 5.40242C12.3654 5.30362 11.6182 5.38572 10.8668 5.52904C10.6845 5.56383 10.4326 5.57218 10.3088 5.47338C10.1641 5.35789 10.0263 5.08655 10.0653 4.92792C10.1098 4.74702 10.3394 4.50629 10.5147 4.48125C11.3218 4.36714 12.1414 4.23356 12.9499 4.26556C14.3914 4.32262 15.7329 4.78738 16.9476 5.57775C18.982 6.90245 20.1856 8.78515 20.6476 11.1549C20.6963 11.4026 20.7186 11.6572 20.7436 11.9091C20.7687 12.1609 20.7826 12.4142 20.8007 12.6674C20.7937 12.6674 20.7896 12.6688 20.7854 12.6688Z" fill="#98A2B3"/>
<path d="M14.0587 12.9639C14.0225 16.0892 11.682 18.971 8.54834 19.6876C7.90268 19.8351 7.22502 19.856 6.55989 19.8991C6.12295 19.9269 5.87109 19.6946 5.87109 19.3453C5.87109 18.9877 6.10626 18.7873 6.55154 18.7929C8.39805 18.8151 10.0052 18.2293 11.284 16.8768C12.368 15.7316 12.9274 14.3568 12.9455 12.7718C12.9496 12.3419 12.727 12.0664 12.393 12.0747C12.0869 12.0817 11.8963 12.2431 11.8392 12.545C11.7474 13.0348 11.5234 13.2477 11.1616 13.174C10.822 13.1044 10.6551 12.7802 10.7372 12.3488C10.8944 11.5292 11.6681 10.9184 12.4849 10.9671C13.3142 11.0172 14.0141 11.7338 14.0573 12.5812C14.0642 12.7092 14.0587 12.8359 14.0587 12.9639Z" fill="#98A2B3"/>
<path d="M17.567 20.6085C16.3829 20.5528 15.342 20.1507 14.4751 19.3283C14.1607 19.0305 13.8657 19.0347 13.5387 19.3631C12.527 20.3789 11.3415 21.1178 9.99173 21.5867C9.51444 21.7523 9.01907 21.8734 8.52509 21.9819C8.15912 22.0626 7.85856 21.8636 7.80568 21.5589C7.74307 21.1985 7.91144 20.9592 8.31775 20.8785C10.0766 20.5292 11.5864 19.7305 12.8554 18.4545C13.5053 17.8005 14.4988 17.7977 15.1695 18.435C15.9098 19.1377 16.7711 19.4911 17.7883 19.5148C17.9914 19.519 18.2572 19.5941 18.3727 19.736C18.4826 19.871 18.5174 20.1855 18.4326 20.3302C18.3379 20.4902 18.0763 20.5654 17.8732 20.6433C17.7869 20.6781 17.6686 20.6238 17.567 20.6085Z" fill="#98A2B3"/>
<path d="M12.0189 2.00153C14.2495 2.01544 15.9652 2.44402 17.5585 3.34154C17.9481 3.56139 18.072 3.87448 17.8966 4.18896C17.7366 4.477 17.411 4.53544 17.0144 4.31976C15.5339 3.51269 13.9545 3.10498 12.2694 3.12586C10.7791 3.14395 9.37093 3.49878 8.04344 4.17922C7.90011 4.25297 7.75957 4.33646 7.61068 4.39768C7.30177 4.52709 6.99564 4.42412 6.86762 4.15835C6.73125 3.87587 6.80083 3.56 7.10139 3.41807C7.8208 3.07994 8.5402 2.73067 9.28883 2.47324C10.2977 2.12537 11.3524 1.98344 12.0189 2.00153Z" fill="#98A2B3"/>
<path d="M6.02369 15.4116C5.66608 15.4116 5.30846 15.4185 4.95085 15.4102C4.60297 15.4018 4.39285 15.2 4.38311 14.8856C4.37337 14.5669 4.60019 14.3137 4.9425 14.3039C5.47266 14.2886 6.00699 14.2664 6.53437 14.3053C7.58356 14.3832 8.47412 13.7487 8.5103 12.3809C8.54508 11.0492 9.21161 10.0445 10.3165 9.32514C10.5934 9.14425 10.912 9.19852 11.0915 9.4309C11.2822 9.67719 11.2696 10.0098 10.9802 10.1907C9.92684 10.8516 9.62489 11.8507 9.54279 13.0182C9.45095 14.3206 8.26261 15.374 6.95739 15.4074C6.64569 15.4157 6.33399 15.4088 6.0223 15.4088C6.02369 15.4102 6.02369 15.4102 6.02369 15.4116Z" fill="#98A2B3"/>
<path d="M4.0014 12.3459C4.10576 10.2475 4.84882 8.40375 6.28624 6.87589C6.78718 6.34434 7.41474 5.92828 8.00474 5.48578C8.34009 5.23392 8.71719 5.29793 8.88973 5.57762C9.07898 5.88375 8.98853 6.18988 8.617 6.42226C6.76491 7.58277 5.62249 9.2303 5.22035 11.3788C5.15078 11.7503 5.1299 12.133 5.11042 12.5128C5.08677 12.9595 4.90309 13.1919 4.5413 13.1822C4.18508 13.1724 3.99862 12.9317 4.00001 12.4836C4.0014 12.4377 4.0014 12.3918 4.0014 12.3459Z" fill="#98A2B3"/>
<path d="M12.3692 6.45557C13.6619 6.48757 14.8489 6.84379 15.9161 7.5799C16.2585 7.81645 16.3517 8.12815 16.1652 8.40227C15.9607 8.70562 15.6365 8.76545 15.2886 8.51637C14.4314 7.90551 13.4699 7.60494 12.4346 7.59381C11.5357 7.58407 10.6799 7.8081 9.88261 8.25477C9.70867 8.35218 9.41785 8.38975 9.2467 8.31182C8.84177 8.12536 8.85708 7.61608 9.25087 7.36421C9.98141 6.89389 10.7885 6.63089 11.647 6.52653C11.8864 6.49592 12.1285 6.47922 12.3692 6.45557Z" fill="#98A2B3"/>
<path d="M6.53625 16.5288C7.4936 16.6151 8.50939 16.3563 9.33594 15.5965C9.71026 15.2514 9.9969 14.8048 10.2947 14.3845C10.5159 14.0715 10.7594 13.9476 11.0433 14.0784C11.3661 14.2259 11.4691 14.5627 11.2715 14.9314C10.5257 16.3215 9.39717 17.2538 7.83869 17.5363C7.04136 17.681 6.20925 17.6546 5.39105 17.6713C4.97499 17.6796 4.75235 17.4403 4.75791 17.0938C4.76348 16.7543 4.99308 16.5497 5.4147 16.533C5.73614 16.5191 6.06036 16.5288 6.53625 16.5288Z" fill="#98A2B3"/>
<path d="M15.1752 14.8618C15.1752 14.596 15.1669 14.3302 15.1766 14.0645C15.1905 13.6679 15.4201 13.4091 15.7471 13.4063C16.0825 13.4035 16.2787 13.647 16.2884 14.07C16.3023 14.6698 16.2898 15.2723 16.3441 15.8678C16.4164 16.6499 17.1066 17.2565 17.8942 17.2774C18.2643 17.2872 18.6331 17.276 19.0032 17.283C19.3859 17.2886 19.667 17.5335 19.6642 17.8465C19.66 18.1902 19.4234 18.399 19.006 18.3934C18.4647 18.3851 17.9095 18.4254 17.3863 18.3197C16.0713 18.0567 15.2128 16.9699 15.1752 15.6243C15.1696 15.3697 15.1752 15.1164 15.1752 14.8618Z" fill="#98A2B3"/>
<path d="M18.5561 13.9458C18.5561 14.4774 18.5673 15.009 18.5534 15.5405C18.5408 16.047 18.0775 16.3462 17.7101 16.0721C17.571 15.9691 17.461 15.7339 17.4555 15.5558C17.429 14.7474 17.4415 13.9389 17.4443 13.1304C17.4471 12.1383 17.3205 11.1768 16.8446 10.2834C16.6693 9.95364 16.7834 9.63221 17.0811 9.48888C17.3775 9.34695 17.6725 9.46662 17.8534 9.80197C18.3293 10.6842 18.5241 11.6374 18.5534 12.6295C18.5659 13.0678 18.5561 13.5075 18.5561 13.9458Z" fill="#98A2B3"/>
<path d="M15.5853 12.2208C15.3015 12.2333 15.122 12.083 15.0343 11.8339C14.6475 10.7361 13.8849 10.0848 12.7467 9.85523C12.4099 9.78705 12.2485 9.50179 12.3223 9.17897C12.3891 8.88814 12.666 8.71281 12.9874 8.77682C14.5361 9.08295 15.5645 9.99299 16.0793 11.4805C16.2213 11.8882 15.9847 12.2236 15.5853 12.2208Z" fill="#98A2B3"/>
<path d="M6.22277 12.6648C6.28678 11.45 6.52055 10.4954 7.02706 9.61877C7.1996 9.3196 7.51826 9.20132 7.78821 9.33212C8.05537 9.46153 8.18618 9.81358 8.02337 10.1044C7.59896 10.8656 7.40833 11.6838 7.34432 12.5451C7.30953 13.0043 7.09246 13.2074 6.74598 13.1824C6.41202 13.1587 6.21721 12.8818 6.22277 12.6648Z" fill="#98A2B3"/>
<path d="M20.2126 14.8463C20.5201 14.8394 20.7789 15.0787 20.7817 15.3751C20.7845 15.6687 20.502 15.9693 20.2237 15.9665C19.9176 15.9651 19.6741 15.7286 19.6644 15.428C19.6546 15.1024 19.8884 14.8533 20.2126 14.8463Z" fill="#98A2B3"/>
</svg>
