<svg width="61" height="61" viewBox="0 0 61 61" fill="none" xmlns="http://www.w3.org/2000/svg">
<mask id="mask0_2335_10507" style="mask-type:luminance" maskUnits="userSpaceOnUse" x="10" y="10" width="46" height="46">
<path fill-rule="evenodd" clip-rule="evenodd" d="M29.8835 29.8117C28.4185 31.2767 26.046 31.2767 24.581 29.8117C23.116 28.3467 23.116 25.9717 24.581 24.5092C26.046 23.0442 28.4185 23.0442 29.8835 24.5092C31.3485 25.9717 31.3485 28.3467 29.8835 29.8117M54.6509 29.8636L38.6084 13.8211C38.1959 13.4086 37.6534 13.1536 37.0734 13.1011L13.7134 10.9211C12.9709 10.8461 12.2409 11.1136 11.7134 11.6411C11.1859 12.1686 10.9234 12.9011 10.9909 13.6411L13.1709 37.0011C13.2284 37.5811 13.4809 38.1261 13.8934 38.5361L29.9359 54.5811C30.8234 55.4636 31.9859 55.9061 33.1484 55.9061C34.3109 55.9061 35.4734 55.4636 36.3609 54.5786L54.6509 36.2886C55.5084 35.4336 55.9809 34.2911 55.9809 33.0761C55.9809 31.8611 55.5084 30.7211 54.6509 29.8636" fill="white"/>
</mask>
<g mask="url(#mask0_2335_10507)">
<rect x="0.984375" y="0.910156" width="60" height="60" fill="#667085"/>
</g>
</svg>
