<svg width="217" height="216" viewBox="0 0 217 216" fill="none" xmlns="http://www.w3.org/2000/svg">
<mask id="mask0_2181_10474" style="mask-type:luminance" maskUnits="userSpaceOnUse" x="18" y="44" width="181" height="127">
<path fill-rule="evenodd" clip-rule="evenodd" d="M108.5 121.5C101.057 121.5 95 115.443 95 108C95 100.557 101.057 94.5 108.5 94.5C115.943 94.5 122 100.557 122 108C122 115.443 115.943 121.5 108.5 121.5M108.5 76.5C91.13 76.5 77 90.63 77 108C77 125.37 91.13 139.5 108.5 139.5C125.87 139.5 140 125.37 140 108C140 90.63 125.87 76.5 108.5 76.5M110.47 152.981C71.7159 153.881 46.4349 120.734 38.0469 107.963C47.2809 93.5177 70.5369 63.9437 106.519 63.0257C145.12 62.0447 170.545 95.2727 178.933 108.044C169.708 122.489 146.443 152.063 110.47 152.981M197.31 103.524C191.568 93.5156 159.852 43.3496 106.068 45.0326C56.3157 46.2926 27.3807 90.1226 19.6948 103.524C18.1017 106.296 18.1017 109.707 19.6948 112.479C25.3558 122.352 55.9557 170.997 108.723 170.997C109.461 170.997 110.199 170.988 110.937 170.97C160.68 169.701 189.624 125.88 197.31 112.479C198.894 109.707 198.894 106.296 197.31 103.524" fill="white"/>
</mask>
<g mask="url(#mask0_2181_10474)">
<rect x="0.5" width="216" height="216" fill="#667085"/>
</g>
</svg>
