<svg width="61" height="61" viewBox="0 0 61 61" fill="none" xmlns="http://www.w3.org/2000/svg">
<mask id="mask0_2335_10539" style="mask-type:luminance" maskUnits="userSpaceOnUse" x="13" y="13" width="36" height="38">
<path fill-rule="evenodd" clip-rule="evenodd" d="M47.9369 36.7988C47.0744 35.7188 45.4994 35.5463 44.4244 36.4088L35.9844 43.1588V20.8613C35.9844 16.7238 32.6219 13.3613 28.4844 13.3613H15.9844C14.6044 13.3613 13.4844 14.4788 13.4844 15.8613C13.4844 17.2413 14.6044 18.3613 15.9844 18.3613H28.4844C29.8644 18.3613 30.9844 19.4813 30.9844 20.8613V43.1588L22.5469 36.4088C21.4719 35.5463 19.8969 35.7188 19.0319 36.7988C18.1694 37.8763 18.3444 39.4513 19.4244 40.3113L31.9244 50.3113C32.3794 50.6763 32.9319 50.8613 33.4844 50.8613C34.0369 50.8613 34.5894 50.6763 35.0469 50.3113L47.5469 40.3113C48.6244 39.4513 48.7994 37.8763 47.9369 36.7988" fill="white"/>
</mask>
<g mask="url(#mask0_2335_10539)">
<rect x="0.984375" y="0.859375" width="60" height="60" fill="#667085"/>
</g>
</svg>
