<svg width="61" height="61" viewBox="0 0 61 61" fill="none" xmlns="http://www.w3.org/2000/svg">
<mask id="mask0_2335_10500" style="mask-type:luminance" maskUnits="userSpaceOnUse" x="5" y="5" width="51" height="51">
<path fill-rule="evenodd" clip-rule="evenodd" d="M40.9652 40.9236C40.9652 42.2986 39.8402 43.4236 38.4652 43.4236C37.0902 43.4236 35.9652 42.2986 35.9652 40.9236V30.9236C35.9652 29.5486 37.0902 28.4236 38.4652 28.4236C39.8402 28.4236 40.9652 29.5486 40.9652 30.9236V40.9236ZM25.9618 11.7438C25.9618 11.3563 26.4968 10.9238 27.2118 10.9238H34.7118C35.4268 10.9238 35.9618 11.3563 35.9618 11.7438V15.9238H25.9618V11.7438ZM25.965 40.9236C25.965 42.2986 24.84 43.4236 23.465 43.4236C22.09 43.4236 20.965 42.2986 20.965 40.9236V30.9236C20.965 29.5486 22.09 28.4236 23.465 28.4236C24.84 28.4236 25.965 29.5486 25.965 30.9236V40.9236ZM53.4648 15.9233H50.9648H40.9648V11.7433C40.9648 8.53334 38.1623 5.92334 34.7148 5.92334H27.2148C23.7673 5.92334 20.9648 8.53334 20.9648 11.7433V15.9233H10.9648H8.46484C7.08984 15.9233 5.96484 17.0483 5.96484 18.4233C5.96484 19.7983 7.08984 20.9233 8.46484 20.9233H10.9648V48.4233C10.9648 52.5583 14.3298 55.9233 18.4648 55.9233H43.4648C47.5998 55.9233 50.9648 52.5583 50.9648 48.4233V20.9233H53.4648C54.8398 20.9233 55.9648 19.7983 55.9648 18.4233C55.9648 17.0483 54.8398 15.9233 53.4648 15.9233V15.9233Z" fill="white"/>
</mask>
<g mask="url(#mask0_2335_10500)">
<rect x="0.96875" y="0.922852" width="60" height="60" fill="#667085"/>
</g>
</svg>
