<svg width="60" height="61" viewBox="0 0 60 61" fill="none" xmlns="http://www.w3.org/2000/svg">
<mask id="mask0_2335_10537" style="mask-type:luminance" maskUnits="userSpaceOnUse" x="7" y="8" width="46" height="46">
<path fill-rule="evenodd" clip-rule="evenodd" d="M47.5039 30.8594C47.5039 29.4794 48.6214 28.3594 50.0039 28.3594C51.3864 28.3594 52.5039 29.4794 52.5039 30.8594V45.8594C52.5039 49.9944 49.1389 53.3594 45.0039 53.3594H15.0039C10.8689 53.3594 7.50391 49.9944 7.50391 45.8594V15.8594C7.50391 11.7244 10.8689 8.35938 15.0039 8.35938H30.0039C31.3864 8.35938 32.5039 9.47937 32.5039 10.8594C32.5039 12.2394 31.3864 13.3594 30.0039 13.3594H15.0039C13.6239 13.3594 12.5039 14.4819 12.5039 15.8594V45.8594C12.5039 47.2369 13.6239 48.3594 15.0039 48.3594H45.0039C46.3839 48.3594 47.5039 47.2369 47.5039 45.8594V30.8594ZM43.9465 13.3794L39.989 13.3594C38.6065 13.3519 37.494 12.2269 37.5015 10.8469C37.509 9.46938 38.6265 8.35938 40.0015 8.35938H40.014L50.0065 8.40937C51.3815 8.41687 52.494 9.53188 52.494 10.9069L52.5015 20.8569C52.5015 22.2394 51.384 23.3594 50.004 23.3594H50.0015C48.6215 23.3594 47.5015 22.2419 47.5015 20.8619L47.499 16.8969L31.769 32.6269C31.2815 33.1144 30.6415 33.3594 30.0015 33.3594C29.3615 33.3594 28.7215 33.1144 28.234 32.6269C27.2565 31.6494 27.2565 30.0694 28.234 29.0919L43.9465 13.3794Z" fill="white"/>
</mask>
<g mask="url(#mask0_2335_10537)">
<rect x="0.0078125" y="0.859375" width="60" height="60" fill="#667085"/>
</g>
</svg>
