<svg width="61" height="61" viewBox="0 0 61 61" fill="none" xmlns="http://www.w3.org/2000/svg">
<mask id="mask0_2335_10560" style="mask-type:luminance" maskUnits="userSpaceOnUse" x="12" y="10" width="36" height="39">
<path fill-rule="evenodd" clip-rule="evenodd" d="M45.0238 43.4741H32.5238C31.1463 43.4741 30.0238 42.3516 30.0238 40.9741V18.6766L38.4613 25.4266C38.9238 25.7941 39.4738 25.9741 40.0238 25.9741C40.7538 25.9741 41.4813 25.6541 41.9763 25.0366C42.8388 23.9566 42.6638 22.3841 41.5863 21.5216L29.0863 11.5216C28.1713 10.7916 26.8763 10.7916 25.9613 11.5216L13.4613 21.5216C12.3838 22.3841 12.2088 23.9566 13.0713 25.0366C13.9313 26.1141 15.5088 26.2866 16.5863 25.4266L25.0238 18.6766V40.9741C25.0238 45.1091 28.3888 48.4741 32.5238 48.4741H45.0238C46.4038 48.4741 47.5238 47.3541 47.5238 45.9741C47.5238 44.5941 46.4038 43.4741 45.0238 43.4741" fill="white"/>
</mask>
<g mask="url(#mask0_2335_10560)">
<rect x="0.0234375" y="0.974609" width="60" height="60" fill="#667085"/>
</g>
</svg>
