<svg width="61" height="61" viewBox="0 0 61 61" fill="none" xmlns="http://www.w3.org/2000/svg">
<mask id="mask0_2335_10486" style="mask-type:luminance" maskUnits="userSpaceOnUse" x="13" y="13" width="38" height="36">
<path fill-rule="evenodd" clip-rule="evenodd" d="M50.6133 15.9298C50.6083 14.5532 49.489 13.4414 48.1149 13.4414H48.1049C46.7258 13.4464 45.6115 14.5707 45.6165 15.9498L45.669 28.4418C45.669 29.1089 45.4141 29.7385 44.9444 30.2107C44.4722 30.6854 43.8476 30.9477 43.1806 30.9502L20.8973 31.0427L27.608 22.5831C28.465 21.5013 28.2826 19.9298 27.2033 19.0728C26.124 18.2159 24.5525 18.4007 23.693 19.4775L13.7519 32.0095C13.0248 32.9264 13.0323 34.2206 13.7644 35.1325L23.8079 47.5821C24.3026 48.1942 25.0247 48.5115 25.7542 48.5115C26.3063 48.5115 26.861 48.3291 27.3232 47.9568C28.395 47.0924 28.5649 45.5184 27.698 44.4441L20.9173 36.0395L43.2005 35.947C45.2018 35.9395 47.0806 35.1525 48.4922 33.7309C49.9013 32.3093 50.6733 30.423 50.6658 28.4218L50.6133 15.9298Z" fill="white"/>
</mask>
<g mask="url(#mask0_2335_10486)">
<rect x="0.71875" y="0.949219" width="59.9617" height="59.9617" fill="#667085"/>
</g>
</svg>
