<svg width="24" height="24" viewBox="0 0 24 24" fill="none" xmlns="http://www.w3.org/2000/svg">
<path d="M13.1328 16.7857L8.91355 9.93756C8.81954 9.78418 8.82854 9.58782 8.93955 9.44422C9.44057 8.7936 9.9486 8.21234 10.3756 7.82451C10.3756 7.82451 10.7176 7.49041 10.9346 7.34582C11.2307 7.11234 11.6177 7 11.9937 7C12.4157 7 12.8147 7.12309 13.1338 7.36829C13.1908 7.42398 13.4418 7.63597 13.6468 7.83623C14.9228 9.00461 17.031 12.0545 17.67 13.6586C17.773 13.8921 17.988 14.5153 18 14.8387C18 15.1503 17.932 15.4512 17.783 15.7404C17.578 16.096 17.26 16.3744 16.8829 16.5307C16.6209 16.6313 15.8349 16.7866 15.8119 16.7866C15.2509 16.8873 14.4628 16.9625 13.5428 16.9996C13.3778 17.0064 13.2178 16.9234 13.1328 16.7857Z" fill="#16C784"/>
<path opacity="0.4" d="M10.8605 16.3275C11.0475 16.6293 10.8085 17.0094 10.4495 16.9947C9.60746 16.9586 8.86542 16.896 8.31339 16.8198C8.30139 16.8081 7.32234 16.6528 6.99133 16.474C6.3763 16.1624 6.00028 15.5508 6.00028 14.8934V14.8387C6.01128 14.4147 6.3873 13.513 6.4103 13.513C6.59931 13.0588 6.91932 12.4658 7.30434 11.8279C7.47835 11.5406 7.90537 11.5338 8.08238 11.821L10.8605 16.3275Z" fill="#16C784"/>
</svg>
