<svg width="60" height="61" viewBox="0 0 60 61" fill="none" xmlns="http://www.w3.org/2000/svg">
<mask id="mask0_2335_10545" style="mask-type:luminance" maskUnits="userSpaceOnUse" x="8" y="8" width="44" height="46">
<path fill-rule="evenodd" clip-rule="evenodd" d="M13.7585 45.8468C13.7585 47.2243 14.8785 48.3468 16.2585 48.3468C17.6385 48.3468 18.7585 47.2243 18.7585 45.8468C18.7585 44.4693 17.6385 43.3468 16.2585 43.3468C14.8785 43.3468 13.7585 44.4693 13.7585 45.8468ZM13.7585 15.8476C13.7585 17.2251 14.8785 18.3476 16.2585 18.3476C17.6385 18.3476 18.7585 17.2251 18.7585 15.8476C18.7585 14.4701 17.6385 13.3476 16.2585 13.3476C14.8785 13.3476 13.7585 14.4701 13.7585 15.8476ZM50.5267 11.5772C51.5042 12.5522 51.5092 14.1322 50.5317 15.1122L23.0467 42.6972C23.4942 43.6597 23.7617 44.7197 23.7617 45.8472C23.7617 49.9822 20.3967 53.3472 16.2617 53.3472C12.1267 53.3472 8.76172 49.9822 8.76172 45.8472C8.76172 41.7122 12.1267 38.3472 16.2617 38.3472C17.4442 38.3472 18.5442 38.6472 19.5417 39.1322L27.7617 30.8822L19.4942 22.6147C19.4902 22.612 19.4884 22.6079 19.4864 22.6036C19.4846 22.5997 19.4827 22.5957 19.4792 22.5922C18.5017 23.0622 17.4192 23.3472 16.2617 23.3472C12.1267 23.3472 8.76172 19.9822 8.76172 15.8472C8.76172 11.7122 12.1267 8.34717 16.2617 8.34717C20.3967 8.34717 23.7617 11.7122 23.7617 15.8472C23.7617 17.0022 23.4767 18.0872 23.0067 19.0647C23.0117 19.0697 23.0167 19.0724 23.0217 19.0752C23.0242 19.0766 23.0267 19.078 23.0292 19.0797L31.2917 27.3397L46.9917 11.5822C47.9667 10.6072 49.5467 10.6022 50.5267 11.5772ZM34.5001 34.0801C35.4776 33.1026 37.0576 33.1026 38.0351 34.0801L50.5351 46.5801C51.5126 47.5576 51.5126 49.1376 50.5351 50.1151C50.0476 50.6026 49.4076 50.8476 48.7676 50.8476C48.1276 50.8476 47.4876 50.6026 47.0001 50.1151L34.5001 37.6151C33.5226 36.6376 33.5226 35.0576 34.5001 34.0801Z" fill="white"/>
</mask>
<g mask="url(#mask0_2335_10545)">
<rect x="0.0078125" y="0.84668" width="60" height="60" fill="#667085"/>
</g>
</svg>
