<svg width="61" height="61" viewBox="0 0 61 61" fill="none" xmlns="http://www.w3.org/2000/svg">
<mask id="mask0_2335_10551" style="mask-type:luminance" maskUnits="userSpaceOnUse" x="8" y="5" width="46" height="51">
<path fill-rule="evenodd" clip-rule="evenodd" d="M39.8783 32.7247C40.5308 31.3972 40.9308 29.9247 40.9308 28.3472V15.8472C40.9308 10.3322 36.4458 5.84717 30.9308 5.84717C26.0608 5.84717 22.0058 9.34967 21.1208 13.9672L39.8783 32.7247ZM48.4331 28.3466C48.4331 26.9666 47.3156 25.8466 45.9331 25.8466C44.5506 25.8466 43.4331 26.9666 43.4331 28.3466C43.4331 30.6191 42.7781 32.7216 41.7131 34.5566L45.3706 38.2141C47.3006 35.4041 48.4331 32.0066 48.4331 28.3466ZM31.1487 38.3263C31.0789 38.3365 31.0086 38.3468 30.9354 38.3468C25.4204 38.3468 20.9354 33.8618 20.9354 28.3468V27.9168L31.3254 38.3068C31.2659 38.3091 31.2075 38.3176 31.1487 38.3263ZM52.7017 49.0799L12.7017 9.07992C11.7242 8.10242 10.1442 8.10242 9.16672 9.07992C8.18922 10.0574 8.18922 11.6374 9.16672 12.6149L49.1667 52.6149C49.6542 53.1024 50.2942 53.3474 50.9342 53.3474C51.5742 53.3474 52.2142 53.1024 52.7017 52.6149C53.6792 51.6374 53.6792 50.0574 52.7017 49.0799ZM33.4304 50.8466H38.4304C39.8054 50.8466 40.9304 51.9716 40.9304 53.3466C40.9304 54.7216 39.8054 55.8466 38.4304 55.8466H23.4304C22.0554 55.8466 20.9304 54.7216 20.9304 53.3466C20.9304 51.9716 22.0554 50.8466 23.4304 50.8466H28.4304V45.6466C19.9629 44.4266 13.4304 37.1466 13.4304 28.3466C13.4304 26.9666 14.5479 25.8466 15.9304 25.8466C17.3129 25.8466 18.4304 26.9666 18.4304 28.3466C18.4304 35.2391 24.0379 40.8466 30.9304 40.8466C31.8354 40.8466 32.7154 40.7391 33.5679 40.5541L37.5504 44.5366C36.2479 45.0716 34.8629 45.4366 33.4304 45.6441V50.8466Z" fill="white"/>
</mask>
<g mask="url(#mask0_2335_10551)">
<rect x="0.9375" y="0.84668" width="60" height="60" fill="#667085"/>
</g>
</svg>
