<svg width="61" height="61" viewBox="0 0 61 61" fill="none" xmlns="http://www.w3.org/2000/svg">
<path d="M19.1925 12.2814C27.0291 11.6002 34.91 11.6002 42.7466 12.2814L46.5222 12.6096C49.0356 12.8281 51.1882 14.3273 52.3036 16.4717C52.4463 16.7461 52.3394 17.0782 52.0765 17.241L36.4116 26.9383C33.0519 29.0181 28.8156 29.0617 25.4138 27.0516L9.64424 17.7332C9.38946 17.5827 9.27252 17.2728 9.38734 17C10.4077 14.5761 12.7018 12.8456 15.4169 12.6096L19.1925 12.2814Z" fill="#667085"/>
<path d="M9.37451 21.9296C8.9846 21.6992 8.48709 21.9471 8.44164 22.3977C7.8073 28.6868 7.96083 35.0354 8.90222 41.2957C9.39851 44.596 12.092 47.1261 15.4169 47.4151L19.1925 47.7433C27.0291 48.4246 34.91 48.4246 42.7466 47.7433L46.5222 47.4151C49.847 47.1261 52.5406 44.596 53.0368 41.2957C54.0057 34.853 54.1401 28.3167 53.44 21.8481C53.3909 21.3943 52.8849 21.1509 52.4968 21.3912L38.3854 30.1268C33.84 32.9406 28.1085 32.9997 23.5061 30.2801L9.37451 21.9296Z" fill="#667085"/>
</svg>
