<svg width="61" height="61" viewBox="0 0 61 61" fill="none" xmlns="http://www.w3.org/2000/svg">
<mask id="mask0_2335_10465" style="mask-type:luminance" maskUnits="userSpaceOnUse" x="5" y="8" width="51" height="46">
<path fill-rule="evenodd" clip-rule="evenodd" d="M23.4537 28.4746C28.9651 28.4746 33.4473 23.9896 33.4473 18.4746C33.4473 12.9596 28.9651 8.47461 23.4537 8.47461C17.9422 8.47461 13.4601 12.9596 13.4601 18.4746C13.4601 23.9896 17.9422 28.4746 23.4537 28.4746ZM43.4409 33.4743C47.5732 33.4743 50.9361 30.1093 50.9361 25.9743C50.9361 21.8393 47.5732 18.4743 43.4409 18.4743C39.3085 18.4743 35.9457 21.8393 35.9457 25.9743C35.9457 30.1093 39.3085 33.4743 43.4409 33.4743ZM55.9329 48.4745C55.9329 49.8545 54.8161 50.9745 53.4345 50.9745H40.9425C40.9425 52.3545 39.8257 53.4745 38.4441 53.4745H8.46325C7.08163 53.4745 5.96484 52.3545 5.96484 50.9745C5.96484 41.3245 13.8123 33.4745 23.4537 33.4745C28.2681 33.4745 32.6303 35.432 35.7958 38.5895C37.9669 36.9095 40.6402 35.9745 43.4409 35.9745C50.329 35.9745 55.9329 41.582 55.9329 48.4745Z" fill="white"/>
</mask>
<g mask="url(#mask0_2335_10465)">
<rect x="0.96875" y="0.974609" width="59.9617" height="60" fill="#667085"/>
</g>
</svg>
