<svg width="60" height="61" viewBox="0 0 60 61" fill="none" xmlns="http://www.w3.org/2000/svg">
<mask id="mask0_2335_10497" style="mask-type:luminance" maskUnits="userSpaceOnUse" x="10" y="5" width="41" height="51">
<path fill-rule="evenodd" clip-rule="evenodd" d="M44.9236 17.7445L38.1886 11.0095L33.3186 15.882L40.0561 22.6195L44.9236 17.7445ZM12.7403 45.9128C12.6653 45.9203 12.5903 45.9228 12.5153 45.9228C11.8553 45.9228 11.2178 45.6628 10.7453 45.1903C10.2228 44.6653 9.95781 43.9353 10.0228 43.1978L10.9703 32.7728C11.0753 31.6303 11.5803 30.5503 12.3953 29.7378L34.8853 7.24777C36.6403 5.48527 39.8228 5.57277 41.6753 7.42027L48.5203 14.2653L48.5228 14.2678C50.4353 16.1828 50.5128 19.2278 48.6928 21.0528L26.2003 43.5453C25.3878 44.3578 24.3103 44.8628 23.1653 44.9678L12.7403 45.9128ZM12.5117 50.923H47.5117C48.8867 50.923 50.0117 52.048 50.0117 53.423C50.0117 54.798 48.8867 55.923 47.5117 55.923H12.5117C11.1367 55.923 10.0117 54.798 10.0117 53.423C10.0117 52.048 11.1367 50.923 12.5117 50.923Z" fill="white"/>
</mask>
<g mask="url(#mask0_2335_10497)">
<rect x="0.0078125" y="0.922852" width="60" height="60" fill="#667085"/>
</g>
</svg>
