<svg width="61" height="61" viewBox="0 0 61 61" fill="none" xmlns="http://www.w3.org/2000/svg">
<mask id="mask0_2335_10496" style="mask-type:luminance" maskUnits="userSpaceOnUse" x="7" y="8" width="46" height="46">
<path fill-rule="evenodd" clip-rule="evenodd" d="M45.0163 18.4233H15.0163C13.6388 18.4233 12.5163 17.3008 12.5163 15.9233C12.5163 14.5458 13.6388 13.4233 15.0163 13.4233H45.0163C46.3963 13.4233 47.5163 14.5458 47.5163 15.9233C47.5163 17.3008 46.3963 18.4233 45.0163 18.4233V18.4233ZM37.5197 33.7581C37.5197 34.9481 36.5447 35.9231 35.3547 35.9231H24.6847C23.4947 35.9231 22.5197 34.9481 22.5197 33.7581V33.0881C22.5197 31.8981 23.4947 30.9231 24.6847 30.9231H35.3547C36.5447 30.9231 37.5197 31.8981 37.5197 33.0881V33.7581ZM45.0195 8.42285H15.0195C10.8845 8.42285 7.51953 11.7879 7.51953 15.9229C7.51953 18.1304 8.49703 20.0978 10.0195 21.4728V45.9228C10.0195 50.0578 13.3845 53.4228 17.5195 53.4228H42.5195C46.6545 53.4228 50.0195 50.0578 50.0195 45.9228V21.4728C51.542 20.0978 52.5195 18.1304 52.5195 15.9229C52.5195 11.7879 49.1545 8.42285 45.0195 8.42285V8.42285Z" fill="white"/>
</mask>
<g mask="url(#mask0_2335_10496)">
<rect x="0.0234375" y="0.922852" width="60" height="60" fill="#667085"/>
</g>
</svg>
