<svg width="24" height="25" viewBox="0 0 24 25" fill="none" xmlns="http://www.w3.org/2000/svg">
<path d="M21 7.5H3C2.73478 7.5 2.48043 7.39464 2.29289 7.20711C2.10536 7.01957 2 6.76522 2 6.5C2 6.23478 2.10536 5.98043 2.29289 5.79289C2.48043 5.60536 2.73478 5.5 3 5.5H21C21.2652 5.5 21.5196 5.60536 21.7071 5.79289C21.8946 5.98043 22 6.23478 22 6.5C22 6.76522 21.8946 7.01957 21.7071 7.20711C21.5196 7.39464 21.2652 7.5 21 7.5ZM17 11.5H3C2.73478 11.5 2.48043 11.3946 2.29289 11.2071C2.10536 11.0196 2 10.7652 2 10.5C2 10.2348 2.10536 9.98043 2.29289 9.79289C2.48043 9.60536 2.73478 9.5 3 9.5H17C17.2652 9.5 17.5196 9.60536 17.7071 9.79289C17.8946 9.98043 18 10.2348 18 10.5C18 10.7652 17.8946 11.0196 17.7071 11.2071C17.5196 11.3946 17.2652 11.5 17 11.5ZM21 15.5H3C2.73478 15.5 2.48043 15.3946 2.29289 15.2071C2.10536 15.0196 2 14.7652 2 14.5C2 14.2348 2.10536 13.9804 2.29289 13.7929C2.48043 13.6054 2.73478 13.5 3 13.5H21C21.2652 13.5 21.5196 13.6054 21.7071 13.7929C21.8946 13.9804 22 14.2348 22 14.5C22 14.7652 21.8946 15.0196 21.7071 15.2071C21.5196 15.3946 21.2652 15.5 21 15.5ZM17 19.5H3C2.73478 19.5 2.48043 19.3946 2.29289 19.2071C2.10536 19.0196 2 18.7652 2 18.5C2 18.2348 2.10536 17.9804 2.29289 17.7929C2.48043 17.6054 2.73478 17.5 3 17.5H17C17.2652 17.5 17.5196 17.6054 17.7071 17.7929C17.8946 17.9804 18 18.2348 18 18.5C18 18.7652 17.8946 19.0196 17.7071 19.2071C17.5196 19.3946 17.2652 19.5 17 19.5Z" fill="#98A2B3"/>
</svg>
