<svg width="61" height="61" viewBox="0 0 61 61" fill="none" xmlns="http://www.w3.org/2000/svg">
<mask id="mask0_2335_10542" style="mask-type:luminance" maskUnits="userSpaceOnUse" x="3" y="15" width="56" height="31">
<path fill-rule="evenodd" clip-rule="evenodd" d="M23.4406 40.8599H18.9656C13.7006 40.8599 8.95056 37.0224 8.48306 31.7749C7.95056 25.8499 12.6231 20.8599 18.4406 20.8599H23.4406C24.8206 20.8599 25.9406 19.7424 25.9406 18.3599C25.9406 16.9774 24.8206 15.8599 23.4406 15.8599H18.9631C11.3406 15.8599 4.53806 21.3274 3.56806 28.8874C2.39556 38.0324 9.52056 45.8599 18.4406 45.8599H23.4406C24.8206 45.8599 25.9406 44.7424 25.9406 43.3599C25.9406 41.9774 24.8206 40.8599 23.4406 40.8599ZM20.94 30.8604C20.94 32.2429 22.06 33.3604 23.44 33.3604H38.44C39.82 33.3604 40.94 32.2429 40.94 30.8604C40.94 29.4779 39.82 28.3604 38.44 28.3604H23.44C22.06 28.3604 20.94 29.4779 20.94 30.8604ZM42.8377 15.8599C50.5052 15.8599 57.3852 21.3524 58.3227 28.9649C59.4452 38.0799 52.3352 45.8599 43.4402 45.8599H38.4402C37.0602 45.8599 35.9402 44.7424 35.9402 43.3599C35.9402 41.9774 37.0602 40.8599 38.4402 40.8599H43.4402C49.2577 40.8599 53.9302 35.8699 53.3977 29.9449C52.9302 24.6974 48.1802 20.8599 42.9127 20.8599H38.4402C37.0602 20.8599 35.9402 19.7424 35.9402 18.3599C35.9402 16.9774 37.0477 15.8599 39.0627 15.8599H42.8377Z" fill="white"/>
</mask>
<g mask="url(#mask0_2335_10542)">
<rect x="0.945312" y="0.859375" width="60" height="60" fill="#667085"/>
</g>
</svg>
