<svg width="61" height="61" viewBox="0 0 61 61" fill="none" xmlns="http://www.w3.org/2000/svg">
<mask id="mask0_2335_10543" style="mask-type:luminance" maskUnits="userSpaceOnUse" x="8" y="8" width="46" height="46">
<path fill-rule="evenodd" clip-rule="evenodd" d="M38.4315 33.3604H33.4315V38.3604C33.4315 39.7354 32.3065 40.8604 30.9315 40.8604C29.5565 40.8604 28.4315 39.7354 28.4315 38.3604V33.3604H23.4315C22.0565 33.3604 20.9315 32.2354 20.9315 30.8604C20.9315 29.4854 22.0565 28.3604 23.4315 28.3604H28.4315V23.3604C28.4315 21.9854 29.5565 20.8604 30.9315 20.8604C32.3065 20.8604 33.4315 21.9854 33.4315 23.3604V28.3604H38.4315C39.8065 28.3604 40.9315 29.4854 40.9315 30.8604C40.9315 32.2354 39.8065 33.3604 38.4315 33.3604M45.9297 8.35986H15.9297C11.7947 8.35986 8.42969 11.7249 8.42969 15.8599V45.8599C8.42969 49.9949 11.7947 53.3599 15.9297 53.3599H45.9297C50.0647 53.3599 53.4297 49.9949 53.4297 45.8599V15.8599C53.4297 11.7249 50.0647 8.35986 45.9297 8.35986" fill="white"/>
</mask>
<g mask="url(#mask0_2335_10543)">
<rect x="0.933594" y="0.859863" width="60" height="60" fill="#667085"/>
</g>
</svg>
