<svg width="61" height="61" viewBox="0 0 61 61" fill="none" xmlns="http://www.w3.org/2000/svg">
<mask id="mask0_2335_10525" style="mask-type:luminance" maskUnits="userSpaceOnUse" x="5" y="8" width="51" height="46">
<path fill-rule="evenodd" clip-rule="evenodd" d="M55.5725 27.9526C55.6258 28.1226 55.6792 28.2929 55.7145 28.4698C55.8695 29.2523 55.957 30.0573 55.957 30.8848C55.957 31.6548 55.867 32.4123 55.727 33.1598C55.6961 33.3301 55.6544 33.4934 55.6127 33.6569C55.5938 33.7309 55.5749 33.805 55.557 33.8798C55.432 34.3773 55.2845 34.8648 55.102 35.3423C55.007 35.5898 54.9095 35.8323 54.7995 36.0723C54.582 36.5473 54.3295 37.0023 54.052 37.4498C54.0089 37.5191 53.9679 37.5896 53.9269 37.66C53.8585 37.7774 53.7902 37.8948 53.712 38.0073C53.6892 38.0397 53.6698 38.0733 53.6506 38.1067C53.6298 38.1427 53.6092 38.1785 53.5845 38.2123C53.5652 38.2398 53.5383 38.2575 53.5118 38.275C53.4902 38.2892 53.4688 38.3032 53.452 38.3223C51.172 41.3773 47.562 43.3848 43.457 43.3848H43.427C43.367 42.2198 42.9245 41.0723 42.0545 40.1723C41.1195 39.1998 39.807 38.6423 38.457 38.6423C37.567 38.6423 36.7095 38.8748 35.957 39.3123V30.8848C35.957 28.1273 33.7145 25.8848 30.957 25.8848C28.202 25.8848 25.957 28.1273 25.957 30.8848V39.0498C25.2045 38.6173 24.3495 38.3848 23.457 38.3848C22.122 38.3848 20.867 38.9048 19.922 39.8498C18.947 40.8223 18.4595 42.1048 18.4595 43.3848H18.457C14.352 43.3848 10.742 41.3773 8.46453 38.3223C8.44701 38.3036 8.42565 38.2898 8.40424 38.276C8.37677 38.2582 8.3492 38.2404 8.32953 38.2123C8.30309 38.1761 8.2813 38.1376 8.25941 38.0989C8.24198 38.0681 8.22448 38.0372 8.20453 38.0073C8.12474 37.8924 8.05411 37.7724 7.98355 37.6525C7.94357 37.5846 7.90362 37.5167 7.86203 37.4498C7.58703 37.0023 7.33203 36.5473 7.11453 36.0723C7.00806 35.84 6.91564 35.6053 6.8214 35.3661L6.81203 35.3423C6.63203 34.8648 6.48203 34.3773 6.35953 33.8798C6.34371 33.8165 6.32738 33.7538 6.31107 33.6911C6.26551 33.5161 6.22017 33.342 6.18703 33.1598C6.04953 32.4123 5.95703 31.6548 5.95703 30.8848C5.95703 30.0573 6.04703 29.2523 6.19953 28.4698C6.23597 28.2876 6.29147 28.1124 6.34697 27.9373C6.37906 27.8361 6.41114 27.7348 6.43953 27.6323C6.44998 27.5939 6.4604 27.5555 6.47082 27.5171C6.59 27.0778 6.7092 26.6384 6.87703 26.2223C6.96758 25.9959 7.07876 25.7841 7.19027 25.5716C7.23885 25.479 7.2875 25.3863 7.33453 25.2923C7.35053 25.2605 7.36647 25.2287 7.3824 25.197C7.55809 24.8472 7.73114 24.5026 7.94203 24.1748C8.10146 23.9225 8.28207 23.6898 8.46281 23.4569C8.50597 23.4013 8.54914 23.3457 8.59203 23.2898L8.60089 23.2784C8.84288 22.9672 9.08282 22.6587 9.35203 22.3698C9.59322 22.1097 9.8523 21.8764 10.1145 21.6403C10.1295 21.6268 10.1445 21.6133 10.1595 21.5998C10.4545 21.3348 10.7545 21.0798 11.0745 20.8448C11.372 20.6248 11.677 20.4248 11.9945 20.2348C12.3445 20.0198 12.702 19.8273 13.072 19.6498C13.397 19.4923 13.722 19.3498 14.062 19.2223C14.467 19.0673 14.8845 18.9448 15.3095 18.8348C15.647 18.7448 15.977 18.6573 16.327 18.5998C16.3931 18.5877 16.4572 18.5702 16.5213 18.5528C16.6028 18.5306 16.6842 18.5085 16.7695 18.4973C18.822 12.5373 24.507 8.38477 30.957 8.38477C37.4095 8.38477 43.0945 12.5373 45.1445 18.4973C45.2301 18.5085 45.3124 18.5307 45.3948 18.5529C45.4592 18.5703 45.5236 18.5877 45.5895 18.5998C45.937 18.6573 46.2695 18.7448 46.6045 18.8348C47.0295 18.9448 47.447 19.0673 47.852 19.2223C48.192 19.3498 48.5195 19.4923 48.842 19.6498C49.212 19.8273 49.5695 20.0198 49.9195 20.2348C50.237 20.4248 50.5445 20.6248 50.842 20.8448C51.1595 21.0798 51.4595 21.3348 51.7545 21.5998C52.0345 21.8498 52.307 22.0948 52.5645 22.3698C52.837 22.6623 53.0795 22.9748 53.322 23.2898C53.3537 23.3306 53.3855 23.3714 53.4172 23.412C53.6106 23.66 53.8027 23.9063 53.9745 24.1748C54.1823 24.5012 54.3546 24.8444 54.5296 25.1928C54.5462 25.2259 54.5628 25.2591 54.5795 25.2923C54.6266 25.3863 54.6752 25.479 54.7238 25.5716C54.8353 25.7841 54.9465 25.9959 55.037 26.2223C55.2077 26.6396 55.3273 27.0804 55.4468 27.521C55.4569 27.5581 55.4669 27.5952 55.477 27.6323C55.5059 27.74 55.5392 27.8462 55.5725 27.9526ZM33.4578 44.9942L36.7203 41.8442C37.7153 40.8867 39.2978 40.9142 40.2553 41.9067C41.2153 42.9017 41.1878 44.4842 40.1953 45.4417L32.6953 52.6842C32.2078 53.1492 31.5828 53.3842 30.9578 53.3842C30.3178 53.3842 29.6778 53.1417 29.1903 52.6517L21.6903 45.1517C20.7128 44.1767 20.7128 42.5942 21.6903 41.6167C22.6653 40.6417 24.2478 40.6417 25.2253 41.6167L28.4578 44.8492V30.8842C28.4578 29.5017 29.5778 28.3842 30.9578 28.3842C32.3378 28.3842 33.4578 29.5017 33.4578 30.8842V44.9942Z" fill="white"/>
</mask>
<g mask="url(#mask0_2335_10525)">
<rect x="0.960938" y="0.884766" width="60" height="60" fill="#667085"/>
</g>
</svg>
