<svg width="60" height="60" viewBox="0 0 60 60" fill="none" xmlns="http://www.w3.org/2000/svg">
<mask id="mask0_2335_10440" style="mask-type:luminance" maskUnits="userSpaceOnUse" x="5" y="5" width="50" height="50">
<path fill-rule="evenodd" clip-rule="evenodd" d="M32.502 32.4922C32.502 33.8713 31.3827 34.9906 30.0036 34.9906C28.6244 34.9906 27.5052 33.8713 27.5052 32.4922V20.0002C27.5052 18.6211 28.6244 17.5018 30.0036 17.5018C31.3827 17.5018 32.502 18.6211 32.502 20.0002V32.4922ZM30.0036 42.4858C28.6244 42.4858 27.5052 41.3665 27.5052 39.9874C27.5052 38.6083 28.6244 37.489 30.0036 37.489C31.3827 37.489 32.502 38.6083 32.502 39.9874C32.502 41.3665 31.3827 42.4858 30.0036 42.4858V42.4858ZM30.0036 5.00977C16.2049 5.00977 5.01953 16.1951 5.01953 29.9938C5.01953 43.7925 16.2049 54.9778 30.0036 54.9778C43.8022 54.9778 54.9876 43.7925 54.9876 29.9938C54.9876 16.1951 43.8022 5.00977 30.0036 5.00977V5.00977Z" fill="white"/>
</mask>
<g mask="url(#mask0_2335_10440)">
<rect x="0.0234375" y="0.0126953" width="59.9617" height="59.9617" fill="#667085"/>
</g>
</svg>
