<svg width="61" height="61" viewBox="0 0 61 61" fill="none" xmlns="http://www.w3.org/2000/svg">
<mask id="mask0_2335_10494" style="mask-type:luminance" maskUnits="userSpaceOnUse" x="10" y="5" width="41" height="51">
<path fill-rule="evenodd" clip-rule="evenodd" d="M37.6206 20.9366C36.6356 20.9366 35.8356 19.9841 35.8356 18.8116V10.8816L45.1906 20.9366H37.6206ZM38.3354 45.9356H23.3354C21.9554 45.9356 20.8354 44.8156 20.8354 43.4356C20.8354 42.0556 21.9554 40.9356 23.3354 40.9356H38.3354C39.7179 40.9356 40.8354 42.0556 40.8354 43.4356C40.8354 44.8156 39.7179 45.9356 38.3354 45.9356V45.9356ZM23.3354 30.9359H30.8354C32.2154 30.9359 33.3354 32.0559 33.3354 33.4359C33.3354 34.8159 32.2154 35.9359 30.8354 35.9359H23.3354C21.9554 35.9359 20.8354 34.8159 20.8354 33.4359C20.8354 32.0559 21.9554 30.9359 23.3354 30.9359V30.9359ZM50.182 19.256L39.072 6.75604C38.5995 6.23354 37.927 5.93604 37.222 5.93604H17.222C13.6995 5.93604 10.832 8.74104 10.832 12.186V49.686C10.832 53.131 13.6995 55.936 17.222 55.936H44.442C47.967 55.936 50.832 53.131 50.832 49.686V20.936C50.832 20.3135 50.5995 19.716 50.182 19.256V19.256Z" fill="white"/>
</mask>
<g mask="url(#mask0_2335_10494)">
<rect x="0.828125" y="0.935547" width="60" height="60" fill="#667085"/>
</g>
</svg>
