<svg width="61" height="61" viewBox="0 0 61 61" fill="none" xmlns="http://www.w3.org/2000/svg">
<mask id="mask0_2335_10549" style="mask-type:luminance" maskUnits="userSpaceOnUse" x="5" y="5" width="51" height="51">
<path fill-rule="evenodd" clip-rule="evenodd" d="M29.7716 10.5965C35.2266 5.12899 44.0291 4.14149 50.1091 8.89649C57.3916 14.5915 57.8691 25.204 51.5416 31.5465L47.9841 35.109C47.0016 36.094 45.4116 36.094 44.4291 35.109C43.4466 34.1265 43.4466 32.529 44.4291 31.5465L47.9841 27.9815C52.1216 23.839 51.8966 16.9515 47.3041 13.1065C43.2366 9.69899 37.1316 10.349 33.3841 14.104L30.2016 17.2915C29.2216 18.2765 27.6266 18.2765 26.6466 17.2915C25.6641 16.309 25.6541 14.7215 27.0891 13.284L29.7716 10.5965ZM34.1887 24.0801L24.1887 34.0801C23.2112 35.0576 23.2112 36.6376 24.1887 37.6151C24.6762 38.1026 25.3162 38.3476 25.9562 38.3476C26.5962 38.3476 27.2362 38.1026 27.7237 37.6151L37.7237 27.6151C38.7012 26.6376 38.7012 25.0576 37.7237 24.0801C36.7462 23.1026 35.1662 23.1026 34.1887 24.0801ZM31.6569 44.3384L28.4719 47.5159C24.7194 51.2584 18.6019 51.9034 14.5319 48.5109C9.93437 44.6809 9.70687 37.8159 13.8494 33.6834L17.4119 30.1334C18.3944 29.1534 18.3944 27.5634 17.4119 26.5809C16.4294 25.6034 14.8344 25.6034 13.8494 26.5809L10.6619 29.7634C5.23187 35.1784 4.27937 43.8884 8.97437 49.9484C14.6519 57.2809 25.3019 57.7759 31.6569 51.4409L35.2194 47.8909C36.2019 46.9084 36.2019 45.3209 35.2194 44.3384C34.2344 43.3559 32.6419 43.3559 31.6569 44.3384Z" fill="white"/>
</mask>
<g mask="url(#mask0_2335_10549)">
<rect x="0.960938" y="0.84668" width="60" height="60" fill="#667085"/>
</g>
</svg>
