<svg width="60" height="61" viewBox="0 0 60 61" fill="none" xmlns="http://www.w3.org/2000/svg">
<mask id="mask0_2335_10553" style="mask-type:luminance" maskUnits="userSpaceOnUse" x="10" y="13" width="38" height="36">
<path fill-rule="evenodd" clip-rule="evenodd" d="M40.0117 25.8336H17.7142L24.4642 17.3961C25.3267 16.3161 25.1517 14.7436 24.0742 13.8811C22.9967 13.0211 21.4217 13.1911 20.5592 14.2711L10.5592 26.7711C9.82922 27.6861 9.82922 28.9811 10.5592 29.8961L20.5592 42.3961C21.0542 43.0136 21.7792 43.3336 22.5117 43.3336C23.0617 43.3336 23.6117 43.1536 24.0742 42.7861C25.1517 41.9236 25.3267 40.3511 24.4642 39.2711L17.7142 30.8336H40.0117C41.3892 30.8336 42.5117 31.9561 42.5117 33.3336V45.8336C42.5117 47.2136 43.6317 48.3336 45.0117 48.3336C46.3917 48.3336 47.5117 47.2136 47.5117 45.8336V33.3336C47.5117 29.1986 44.1467 25.8336 40.0117 25.8336" fill="white"/>
</mask>
<g mask="url(#mask0_2335_10553)">
<rect x="0.0078125" y="0.833984" width="60" height="60" fill="#667085"/>
</g>
</svg>
