<svg width="61" height="61" viewBox="0 0 61 61" fill="none" xmlns="http://www.w3.org/2000/svg">
<mask id="mask0_2335_10461" style="mask-type:luminance" maskUnits="userSpaceOnUse" x="13" y="13" width="36" height="36">
<path fill-rule="evenodd" clip-rule="evenodd" d="M26.3686 14.3865C27.2506 13.3265 28.8245 13.184 29.8864 14.0665C30.9457 14.9515 31.0881 16.5265 30.2062 17.5865L19.0233 31.014L29.8039 44.419C30.6684 45.494 30.4985 47.069 29.4242 47.934C28.962 48.3065 28.4098 48.4865 27.8577 48.4865C27.1281 48.4865 26.4036 48.169 25.9114 47.554L13.8491 32.554C13.1021 31.6265 13.1146 30.3015 13.8766 29.3865L26.3686 14.3865ZM47.6964 17.5874L36.5135 31.0149L47.2941 44.4199C48.1586 45.4949 47.9887 47.0674 46.9144 47.9349C46.4522 48.3074 45.8975 48.4874 45.3479 48.4874C44.6183 48.4874 43.8938 48.1674 43.3991 47.5549L31.3368 32.5549C30.5923 31.6274 30.6023 30.2999 31.3643 29.3874L43.8563 14.3874C44.7407 13.3249 46.3147 13.1849 47.3766 14.0674C48.4359 14.9499 48.5783 16.5274 47.6964 17.5874Z" fill="white"/>
</mask>
<g mask="url(#mask0_2335_10461)">
<rect x="0.804688" y="0.987305" width="59.9617" height="60" fill="#667085"/>
</g>
</svg>
