<svg width="61" height="61" viewBox="0 0 61 61" fill="none" xmlns="http://www.w3.org/2000/svg">
<mask id="mask0_2335_10516" style="mask-type:luminance" maskUnits="userSpaceOnUse" x="8" y="15" width="46" height="31">
<path fill-rule="evenodd" clip-rule="evenodd" d="M53.4653 30.8975C53.4653 29.5175 52.3478 28.3975 50.9653 28.3975C49.5828 28.3975 48.4653 29.5175 48.4653 30.8975V36.64L37.8628 24.27C37.0728 23.345 35.7278 23.125 34.6778 23.755L24.0153 30.1525L12.8878 16.7975C12.0028 15.74 10.4303 15.59 9.36277 16.4775C8.30527 17.36 8.16027 18.9375 9.04277 19.9975L21.5428 34.9975C22.3353 35.945 23.6978 36.1775 24.7528 35.54L35.4403 29.1275L45.5303 40.8975H38.4653C37.0828 40.8975 35.9653 42.0175 35.9653 43.3975C35.9653 44.7775 37.0828 45.8975 38.4653 45.8975H50.9653C51.2753 45.8975 51.5828 45.83 51.8753 45.7125C51.9978 45.665 52.0928 45.585 52.2053 45.5225C52.3353 45.445 52.4753 45.3975 52.5903 45.295C52.6153 45.275 52.6253 45.245 52.6478 45.2225C52.7853 45.0975 52.8803 44.945 52.9853 44.7925C53.0678 44.6725 53.1653 44.5675 53.2228 44.4375C53.2853 44.305 53.3053 44.1575 53.3403 44.015C53.3878 43.84 53.4403 43.67 53.4453 43.49C53.4478 43.4575 53.4653 43.43 53.4653 43.3975V30.8975Z" fill="white"/>
</mask>
<g mask="url(#mask0_2335_10516)">
<rect x="0.96875" y="0.897461" width="60" height="60" fill="#667085"/>
</g>
</svg>
