<svg width="61" height="61" viewBox="0 0 61 61" fill="none" xmlns="http://www.w3.org/2000/svg">
<mask id="mask0_2335_10463" style="mask-type:luminance" maskUnits="userSpaceOnUse" x="10" y="8" width="41" height="43">
<path fill-rule="evenodd" clip-rule="evenodd" d="M28.1951 31.1773C28.1904 31.1146 28.188 31.0512 28.188 30.9873V10.9873C28.188 9.6073 29.3048 8.4873 30.6864 8.4873C32.0681 8.4873 33.1848 9.6073 33.1848 10.9873V30.9873C33.1848 30.9875 33.1848 30.9877 33.1848 30.9879L39.1815 26.4879C40.2858 25.6554 41.8523 25.8829 42.6793 26.9879C43.5088 28.0929 43.2839 29.6604 42.1796 30.4879L32.186 37.9879C31.7438 38.3204 31.2141 38.4879 30.687 38.4879C30.1848 38.4879 29.6826 38.3354 29.2504 38.0329L19.2568 30.9979C18.1275 30.2029 17.8552 28.6429 18.6497 27.5154C19.4442 26.3854 21.0007 26.1129 22.1299 26.9079L28.1951 31.1773ZM15.696 43.4873V45.9877V48.4873C15.696 49.8623 14.5717 50.9873 13.1976 50.9873C11.8235 50.9873 10.6992 49.8623 10.6992 48.4873V43.4873C10.6992 42.1123 11.8235 40.9873 13.1976 40.9873C14.5717 40.9873 15.696 42.1123 15.696 43.4873ZM50.6737 48.4873V43.4873C50.6737 42.1123 49.5494 40.9873 48.1753 40.9873C46.8011 40.9873 45.6769 42.1123 45.6769 43.4873V48.4873C45.6769 49.8623 46.8011 50.9873 48.1753 50.9873C49.5494 50.9873 50.6737 49.8623 50.6737 48.4873Z" fill="white"/>
</mask>
<g mask="url(#mask0_2335_10463)">
<rect x="0.703125" y="0.987305" width="59.9617" height="60" fill="#667085"/>
</g>
</svg>
