<svg width="61" height="61" viewBox="0 0 61 61" fill="none" xmlns="http://www.w3.org/2000/svg">
<mask id="mask0_2335_10526" style="mask-type:luminance" maskUnits="userSpaceOnUse" x="8" y="8" width="46" height="46">
<path fill-rule="evenodd" clip-rule="evenodd" d="M9.04264 19.1023L30.3451 30.6923C30.7126 30.8923 31.1676 30.8923 31.5376 30.6923L52.8401 19.1023C53.6976 18.6348 53.6226 17.4398 52.7101 17.0723L31.4101 8.47477C31.1101 8.35477 30.7701 8.35477 30.4701 8.47477L9.17014 17.0723C8.26014 17.4398 8.18514 18.6348 9.04264 19.1023ZM52.712 27.5247L48.137 25.5747L31.5395 34.6047C31.1695 34.8047 30.7145 34.8047 30.3445 34.6047L13.747 25.5747L9.17201 27.5247C8.25951 27.9122 8.18451 29.1772 9.04451 29.6697L30.3445 41.9122C30.7145 42.1247 31.1695 42.1247 31.5395 41.9122L52.8395 29.6697C53.6995 29.1772 53.6245 27.9122 52.712 27.5247ZM48.8195 36.9407L52.712 38.6257C53.6245 39.0207 53.6995 40.3032 52.8395 40.8032L31.5395 53.2232C31.1695 53.4382 30.7145 53.4382 30.3445 53.2232L9.04451 40.8032C8.18451 40.3032 8.25951 39.0207 9.17201 38.6257L13.0645 36.9407L30.3445 46.3432C30.7145 46.5432 31.1695 46.5432 31.5395 46.3432L48.8195 36.9407Z" fill="white"/>
</mask>
<g mask="url(#mask0_2335_10526)">
<rect x="0.945312" y="0.884766" width="60" height="60" fill="#667085"/>
</g>
</svg>
