<svg width="61" height="61" viewBox="0 0 61 61" fill="none" xmlns="http://www.w3.org/2000/svg">
<mask id="mask0_2335_10559" style="mask-type:luminance" maskUnits="userSpaceOnUse" x="10" y="8" width="41" height="46">
<path fill-rule="evenodd" clip-rule="evenodd" d="M18.4382 48.3336C17.0607 48.3336 15.9382 47.2111 15.9382 45.8336C15.9382 44.4561 17.0607 43.3336 18.4382 43.3336H45.9382V48.3336H18.4382ZM48.4414 8.33398H18.4414C14.3064 8.33398 10.9414 11.699 10.9414 15.834V45.834C10.9414 49.969 14.3064 53.334 18.4414 53.334H45.9414H48.4414C49.8214 53.334 50.9414 52.214 50.9414 50.834V48.334V43.334V10.834C50.9414 9.45398 49.8214 8.33398 48.4414 8.33398V8.33398Z" fill="white"/>
</mask>
<g mask="url(#mask0_2335_10559)">
<rect x="0.9375" y="0.833984" width="60" height="60" fill="#667085"/>
</g>
</svg>
