<svg width="61" height="61" viewBox="0 0 61 61" fill="none" xmlns="http://www.w3.org/2000/svg">
<mask id="mask0_2335_10517" style="mask-type:luminance" maskUnits="userSpaceOnUse" x="8" y="8" width="47" height="46">
<path fill-rule="evenodd" clip-rule="evenodd" d="M25.9522 28.3975C31.4672 28.3975 35.9522 23.9125 35.9522 18.3975C35.9522 12.8825 31.4672 8.39746 25.9522 8.39746C20.4372 8.39746 15.9522 12.8825 15.9522 18.3975C15.9522 23.9125 20.4372 28.3975 25.9522 28.3975ZM52.1162 19.6473L53.9487 17.8173C54.9562 16.8073 54.9562 15.1598 53.9487 14.1523C52.9412 13.1448 51.2937 13.1448 50.2862 14.1523L48.4537 15.9848L46.6237 14.1523C45.6137 13.1448 43.9662 13.1448 42.9587 14.1523C41.9537 15.1598 41.9537 16.8073 42.9587 17.8173L44.7912 19.6473L42.9587 21.4773C41.9537 22.4873 41.9537 24.1348 42.9587 25.1423C43.9662 26.1498 45.6137 26.1498 46.6237 25.1423L48.4537 23.3098L50.2862 25.1423C51.2937 26.1498 52.9412 26.1498 53.9487 25.1423C54.9562 24.1348 54.9562 22.4873 53.9487 21.4773L52.1162 19.6473ZM43.457 50.8973C43.457 52.2798 42.3395 53.3973 40.957 53.3973H10.957C9.57453 53.3973 8.45703 52.2798 8.45703 50.8973C8.45703 41.2498 16.3095 33.3973 25.957 33.3973C35.6045 33.3973 43.457 41.2498 43.457 50.8973Z" fill="white"/>
</mask>
<g mask="url(#mask0_2335_10517)">
<rect x="0.960938" y="0.897461" width="60" height="60" fill="#667085"/>
</g>
</svg>
