<svg width="61" height="60" viewBox="0 0 61 60" fill="none" xmlns="http://www.w3.org/2000/svg">
<mask id="mask0_2335_10544" style="mask-type:luminance" maskUnits="userSpaceOnUse" x="12" y="5" width="36" height="50">
<path fill-rule="evenodd" clip-rule="evenodd" d="M40.0226 27.5005C40.0226 33.0155 35.5375 37.5005 30.0226 37.5005C24.5076 37.5005 20.0226 33.0155 20.0226 27.5005V15.0005C20.0226 9.48549 24.5076 5.00049 30.0226 5.00049C35.5375 5.00049 40.0226 9.48549 40.0226 15.0005V27.5005ZM45.0273 24.9999C46.4098 24.9999 47.5273 26.1199 47.5273 27.4999C47.5273 36.2999 40.9948 43.5799 32.5273 44.7999V49.9999H37.7898C39.0223 49.9999 40.0273 51.0049 40.0273 52.2374V52.7624C40.0273 53.9949 39.0223 54.9999 37.7898 54.9999H22.2648C21.0323 54.9999 20.0273 53.9949 20.0273 52.7624V52.2374C20.0273 51.0049 21.0323 49.9999 22.2648 49.9999H27.5273V44.7999C19.0598 43.5799 12.5273 36.2999 12.5273 27.4999C12.5273 26.1199 13.6448 24.9999 15.0273 24.9999C16.4098 24.9999 17.5273 26.1199 17.5273 27.4999C17.5273 34.3924 23.1348 39.9999 30.0273 39.9999C36.9198 39.9999 42.5273 34.3924 42.5273 27.4999C42.5273 26.1199 43.6448 24.9999 45.0273 24.9999Z" fill="white"/>
</mask>
<g mask="url(#mask0_2335_10544)">
<rect x="0.0234375" width="60" height="60" fill="#667085"/>
</g>
</svg>
