<svg width="60" height="61" viewBox="0 0 60 61" fill="none" xmlns="http://www.w3.org/2000/svg">
<mask id="mask0_2335_10472" style="mask-type:luminance" maskUnits="userSpaceOnUse" x="7" y="8" width="46" height="46">
<path fill-rule="evenodd" clip-rule="evenodd" d="M14.0129 8.46191H45.9949C49.5776 8.46191 52.4908 11.5769 52.4908 15.4044V46.5194C52.4908 50.3469 49.5776 53.4619 45.9949 53.4619H42.4972C41.1156 53.4619 39.9988 52.3444 39.9988 50.9619C39.9988 49.5794 41.1156 48.4619 42.4972 48.4619H45.9949C46.8069 48.4619 47.494 47.5719 47.494 46.5194V15.4044C47.494 14.3519 46.8069 13.4619 45.9949 13.4619H14.0129C13.2009 13.4619 12.5163 14.3519 12.5163 15.4044V18.4619C12.5163 19.8444 11.3971 20.9619 10.0179 20.9619C8.63632 20.9619 7.51953 19.8444 7.51953 18.4619V15.4044C7.51953 11.5769 10.4327 8.46191 14.0129 8.46191ZM7.54355 38.887C7.35367 37.5195 8.31056 36.257 9.67718 36.0695C13.2249 35.5845 16.6877 36.747 19.2061 39.2645C22.5465 42.612 23.4534 47.737 21.4572 52.0195C21.0324 52.927 20.133 53.462 19.1911 53.462C18.8363 53.462 18.4766 53.387 18.1368 53.227C16.8876 52.6445 16.3454 51.157 16.9275 49.9045C18.0393 47.522 17.5372 44.6645 15.6733 42.802C14.2692 41.3995 12.3355 40.757 10.3592 41.0195C8.97763 41.217 7.73093 40.2545 7.54355 38.887ZM9.67474 26.1542C8.30811 26.3442 7.35372 27.6067 7.5436 28.9742C7.73348 30.3392 8.99017 31.2967 10.3618 31.1042C15.0863 30.4592 19.7258 32.0042 23.0962 35.3742C26.9837 39.2667 28.4452 44.9717 26.9062 50.2642C26.5215 51.5892 27.2835 52.9767 28.6076 53.3617C28.8425 53.4292 29.0773 53.4617 29.3047 53.4617C30.389 53.4617 31.3859 52.7542 31.7032 51.6592C33.7518 44.6192 31.8056 37.0242 26.6289 31.8392C22.1443 27.3517 15.9757 25.2767 9.67474 26.1542ZM7.51953 48.4624C7.51953 47.0799 8.63632 45.9624 10.0179 45.9624C11.3996 45.9624 12.5163 47.0799 12.5163 48.4624C12.5163 49.8449 11.3996 50.9624 10.0179 50.9624C8.63632 50.9624 7.51953 49.8449 7.51953 48.4624Z" fill="white"/>
</mask>
<g mask="url(#mask0_2335_10472)">
<rect x="0.0234375" y="0.961914" width="59.9617" height="60" fill="#667085"/>
</g>
</svg>
