<svg width="60" height="61" viewBox="0 0 60 61" fill="none" xmlns="http://www.w3.org/2000/svg">
<mask id="mask0_2335_10513" style="mask-type:luminance" maskUnits="userSpaceOnUse" x="4" y="10" width="52" height="41">
<path fill-rule="evenodd" clip-rule="evenodd" d="M30.0077 10.8984C39.1277 10.8984 47.7602 14.3859 54.3202 20.7209C55.3127 21.6784 55.3402 23.2634 54.3827 24.2559C53.8927 24.7634 53.2377 25.0184 52.5852 25.0184C51.9602 25.0184 51.3327 24.7859 50.8477 24.3159C45.2227 18.8884 37.8227 15.8984 30.0077 15.8984C22.1927 15.8984 14.7927 18.8884 9.16773 24.3159C8.18023 25.2784 6.59523 25.2509 5.63273 24.2559C4.67773 23.2634 4.70273 21.6784 5.69773 20.7209C12.2577 14.3859 20.8902 10.8984 30.0077 10.8984ZM30.0084 23.3978C23.9384 23.3978 18.0384 25.9003 13.8209 30.2678C12.8659 31.2628 12.8909 32.8453 13.8859 33.8028C14.8759 34.7628 16.4634 34.7353 17.4209 33.7428C20.6984 30.3453 25.2859 28.3978 30.0084 28.3978C34.7309 28.3978 39.3184 30.3453 42.5959 33.7428C43.0859 34.2503 43.7409 34.5053 44.3959 34.5053C45.0209 34.5053 45.6484 34.2728 46.1309 33.8028C47.1259 32.8453 47.1509 31.2628 46.1959 30.2678C41.9784 25.9003 36.0784 23.3978 30.0084 23.3978ZM21.331 39.4058C23.6735 37.1458 26.756 35.8983 30.0135 35.8983C33.271 35.8983 36.3535 37.1458 38.696 39.4058C39.6885 40.3658 39.716 41.9483 38.7585 42.9408C38.2685 43.4508 37.6135 43.7058 36.9585 43.7058C36.3335 43.7058 35.706 43.4708 35.2235 43.0033C32.411 40.2883 27.616 40.2883 24.8035 43.0033C23.816 43.9633 22.231 43.9358 21.2685 42.9408C20.311 41.9483 20.3385 40.3658 21.331 39.4058ZM27.5071 48.398C27.5071 47.018 28.6246 45.898 30.0071 45.898C31.3896 45.898 32.5071 47.018 32.5071 48.398C32.5071 49.778 31.3896 50.898 30.0071 50.898C28.6246 50.898 27.5071 49.778 27.5071 48.398Z" fill="white"/>
</mask>
<g mask="url(#mask0_2335_10513)">
<rect x="0.0078125" y="0.897461" width="60" height="60" fill="#667085"/>
</g>
</svg>
