<svg width="61" height="61" viewBox="0 0 61 61" fill="none" xmlns="http://www.w3.org/2000/svg">
<mask id="mask0_2335_10540" style="mask-type:luminance" maskUnits="userSpaceOnUse" x="5" y="9" width="51" height="44">
<path fill-rule="evenodd" clip-rule="evenodd" d="M35.9634 38.3593H25.9634C24.5884 38.3593 23.4634 37.2343 23.4634 35.8593C23.4634 34.4843 24.5884 33.3593 25.9634 33.3593H35.9634C37.3384 33.3593 38.4634 34.4843 38.4634 35.8593C38.4634 37.2343 37.3384 38.3593 35.9634 38.3593M49.7148 18.4749H32.1498L25.6523 10.5274C25.1773 9.94736 24.4648 9.60986 23.7173 9.60986H12.2148C8.76984 9.60986 5.96484 12.3374 5.96484 15.6899V46.0299C5.96484 49.3824 8.76984 52.1099 12.2148 52.1099H49.7148C53.1598 52.1099 55.9648 49.3824 55.9648 46.0299V24.5549C55.9648 21.2024 53.1598 18.4749 49.7148 18.4749" fill="white"/>
</mask>
<g mask="url(#mask0_2335_10540)">
<rect x="0.96875" y="0.859375" width="60" height="60" fill="#667085"/>
</g>
</svg>
