<svg width="61" height="60" viewBox="0 0 61 60" fill="none" xmlns="http://www.w3.org/2000/svg">
<mask id="mask0_2335_10453" style="mask-type:luminance" maskUnits="userSpaceOnUse" x="13" y="12" width="36" height="36">
<path fill-rule="evenodd" clip-rule="evenodd" d="M35.7388 13.4326L47.8011 28.4326C48.5481 29.3601 48.5356 30.6851 47.7736 31.6001L35.2816 46.6001C34.7869 47.1926 34.0774 47.5001 33.3603 47.5001C32.7982 47.5001 32.231 47.3101 31.7638 46.9201C30.702 46.0376 30.5596 44.4601 31.444 43.4001L42.6269 29.9726L31.8438 16.5676C30.9793 15.4926 31.1492 13.9176 32.226 13.0526C33.3003 12.1851 34.8718 12.3576 35.7388 13.4326ZM14.7372 13.0528C15.8115 12.1878 17.383 12.3578 18.25 13.4328L30.3123 28.4328C31.0568 29.3603 31.0468 30.6853 30.2848 31.6003L17.7928 46.6003C17.2981 47.1928 16.5885 47.5003 15.8715 47.5003C15.3094 47.5003 14.7422 47.3103 14.275 46.9203C13.2132 46.0378 13.0708 44.4603 13.9552 43.4003L25.1356 29.9728L14.355 16.5678C13.4905 15.4928 13.6629 13.9178 14.7372 13.0528Z" fill="white"/>
</mask>
<g mask="url(#mask0_2335_10453)">
<rect x="0.882812" width="59.9617" height="60" fill="#667085"/>
</g>
</svg>
