<svg width="61" height="61" viewBox="0 0 61 61" fill="none" xmlns="http://www.w3.org/2000/svg">
<mask id="mask0_2335_10511" style="mask-type:luminance" maskUnits="userSpaceOnUse" x="15" y="15" width="31" height="31">
<path fill-rule="evenodd" clip-rule="evenodd" d="M45.9206 18.5317C45.9206 17.1592 44.8106 16.0417 43.4356 16.0342L23.4531 15.9092H23.4381C22.0631 15.9092 20.9481 17.0192 20.9381 18.3942C20.9281 19.7742 22.0406 20.9017 23.4231 20.9092L37.3181 20.9967L16.6706 41.6417C15.6931 42.6192 15.6931 44.2017 16.6706 45.1767C17.1581 45.6667 17.7981 45.9092 18.4381 45.9092C19.0781 45.9092 19.7181 45.6667 20.2056 45.1767L40.9256 24.4567L40.9381 38.4117C40.9381 39.7917 42.0581 40.9092 43.4381 40.9092H43.4406C44.8206 40.9092 45.9381 39.7867 45.9381 38.4067L45.9206 18.5317Z" fill="white"/>
</mask>
<g mask="url(#mask0_2335_10511)">
<rect x="0.9375" y="0.910156" width="60" height="60" fill="#667085"/>
</g>
</svg>
