<svg width="61" height="61" viewBox="0 0 61 61" fill="none" xmlns="http://www.w3.org/2000/svg">
<mask id="mask0_2335_10566" style="mask-type:luminance" maskUnits="userSpaceOnUse" x="13" y="13" width="36" height="38">
<path fill-rule="evenodd" clip-rule="evenodd" d="M45.9457 13.3218H33.4457C29.3107 13.3218 25.9457 16.6868 25.9457 20.8218V43.1193L17.5082 36.3693C16.4307 35.5093 14.8532 35.6818 13.9932 36.7593C13.1307 37.8393 13.3057 39.4118 14.3832 40.2743L26.8832 50.2743C27.3407 50.6393 27.8932 50.8218 28.4457 50.8218C28.9982 50.8218 29.5507 50.6393 30.0082 50.2743L42.5082 40.2743C43.5857 39.4118 43.7607 37.8393 42.8982 36.7593C42.0382 35.6818 40.4632 35.5068 39.3832 36.3693L30.9457 43.1193V20.8218C30.9457 19.4443 32.0682 18.3218 33.4457 18.3218H45.9457C47.3257 18.3218 48.4457 17.2018 48.4457 15.8218C48.4457 14.4418 47.3257 13.3218 45.9457 13.3218" fill="white"/>
</mask>
<g mask="url(#mask0_2335_10566)">
<rect x="0.945312" y="0.821289" width="60" height="60" fill="#667085"/>
</g>
</svg>
