<svg width="61" height="61" viewBox="0 0 61 61" fill="none" xmlns="http://www.w3.org/2000/svg">
<mask id="mask0_2335_10491" style="mask-type:luminance" maskUnits="userSpaceOnUse" x="5" y="15" width="51" height="31">
<path fill-rule="evenodd" clip-rule="evenodd" d="M11.2783 15.936H40.4458C43.4333 15.936 45.8633 18.6585 45.8633 22.0085V39.8635C45.8633 43.2135 43.4333 45.936 40.4458 45.936H11.2783C8.29078 45.936 5.86328 43.2135 5.86328 39.8635V22.0085C5.86328 18.6585 8.29078 15.936 11.2783 15.936ZM50.8638 25.9361C50.8638 24.5561 51.9838 23.4361 53.3638 23.4361C54.7438 23.4361 55.8638 24.5561 55.8638 25.9361V35.9361C55.8638 37.3161 54.7438 38.4361 53.3638 38.4361C51.9838 38.4361 50.8638 37.3161 50.8638 35.9361V25.9361Z" fill="white"/>
</mask>
<g mask="url(#mask0_2335_10491)">
<rect x="0.867188" y="0.935547" width="60" height="60" fill="#667085"/>
</g>
</svg>
