<svg width="93" height="85" viewBox="0 0 93 85" fill="none" xmlns="http://www.w3.org/2000/svg">
<g clip-path="url(#clip0_2123_10343)">
<rect width="93" height="85" rx="8" fill="#F2F4F7"/>
<path d="M42 36.6668C42 36.1145 42.4477 35.6668 43 35.6668H52.3333C52.8856 35.6668 53.3333 36.1145 53.3333 36.6668C53.3333 37.2191 52.8856 37.6668 52.3333 37.6668H43C42.4477 37.6668 42 37.2191 42 36.6668Z" fill="#98A2B3"/>
<path d="M43 39.6668C42.4477 39.6668 42 40.1145 42 40.6668C42 41.2191 42.4477 41.6668 43 41.6668H49.6667C50.219 41.6668 50.6667 41.2191 50.6667 40.6668C50.6667 40.1145 50.219 39.6668 49.6667 39.6668H43Z" fill="#98A2B3"/>
<path fill-rule="evenodd" clip-rule="evenodd" d="M42.3333 30.3335C38.8355 30.3335 36 33.169 36 36.6668V50.0002C36 52.7616 38.2386 55.0002 41 55.0002H55.6667C56.9553 55.0002 58 53.9555 58 52.6668V32.6668C58 31.3782 56.9553 30.3335 55.6667 30.3335H42.3333ZM56 45.0002V32.6668C56 32.4827 55.8508 32.3335 55.6667 32.3335H42.3333C39.9401 32.3335 38 34.2736 38 36.6668V45.9998C38.8357 45.3721 39.8744 45.0002 41 45.0002H56ZM56 47.0002H41C39.3431 47.0002 38 48.3433 38 50.0002C38 51.657 39.3431 53.0002 41 53.0002H55.6667C55.8508 53.0002 56 52.8509 56 52.6668V47.0002Z" fill="#98A2B3"/>
</g>
<defs>
<clipPath id="clip0_2123_10343">
<rect width="93" height="85" fill="white"/>
</clipPath>
</defs>
</svg>
