<svg width="24" height="24" viewBox="0 0 24 24" fill="none" xmlns="http://www.w3.org/2000/svg">
<mask id="mask0_2021_35621" style="mask-type:luminance" maskUnits="userSpaceOnUse" x="2" y="2" width="20" height="20">
<path fill-rule="evenodd" clip-rule="evenodd" d="M12.9349 11.9777H21.0839C21.6259 11.9777 22.0499 12.4497 21.9959 12.9887C21.4519 18.4147 16.5799 22.5667 10.8819 21.9367C6.29694 21.4307 2.56994 17.7037 2.06294 13.1187C1.43494 7.42065 5.58494 2.54765 11.0119 2.00465C11.5519 1.95065 12.0229 2.37365 12.0229 2.91565V11.0667C12.0229 11.5697 12.4309 11.9777 12.9349 11.9777ZM21.1674 10.3332H14.5004C14.0404 10.3332 13.6674 9.96115 13.6674 9.50015V2.83315C13.6674 2.37315 14.0404 2.00015 14.5004 2.00015C18.6354 2.00015 22.0004 5.36415 22.0004 9.50015C22.0004 9.96115 21.6274 10.3332 21.1674 10.3332Z" fill="white"/>
</mask>
<g mask="url(#mask0_2021_35621)">
<rect width="24" height="24" fill="#999999"/>
</g>
</svg>
