<svg width="31" height="31" viewBox="0 0 31 31" fill="none" xmlns="http://www.w3.org/2000/svg">
<mask id="mask0_2057_42373" style="mask-type:luminance" maskUnits="userSpaceOnUse" x="3" y="3" width="26" height="26">
<path fill-rule="evenodd" clip-rule="evenodd" d="M15.8592 14.1C14.8261 14.1 13.9854 14.9413 13.9854 15.975C13.9854 17.0088 14.8261 17.85 15.8592 17.85C16.8923 17.85 17.733 17.0088 17.733 15.975C17.733 14.9413 16.8923 14.1 15.8592 14.1M15.8592 20.3504C13.4482 20.3504 11.487 18.3879 11.487 15.9754C11.487 13.5629 13.4482 11.6004 15.8592 11.6004C18.2702 11.6004 20.2314 13.5629 20.2314 15.9754C20.2314 18.3879 18.2702 20.3504 15.8592 20.3504M26.2488 12.6938H24.8947C24.711 12.6938 24.5861 12.5476 24.5099 12.3638C24.4525 12.2251 24.4375 12.0326 24.5686 11.9013L25.5305 10.9438C25.9278 10.5476 26.1476 10.0188 26.1476 9.45885C26.1476 8.89635 25.9303 8.36885 25.533 7.9726L23.8578 6.29635C23.0409 5.47635 21.708 5.47885 20.8885 6.29635L19.9266 7.2601C19.7967 7.39135 19.6043 7.3751 19.4232 7.3001C19.2858 7.24385 19.1384 7.1176 19.1384 6.93385V5.5701C19.1384 4.4151 18.2002 3.4751 17.0447 3.4751H14.6812C13.5219 3.4751 12.58 4.41885 12.58 5.57885V6.93385C12.58 7.1176 12.4339 7.2426 12.2503 7.31885C12.1116 7.3776 11.918 7.3926 11.7881 7.2601L10.8324 6.29885C10.4352 5.9001 9.90801 5.68135 9.34711 5.68135H9.34462C8.78372 5.68135 8.25656 5.89885 7.86056 6.29635L6.18663 7.97135C5.36841 8.78885 5.36841 10.1213 6.18663 10.9426L7.14977 11.9051C7.27969 12.0351 7.2647 12.2288 7.18974 12.4088C7.13353 12.5463 7.00736 12.6938 6.82373 12.6938H5.46085C4.30659 12.6938 3.36719 13.6326 3.36719 14.7888V17.1538C3.36719 18.3138 4.31033 19.2563 5.46959 19.2563H6.82373C7.00736 19.2563 7.13228 19.4026 7.20848 19.5863C7.26594 19.7251 7.28094 19.9176 7.14977 20.0488L6.18913 21.0051C5.79064 21.4026 5.57203 21.9301 5.57203 22.4913C5.57078 23.0538 5.78939 23.5813 6.18663 23.9788L7.86056 25.6538C8.67754 26.4738 10.0104 26.4713 10.8299 25.6538L11.7918 24.6901C11.923 24.5613 12.1153 24.5764 12.2952 24.6501C12.4326 24.7064 12.58 24.8326 12.58 25.0163V26.3801C12.58 27.5351 13.5182 28.4751 14.6737 28.4751H17.0372C18.1965 28.4751 19.1384 27.5313 19.1384 26.3713V25.0163C19.1384 24.8326 19.2845 24.7076 19.4681 24.6313C19.6056 24.5738 19.7992 24.5588 19.9303 24.6901L20.886 25.6513C21.2832 26.0501 21.8104 26.2689 22.3713 26.2689H22.3738C22.9347 26.2689 23.4618 26.0513 23.8578 25.6538L25.5318 23.9788C26.35 23.1613 26.35 21.8288 25.5318 21.0076L24.5686 20.0451C24.4387 19.9151 24.4537 19.7213 24.5124 19.5826C24.5124 19.5801 24.5287 19.5426 24.5287 19.5413C24.5849 19.4038 24.711 19.2563 24.8947 19.2563H26.2576C27.4118 19.2563 28.3512 18.3176 28.3512 17.1613V14.7963C28.3512 13.6363 27.4081 12.6938 26.2488 12.6938" fill="white"/>
</mask>
<g mask="url(#mask0_2057_42373)">
<rect x="0.871094" y="0.974609" width="29.9808" height="30" fill="#667085"/>
</g>
</svg>
