<svg width="61" height="61" viewBox="0 0 61 61" fill="none" xmlns="http://www.w3.org/2000/svg">
<mask id="mask0_2335_10515" style="mask-type:luminance" maskUnits="userSpaceOnUse" x="18" y="5" width="26" height="51">
<path fill-rule="evenodd" clip-rule="evenodd" d="M33.4838 24.7484V13.3984C33.4838 12.7309 33.2263 12.1159 32.7663 11.6634C32.2688 11.1534 31.6513 10.8984 30.9838 10.8984C29.6038 10.8984 28.4838 12.0209 28.4838 13.3984V24.7484H33.4838ZM30.9805 55.898C24.088 55.898 18.4805 50.2905 18.4805 43.398C18.4805 39.448 20.3655 35.7405 23.4805 33.4055V13.3979C23.4805 9.26295 26.8455 5.89795 30.9805 5.89795C33.0105 5.89795 34.8955 6.69045 36.298 8.12795C37.6905 9.48295 38.4805 11.3704 38.4805 13.3979V33.4055C41.5955 35.7405 43.4805 39.448 43.4805 43.398C43.4805 50.2905 37.873 55.898 30.9805 55.898V55.898Z" fill="white"/>
</mask>
<g mask="url(#mask0_2335_10515)">
<rect x="0.984375" y="0.897461" width="60" height="60" fill="#667085"/>
</g>
</svg>
