<svg width="128" height="128" viewBox="0 0 128 128" fill="none" xmlns="http://www.w3.org/2000/svg">
<path fill-rule="evenodd" clip-rule="evenodd" d="M85.4384 56.9526L71.0651 42.5792L81.4544 32.1846L95.8224 46.5526L85.4384 56.9526ZM48.4216 93.9984L32.5443 95.4437L33.9523 79.6784L63.9096 49.721L78.2883 64.0997L48.4216 93.9984ZM103.49 39.1339L103.485 39.1286L88.8821 24.5259C84.9301 20.5846 78.1407 20.3979 74.3967 24.1579L26.418 72.1366C24.6794 73.8699 23.602 76.1739 23.378 78.6113L21.3567 100.851C21.218 102.425 21.778 103.982 22.898 105.102C23.906 106.11 25.266 106.665 26.6687 106.665C26.834 106.665 26.994 106.659 27.154 106.643L49.3941 104.622C51.8367 104.398 54.1354 103.326 55.8687 101.593L103.853 53.6086C107.735 49.7153 107.57 43.2193 103.49 39.1339V39.1339Z" fill="#231F20"/>
<mask id="mask0_2180_10463" style="mask-type:luminance" maskUnits="userSpaceOnUse" x="21" y="21" width="86" height="86">
<path fill-rule="evenodd" clip-rule="evenodd" d="M85.4384 56.9526L71.0651 42.5792L81.4544 32.1846L95.8224 46.5526L85.4384 56.9526ZM48.4216 93.9984L32.5443 95.4437L33.9523 79.6784L63.9096 49.721L78.2883 64.0997L48.4216 93.9984ZM103.49 39.1339L103.485 39.1286L88.8821 24.5259C84.9301 20.5846 78.1407 20.3979 74.3967 24.1579L26.418 72.1366C24.6794 73.8699 23.602 76.1739 23.378 78.6113L21.3567 100.851C21.218 102.425 21.778 103.982 22.898 105.102C23.906 106.11 25.266 106.665 26.6687 106.665C26.834 106.665 26.994 106.659 27.154 106.643L49.3941 104.622C51.8367 104.398 54.1354 103.326 55.8687 101.593L103.853 53.6086C107.735 49.7153 107.57 43.2193 103.49 39.1339V39.1339Z" fill="white"/>
</mask>
<g mask="url(#mask0_2180_10463)">
<rect width="128" height="128" fill="#667085"/>
</g>
</svg>
