<svg width="24" height="24" viewBox="0 0 24 24" fill="none" xmlns="http://www.w3.org/2000/svg">
<path fill-rule="evenodd" clip-rule="evenodd" d="M17.7598 15.5402L11.9998 18.8472L6.23984 15.5402L7.93384 14.8192L11.5018 16.8672C11.6558 16.9562 11.8278 17.0002 11.9998 17.0002C12.1718 17.0002 12.3428 16.9562 12.4978 16.8672L16.0658 14.8182L17.7598 15.5402ZM11.5018 12.8673C11.6558 12.9563 11.8278 13.0003 11.9998 13.0003C12.1718 13.0003 12.3428 12.9563 12.4978 12.8673L16.0658 10.8183L17.7598 11.5403L11.9998 14.8472L6.23984 11.5403L7.93384 10.8183L11.5018 12.8673ZM11.9998 5.08725L17.7598 7.54025L11.9998 10.8473L6.23984 7.54025L11.9998 5.08725ZM20.9978 11.3483C20.9748 10.9693 20.7398 10.6362 20.3908 10.4872L18.2388 9.57125L20.4978 8.27425C20.8268 8.08625 21.0198 7.72725 20.9978 7.34825C20.9748 6.97025 20.7398 6.63625 20.3908 6.48725L12.3908 3.08025C12.1408 2.97325 11.8578 2.97325 11.6078 3.08025L3.60784 6.48725C3.25884 6.63625 3.02384 6.97025 3.00184 7.34825C2.97884 7.72725 3.17284 8.08625 3.50184 8.27425L5.75984 9.57125L3.60784 10.4872C3.25884 10.6362 3.02384 10.9693 3.00184 11.3483C2.97884 11.7273 3.17284 12.0863 3.50184 12.2743L5.75984 13.5712L3.60784 14.4873C3.25884 14.6363 3.02384 14.9693 3.00184 15.3483C2.97884 15.7273 3.17284 16.0863 3.50184 16.2743L11.5018 20.8673C11.6558 20.9563 11.8278 21.0002 11.9998 21.0002C12.1718 21.0002 12.3428 20.9563 12.4978 20.8673L20.4978 16.2743C20.8268 16.0863 21.0198 15.7273 20.9978 15.3483C20.9748 14.9703 20.7398 14.6363 20.3918 14.4873L18.2398 13.5702L20.4978 12.2743C20.8268 12.0863 21.0198 11.7273 20.9978 11.3483V11.3483Z" fill="#231F20"/>
<mask id="mask0_2171_10353" style="mask-type:luminance" maskUnits="userSpaceOnUse" x="3" y="3" width="18" height="18">
<path fill-rule="evenodd" clip-rule="evenodd" d="M17.7598 15.5402L11.9998 18.8472L6.23984 15.5402L7.93384 14.8192L11.5018 16.8672C11.6558 16.9562 11.8278 17.0002 11.9998 17.0002C12.1718 17.0002 12.3428 16.9562 12.4978 16.8672L16.0658 14.8182L17.7598 15.5402ZM11.5018 12.8673C11.6558 12.9563 11.8278 13.0003 11.9998 13.0003C12.1718 13.0003 12.3428 12.9563 12.4978 12.8673L16.0658 10.8183L17.7598 11.5403L11.9998 14.8472L6.23984 11.5403L7.93384 10.8183L11.5018 12.8673ZM11.9998 5.08725L17.7598 7.54025L11.9998 10.8473L6.23984 7.54025L11.9998 5.08725ZM20.9978 11.3483C20.9748 10.9693 20.7398 10.6362 20.3908 10.4872L18.2388 9.57125L20.4978 8.27425C20.8268 8.08625 21.0198 7.72725 20.9978 7.34825C20.9748 6.97025 20.7398 6.63625 20.3908 6.48725L12.3908 3.08025C12.1408 2.97325 11.8578 2.97325 11.6078 3.08025L3.60784 6.48725C3.25884 6.63625 3.02384 6.97025 3.00184 7.34825C2.97884 7.72725 3.17284 8.08625 3.50184 8.27425L5.75984 9.57125L3.60784 10.4872C3.25884 10.6362 3.02384 10.9693 3.00184 11.3483C2.97884 11.7273 3.17284 12.0863 3.50184 12.2743L5.75984 13.5712L3.60784 14.4873C3.25884 14.6363 3.02384 14.9693 3.00184 15.3483C2.97884 15.7273 3.17284 16.0863 3.50184 16.2743L11.5018 20.8673C11.6558 20.9563 11.8278 21.0002 11.9998 21.0002C12.1718 21.0002 12.3428 20.9563 12.4978 20.8673L20.4978 16.2743C20.8268 16.0863 21.0198 15.7273 20.9978 15.3483C20.9748 14.9703 20.7398 14.6363 20.3918 14.4873L18.2398 13.5702L20.4978 12.2743C20.8268 12.0863 21.0198 11.7273 20.9978 11.3483V11.3483Z" fill="white"/>
</mask>
<g mask="url(#mask0_2171_10353)">
<rect width="24" height="24" fill="#0D1C2E"/>
</g>
</svg>
