<svg width="61" height="61" viewBox="0 0 61 61" fill="none" xmlns="http://www.w3.org/2000/svg">
<mask id="mask0_2335_10458" style="mask-type:luminance" maskUnits="userSpaceOnUse" x="10" y="3" width="41" height="56">
<path fill-rule="evenodd" clip-rule="evenodd" d="M28.6799 58.4873C28.3951 58.4873 28.1077 58.4373 27.8254 58.3348C26.7461 57.9423 26.0715 56.8623 26.1965 55.7198L28.1152 37.9873H13.4121C12.4902 37.9873 11.6433 37.4798 11.2086 36.6648C10.7738 35.8498 10.8238 34.8648 11.336 34.0973L31.0434 4.59727C31.683 3.63977 32.8922 3.24227 33.974 3.63977C35.0558 4.03227 35.7279 5.11227 35.603 6.25477L33.6842 23.9873H48.3898C49.3117 23.9873 50.1586 24.4948 50.5934 25.3098C51.0256 26.1248 50.9781 27.1098 50.4659 27.8773L30.7561 57.3773C30.2839 58.0873 29.4944 58.4873 28.6799 58.4873" fill="white"/>
</mask>
<g mask="url(#mask0_2335_10458)">
<rect x="0.921875" y="0.987305" width="59.9617" height="60" fill="#667085"/>
</g>
</svg>
