<svg width="61" height="61" viewBox="0 0 61 61" fill="none" xmlns="http://www.w3.org/2000/svg">
<mask id="mask0_2335_10473" style="mask-type:luminance" maskUnits="userSpaceOnUse" x="5" y="5" width="51" height="51">
<path fill-rule="evenodd" clip-rule="evenodd" d="M26.2993 40.187L19.1489 32.687C19.0415 32.5745 18.989 32.4345 18.9066 32.3095C18.8166 32.1745 18.7092 32.0545 18.6467 31.9045C18.5243 31.602 18.4569 31.282 18.4569 30.962C18.4569 30.6345 18.5243 30.3095 18.6492 30.0045C18.7767 29.6995 18.959 29.422 19.1914 29.192L26.6841 21.6945C27.661 20.717 29.2425 20.717 30.2168 21.6945C31.1937 22.6695 31.1937 24.252 30.2168 25.2295L26.9864 28.462H40.9425C42.3241 28.462 43.4409 29.5795 43.4409 30.962C43.4409 32.342 42.3241 33.462 40.9425 33.462H26.794L29.9145 36.7345C30.8664 37.7345 30.8314 39.3145 29.8321 40.2695C28.8327 41.2245 27.2512 41.1845 26.2993 40.187M55.9329 30.9624C55.9329 17.1749 44.7251 5.9624 30.9489 5.9624C17.1727 5.9624 5.96484 17.1749 5.96484 30.9624C5.96484 44.7474 17.1727 55.9624 30.9489 55.9624C44.7251 55.9624 55.9329 44.7474 55.9329 30.9624" fill="white"/>
</mask>
<g mask="url(#mask0_2335_10473)">
<rect x="0.96875" y="0.961914" width="59.9617" height="60" fill="#667085"/>
</g>
</svg>
