<svg width="61" height="61" viewBox="0 0 61 61" fill="none" xmlns="http://www.w3.org/2000/svg">
<mask id="mask0_2335_10499" style="mask-type:luminance" maskUnits="userSpaceOnUse" x="5" y="5" width="51" height="51">
<path fill-rule="evenodd" clip-rule="evenodd" d="M25.9774 11.7428C25.9774 11.3553 26.5124 10.9228 27.2274 10.9228H34.7275C35.4425 10.9228 35.9775 11.3553 35.9775 11.7428V15.9228H25.9774V11.7428ZM53.4805 15.9224H50.9805H40.9805V11.7424C40.9805 8.53236 38.178 5.92236 34.7305 5.92236H27.2305C23.783 5.92236 20.9805 8.53236 20.9805 11.7424V15.9224H10.9805H8.48047C7.10547 15.9224 5.98047 17.0499 5.98047 18.4224C5.98047 19.7974 7.10547 20.9224 8.48047 20.9224H10.9805V48.4224C10.9805 52.5599 14.3455 55.9224 18.4805 55.9224H43.4805C47.6155 55.9224 50.9805 52.5599 50.9805 48.4224V20.9224H53.4805C54.8555 20.9224 55.9805 19.7974 55.9805 18.4224C55.9805 17.0499 54.8555 15.9224 53.4805 15.9224V15.9224Z" fill="white"/>
</mask>
<g mask="url(#mask0_2335_10499)">
<rect x="0.984375" y="0.922852" width="60" height="60" fill="#667085"/>
</g>
</svg>
