<svg width="60" height="61" viewBox="0 0 60 61" fill="none" xmlns="http://www.w3.org/2000/svg">
<mask id="mask0_2335_10521" style="mask-type:luminance" maskUnits="userSpaceOnUse" x="4" y="8" width="52" height="46">
<path fill-rule="evenodd" clip-rule="evenodd" d="M31.1013 28.4404L26.3713 23.7104L20.2163 17.5529L16.3388 13.6779L11.7788 9.11789C10.8013 8.14039 9.21882 8.14039 8.24132 9.11789C7.26632 10.0929 7.26632 11.6754 8.24132 12.6529L11.6813 16.0929L15.3338 19.7429L20.9188 25.3279L24.7838 29.1929L31.6313 36.0404L38.6138 43.0229L48.2413 52.6529C48.7313 53.1404 49.3713 53.3854 50.0088 53.3854C50.6488 53.3854 51.2888 53.1404 51.7788 52.6529C52.7538 51.6754 52.7538 50.0929 51.7788 49.1179L31.1013 28.4404ZM30.0071 45.884C28.6246 45.884 27.5071 47.004 27.5071 48.384C27.5071 49.764 28.6246 50.884 30.0071 50.884C31.3896 50.884 32.5071 49.764 32.5071 48.384C32.5071 47.004 31.3896 45.884 30.0071 45.884ZM30.0065 10.8844C39.1265 10.8844 47.759 14.3719 54.319 20.7069C55.3115 21.6644 55.339 23.2494 54.3815 24.2419C53.8915 24.7494 53.2365 25.0044 52.584 25.0044C51.959 25.0044 51.3315 24.7719 50.8465 24.3019C45.2215 18.8744 37.8215 15.8844 30.0065 15.8844C27.599 15.8844 25.2365 16.2019 22.9465 16.7519L18.909 12.7144C22.449 11.5344 26.179 10.8844 30.0065 10.8844ZM9.56898 17.5159C8.22148 18.4909 6.91398 19.5334 5.69648 20.7059C4.70398 21.6659 4.67648 23.2484 5.63398 24.2409C6.59398 25.2359 8.18148 25.2634 9.16898 24.3034C10.409 23.1059 11.749 22.0484 13.149 21.0934L9.56898 17.5159ZM44.4003 34.4912C43.7453 34.4912 43.0903 34.2362 42.6003 33.7287C40.6203 31.6762 38.1578 30.1637 35.4778 29.2812L29.6053 23.4062C29.668 23.4051 29.7306 23.4001 29.7936 23.3952L29.7936 23.3952H29.7936H29.7936C29.8662 23.3895 29.9392 23.3837 30.0128 23.3837C36.0828 23.3837 41.9828 25.8887 46.1978 30.2537C47.1553 31.2487 47.1303 32.8312 46.1353 33.7887C45.6528 34.2587 45.0253 34.4912 44.4003 34.4912ZM18.5871 26.5348C16.8521 27.5548 15.2346 28.7898 13.8221 30.2548C12.8646 31.2473 12.8921 32.8323 13.8846 33.7898C14.8746 34.7498 16.4596 34.7223 17.4196 33.7273C18.8246 32.2723 20.4796 31.1048 22.2721 30.2198L18.5871 26.5348ZM21.2685 42.9273C20.311 41.9348 20.3385 40.3523 21.331 39.3923C23.211 37.5748 25.5785 36.4523 28.1235 36.0648L34.416 42.3598C31.561 40.3223 27.366 40.5148 24.8035 42.9873C23.8135 43.9498 22.2285 43.9223 21.2685 42.9273Z" fill="white"/>
</mask>
<g mask="url(#mask0_2335_10521)">
<rect x="0.0078125" y="0.884766" width="60" height="60" fill="#667085"/>
</g>
</svg>
