<svg width="60" height="61" viewBox="0 0 60 61" fill="none" xmlns="http://www.w3.org/2000/svg">
<mask id="mask0_2335_10529" style="mask-type:luminance" maskUnits="userSpaceOnUse" x="5" y="5" width="50" height="51">
<path fill-rule="evenodd" clip-rule="evenodd" d="M37.5069 45.4677L32.867 31.5502L46.7869 17.6277L37.5069 45.4677ZM43.2474 14.0924L29.3274 28.0124L15.4074 23.3724L43.2474 14.0924ZM54.9789 8.24238C54.9664 8.00988 54.9239 7.78488 54.8464 7.56738C54.8214 7.48988 54.7939 7.41488 54.7589 7.33988C54.6389 7.07238 54.4864 6.81988 54.2714 6.60488C54.0564 6.38988 53.8039 6.23738 53.5339 6.11738C53.4614 6.08238 53.3889 6.05488 53.3114 6.02988C53.0889 5.95238 52.8614 5.90738 52.6239 5.89488C52.5689 5.89238 52.5189 5.87988 52.4614 5.87988C52.2114 5.88488 51.9589 5.91988 51.7139 5.99988L6.71391 20.9999C5.69141 21.3424 5.00391 22.2949 5.00391 23.3724C5.00391 24.4499 5.69141 25.4049 6.71391 25.7449L28.0264 32.8499L35.1339 54.1649C35.4739 55.1849 36.4264 55.8724 37.5039 55.8724C38.5814 55.8724 39.5339 55.1849 39.8739 54.1649L54.8739 9.16488C54.9539 8.91738 54.9914 8.66738 54.9939 8.41738C54.9964 8.35738 54.9814 8.30238 54.9789 8.24238V8.24238Z" fill="white"/>
</mask>
<g mask="url(#mask0_2335_10529)">
<rect x="0.0078125" y="0.87207" width="60" height="60" fill="#667085"/>
</g>
</svg>
