<svg width="61" height="61" viewBox="0 0 61 61" fill="none" xmlns="http://www.w3.org/2000/svg">
<path d="M26.8411 24.8581C29.5454 24.5558 32.3452 24.5558 35.0495 24.8581C35.5896 24.9184 36.0118 25.347 36.0715 25.8576C36.3944 28.6183 36.3944 31.4071 36.0715 34.1678C36.0118 34.6784 35.5896 35.107 35.0495 35.1673C32.3452 35.4696 29.5454 35.4696 26.8411 35.1673C26.301 35.107 25.8788 34.6784 25.819 34.1678C25.4962 31.4071 25.4962 28.6183 25.819 25.8576C25.8788 25.347 26.301 24.9184 26.8411 24.8581Z" fill="#667085"/>
<path fill-rule="evenodd" clip-rule="evenodd" d="M38.4453 5.6377C39.4808 5.6377 40.3203 6.47716 40.3203 7.5127V14.829C43.2287 15.4057 45.544 17.7034 46.0907 20.6377H53.4453C54.4808 20.6377 55.3203 21.4772 55.3203 22.5127C55.3203 23.5482 54.4808 24.3877 53.4453 24.3877H46.4752C46.5672 25.6364 46.6285 26.8868 46.6592 28.1377H50.9453C51.9808 28.1377 52.8203 28.9772 52.8203 30.0127C52.8203 31.0482 51.9808 31.8877 50.9453 31.8877H46.6592C46.6285 33.1386 46.5672 34.389 46.4752 35.6377H53.4453C54.4808 35.6377 55.3203 36.4772 55.3203 37.5127C55.3203 38.5482 54.4808 39.3877 53.4453 39.3877H46.0907C45.544 42.322 43.2287 44.6197 40.3203 45.1964V52.5127C40.3203 53.5482 39.4808 54.3877 38.4453 54.3877C37.4098 54.3877 36.5703 53.5482 36.5703 52.5127V45.5771C35.3247 45.6653 34.0735 45.724 32.8203 45.7534V50.0127C32.8203 51.0482 31.9808 51.8877 30.9453 51.8877C29.9098 51.8877 29.0703 51.0482 29.0703 50.0127V45.7534C27.8172 45.724 26.5659 45.6653 25.3203 45.5771V52.5127C25.3203 53.5482 24.4808 54.3877 23.4453 54.3877C22.4098 54.3877 21.5703 53.5482 21.5703 52.5127V45.1964C18.6619 44.6197 16.3467 42.322 15.8 39.3877H8.44531C7.40978 39.3877 6.57031 38.5482 6.57031 37.5127C6.57031 36.4772 7.40978 35.6377 8.44531 35.6377H15.4155C15.3235 34.389 15.2621 33.1386 15.2315 31.8877H10.9453C9.90978 31.8877 9.07031 31.0482 9.07031 30.0127C9.07031 28.9772 9.90978 28.1377 10.9453 28.1377H15.2315C15.2621 26.8868 15.3235 25.6364 15.4155 24.3877H8.44531C7.40978 24.3877 6.57031 23.5482 6.57031 22.5127C6.57031 21.4772 7.40978 20.6377 8.44531 20.6377H15.8C16.3467 17.7034 18.6619 15.4057 21.5703 14.829V7.5127C21.5703 6.47716 22.4098 5.6377 23.4453 5.6377C24.4808 5.6377 25.3203 6.47716 25.3203 7.5127V14.4483C26.5659 14.3601 27.8172 14.3014 29.0703 14.272V10.0127C29.0703 8.97716 29.9098 8.1377 30.9453 8.1377C31.9808 8.1377 32.8203 8.97716 32.8203 10.0127V14.272C34.0735 14.3014 35.3247 14.3601 36.5703 14.4483V7.5127C36.5703 6.47716 37.4098 5.6377 38.4453 5.6377ZM35.466 21.1313C32.4849 20.7981 29.4057 20.7981 26.4246 21.1313C24.1796 21.3822 22.3603 23.1492 22.0944 25.422C21.7377 28.4721 21.7377 31.5533 22.0944 34.6034C22.3603 36.8762 24.1796 38.6432 26.4246 38.8941C29.4057 39.2273 32.4849 39.2273 35.466 38.8941C37.711 38.6432 39.5303 36.8762 39.7962 34.6034C40.1529 31.5533 40.1529 28.4721 39.7962 25.422C39.5303 23.1492 37.711 21.3822 35.466 21.1313Z" fill="#667085"/>
</svg>
