<svg width="48" height="48" viewBox="0 0 48 48" fill="none" xmlns="http://www.w3.org/2000/svg">
<path fill-rule="evenodd" clip-rule="evenodd" d="M24 26.9996C22.346 26.9996 21 25.6536 21 23.9996C21 23.9734 21.006 23.9478 21.012 23.9222L21.0121 23.9221C21.0175 23.8988 21.023 23.8754 21.024 23.8516L24.148 26.9756C24.1242 26.9765 24.1008 26.982 24.0774 26.9875C24.0518 26.9935 24.0262 26.9996 24 26.9996ZM9.4145 6.5865C8.6325 5.8045 7.3685 5.8045 6.5865 6.5865C5.8045 7.3685 5.8045 8.6325 6.5865 9.4145L17.8465 20.6745C17.2945 21.6925 17.0005 22.8225 17.0005 24.0005C17.0005 27.8605 20.1405 31.0005 24.0005 31.0005C25.1785 31.0005 26.3085 30.7065 27.3265 30.1545L38.5865 41.4145C38.9765 41.8045 39.4885 42.0005 40.0005 42.0005C40.5125 42.0005 41.0245 41.8045 41.4145 41.4145C42.1965 40.6325 42.1965 39.3685 41.4145 38.5865L9.4145 6.5865ZM24.4395 33.9961C15.8295 34.1961 10.2095 26.8301 8.3455 23.9921C9.2595 22.5641 10.7915 20.4721 12.9115 18.5701L10.0895 15.7461C7.0455 18.5241 5.0935 21.5601 4.2655 23.0061C3.9115 23.6221 3.9115 24.3801 4.2655 24.9961C5.5235 27.1901 12.3235 38.0001 24.0495 38.0001C24.2135 38.0001 24.3775 37.9981 24.5415 37.9941C26.9095 37.9341 29.0535 37.4221 30.9955 36.6541L27.8355 33.4941C26.7655 33.7781 25.6395 33.9661 24.4395 33.9961ZM23.456 10.0072C35.406 9.63324 42.456 20.7812 43.732 23.0052C44.084 23.6212 44.084 24.3792 43.732 24.9952C42.902 26.4412 40.95 29.4772 37.906 32.2552L35.084 29.4312C37.204 27.5292 38.738 25.4372 39.65 24.0092C37.786 21.1712 32.14 13.7892 23.558 14.0052C22.358 14.0352 21.232 14.2232 20.16 14.5072L17 11.3472C18.944 10.5792 21.086 10.0672 23.456 10.0072Z" fill="#231F20"/>
<mask id="mask0_2021_14815" style="mask-type:luminance" maskUnits="userSpaceOnUse" x="4" y="6" width="40" height="37">
<path fill-rule="evenodd" clip-rule="evenodd" d="M24 26.9996C22.346 26.9996 21 25.6536 21 23.9996C21 23.9734 21.006 23.9478 21.012 23.9222L21.0121 23.9221C21.0175 23.8988 21.023 23.8754 21.024 23.8516L24.148 26.9756C24.1242 26.9765 24.1008 26.982 24.0774 26.9875C24.0518 26.9935 24.0262 26.9996 24 26.9996ZM9.4145 6.5865C8.6325 5.8045 7.3685 5.8045 6.5865 6.5865C5.8045 7.3685 5.8045 8.6325 6.5865 9.4145L17.8465 20.6745C17.2945 21.6925 17.0005 22.8225 17.0005 24.0005C17.0005 27.8605 20.1405 31.0005 24.0005 31.0005C25.1785 31.0005 26.3085 30.7065 27.3265 30.1545L38.5865 41.4145C38.9765 41.8045 39.4885 42.0005 40.0005 42.0005C40.5125 42.0005 41.0245 41.8045 41.4145 41.4145C42.1965 40.6325 42.1965 39.3685 41.4145 38.5865L9.4145 6.5865ZM24.4395 33.9961C15.8295 34.1961 10.2095 26.8301 8.3455 23.9921C9.2595 22.5641 10.7915 20.4721 12.9115 18.5701L10.0895 15.7461C7.0455 18.5241 5.0935 21.5601 4.2655 23.0061C3.9115 23.6221 3.9115 24.3801 4.2655 24.9961C5.5235 27.1901 12.3235 38.0001 24.0495 38.0001C24.2135 38.0001 24.3775 37.9981 24.5415 37.9941C26.9095 37.9341 29.0535 37.4221 30.9955 36.6541L27.8355 33.4941C26.7655 33.7781 25.6395 33.9661 24.4395 33.9961ZM23.456 10.0072C35.406 9.63324 42.456 20.7812 43.732 23.0052C44.084 23.6212 44.084 24.3792 43.732 24.9952C42.902 26.4412 40.95 29.4772 37.906 32.2552L35.084 29.4312C37.204 27.5292 38.738 25.4372 39.65 24.0092C37.786 21.1712 32.14 13.7892 23.558 14.0052C22.358 14.0352 21.232 14.2232 20.16 14.5072L17 11.3472C18.944 10.5792 21.086 10.0672 23.456 10.0072Z" fill="white"/>
</mask>
<g mask="url(#mask0_2021_14815)">
<rect width="48" height="48" fill="#0D1C2E"/>
</g>
</svg>
