<svg width="60" height="61" viewBox="0 0 60 61" fill="none" xmlns="http://www.w3.org/2000/svg">
<mask id="mask0_2335_10514" style="mask-type:luminance" maskUnits="userSpaceOnUse" x="4" y="8" width="50" height="46">
<path fill-rule="evenodd" clip-rule="evenodd" d="M52.7036 18.2675C51.7861 16.7825 50.1961 15.8975 48.4511 15.8975H16.4511L14.9086 10.24C14.6111 9.15246 13.6236 8.39746 12.4961 8.39746H7.49609C6.11359 8.39746 4.99609 9.51746 4.99609 10.8975C4.99609 12.2775 6.11359 13.3975 7.49609 13.3975H10.5861L17.5836 39.055C17.8811 40.1425 18.8686 40.8975 19.9961 40.8975H42.4961C43.4436 40.8975 44.3086 40.3625 44.7336 39.515L52.9236 23.1325C53.7036 21.57 53.6211 19.7525 52.7036 18.2675ZM18.7495 45.8967C16.6795 45.8967 14.9995 47.5742 14.9995 49.6467C14.9995 51.7192 16.6795 53.3967 18.7495 53.3967C20.8195 53.3967 22.4995 51.7192 22.4995 49.6467C22.4995 47.5742 20.8195 45.8967 18.7495 45.8967ZM39.9932 49.6467C39.9932 47.5742 41.6733 45.8967 43.7432 45.8967C45.8133 45.8967 47.4933 47.5742 47.4933 49.6467C47.4933 51.7192 45.8133 53.3967 43.7432 53.3967C41.6733 53.3967 39.9932 51.7192 39.9932 49.6467Z" fill="white"/>
</mask>
<g mask="url(#mask0_2335_10514)">
<rect y="0.897461" width="60" height="60" fill="#667085"/>
</g>
</svg>
