<svg width="61" height="61" viewBox="0 0 61 61" fill="none" xmlns="http://www.w3.org/2000/svg">
<mask id="mask0_2335_10467" style="mask-type:luminance" maskUnits="userSpaceOnUse" x="8" y="15" width="46" height="31">
<path fill-rule="evenodd" clip-rule="evenodd" d="M10.7318 15.9751H50.9635C52.2677 15.9751 53.3345 17.0426 53.3345 18.3476V18.6026C53.3345 19.9076 52.2677 20.9751 50.9635 20.9751H10.7318C9.4276 20.9751 8.36328 19.9076 8.36328 18.6026V18.3476C8.36328 17.0426 9.4276 15.9751 10.7318 15.9751ZM50.9635 28.4757H10.7318C9.4276 28.4757 8.36328 29.5431 8.36328 30.8481V31.1031C8.36328 32.4081 9.4276 33.4756 10.7318 33.4756H50.9635C52.2677 33.4756 53.3345 32.4081 53.3345 31.1031V30.8481C53.3345 29.5431 52.2677 28.4757 50.9635 28.4757ZM50.9635 40.975H10.7318C9.4276 40.975 8.36328 42.0425 8.36328 43.3475V43.6025C8.36328 44.9075 9.4276 45.975 10.7318 45.975H50.9635C52.2677 45.975 53.3345 44.9075 53.3345 43.6025V43.3475C53.3345 42.0425 52.2677 40.975 50.9635 40.975Z" fill="white"/>
</mask>
<g mask="url(#mask0_2335_10467)">
<rect x="0.867188" y="0.974609" width="59.9617" height="60" fill="#667085"/>
</g>
</svg>
