<svg width="61" height="61" viewBox="0 0 61 61" fill="none" xmlns="http://www.w3.org/2000/svg">
<mask id="mask0_2335_10520" style="mask-type:luminance" maskUnits="userSpaceOnUse" x="5" y="5" width="51" height="51">
<path fill-rule="evenodd" clip-rule="evenodd" d="M54.292 29.1538L46.792 21.6213C45.817 20.6438 44.232 20.6363 43.257 21.6138C42.277 22.5888 42.272 24.1688 43.247 25.1488L46.4695 28.3838H32.5195V14.4063L35.747 17.6488C36.2345 18.1388 36.877 18.3838 37.5195 18.3838C38.157 18.3838 38.797 18.1413 39.2845 17.6563C40.262 16.6813 40.267 15.0988 39.292 14.1213L31.8245 6.62129C31.352 6.14879 30.807 5.90629 30.052 5.88379C29.3895 5.88379 28.7545 6.14629 28.287 6.61379L20.7545 14.1138C19.777 15.0888 19.772 16.6713 20.747 17.6488C21.7195 18.6263 23.302 18.6313 24.2845 17.6563L27.5195 14.4338V28.3838H13.5395L16.782 25.1563C17.762 24.1813 17.767 22.5988 16.792 21.6213C15.817 20.6438 14.232 20.6363 13.257 21.6138L5.75705 29.0813C5.28455 29.5488 5.02205 30.1838 5.01955 30.8463C5.01705 31.5088 5.28205 32.1463 5.74705 32.6163L13.247 40.1488C13.7345 40.6388 14.377 40.8838 15.0195 40.8838C15.657 40.8838 16.297 40.6413 16.782 40.1563C17.762 39.1813 17.767 37.5988 16.792 36.6213L13.5695 33.3838H27.5195V47.3638L24.292 44.1213C23.317 43.1413 21.7345 43.1363 20.7545 44.1138C19.777 45.0888 19.772 46.6713 20.747 47.6488L28.2145 55.1488C28.6845 55.6188 29.3195 55.8838 29.982 55.8838H29.987C30.6495 55.8838 31.2845 55.6213 31.752 55.1563L39.2845 47.6563C40.262 46.6813 40.267 45.0988 39.292 44.1213C38.317 43.1413 36.7345 43.1363 35.7545 44.1138L32.5195 47.3338V33.3838H46.4995L43.257 36.6138C42.277 37.5888 42.272 39.1688 43.247 40.1488C43.7345 40.6388 44.377 40.8838 45.0195 40.8838C45.657 40.8838 46.297 40.6413 46.782 40.1563L54.282 32.6888C54.7545 32.2213 55.017 31.5863 55.0195 30.9238C55.022 30.2588 54.7595 29.6238 54.292 29.1538" fill="white"/>
</mask>
<g mask="url(#mask0_2335_10520)">
<rect x="0.0234375" y="0.884766" width="60" height="60" fill="#667085"/>
</g>
</svg>
