<svg width="61" height="61" viewBox="0 0 61 61" fill="none" xmlns="http://www.w3.org/2000/svg">
<path fill-rule="evenodd" clip-rule="evenodd" d="M32.7422 5.0127C32.7422 3.97716 31.9027 3.1377 30.8672 3.1377C29.8317 3.1377 28.9922 3.97716 28.9922 5.0127V9.47178C19.0976 10.3634 11.2179 18.2431 10.3263 28.1377H5.86719C4.83165 28.1377 3.99219 28.9772 3.99219 30.0127C3.99219 31.0482 4.83165 31.8877 5.86719 31.8877H10.3263C11.2179 41.7823 19.0976 49.662 28.9922 50.5536V55.0127C28.9922 56.0482 29.8317 56.8877 30.8672 56.8877C31.9027 56.8877 32.7422 56.0482 32.7422 55.0127V50.5536C42.6368 49.662 50.5165 41.7823 51.4081 31.8877H55.8672C56.9027 31.8877 57.7422 31.0482 57.7422 30.0127C57.7422 28.9772 56.9027 28.1377 55.8672 28.1377H51.4081C50.5165 18.2431 42.6368 10.3634 32.7422 9.47178V5.0127ZM21.4922 30.0127C21.4922 24.835 25.6895 20.6377 30.8672 20.6377C36.0449 20.6377 40.2422 24.835 40.2422 30.0127C40.2422 35.1904 36.0449 39.3877 30.8672 39.3877C25.6895 39.3877 21.4922 35.1904 21.4922 30.0127Z" fill="#667085"/>
</svg>
