<svg width="61" height="61" viewBox="0 0 61 61" fill="none" xmlns="http://www.w3.org/2000/svg">
<mask id="mask0_2335_10479" style="mask-type:luminance" maskUnits="userSpaceOnUse" x="10" y="5" width="41" height="51">
<path fill-rule="evenodd" clip-rule="evenodd" d="M37.428 20.963C36.4437 20.963 35.6442 20.0105 35.6442 18.838V10.908L44.9932 20.963H37.428ZM35.6442 38.4619H25.6506C24.269 38.4619 23.1522 37.3419 23.1522 35.9619C23.1522 34.5819 24.269 33.4619 25.6506 33.4619H35.6442C37.0258 33.4619 38.1426 34.5819 38.1426 35.9619C38.1426 37.3419 37.0258 38.4619 35.6442 38.4619V38.4619ZM49.985 19.2824L38.8821 6.7824C38.4099 6.2599 37.7378 5.9624 37.0333 5.9624H17.0461C13.5258 5.9624 10.6602 8.7674 10.6602 12.2124V49.7124C10.6602 53.1574 13.5258 55.9624 17.0461 55.9624H44.2487C47.7714 55.9624 50.6346 53.1574 50.6346 49.7124V20.9624C50.6346 20.3399 50.4022 19.7424 49.985 19.2824V19.2824Z" fill="white"/>
</mask>
<g mask="url(#mask0_2335_10479)">
<rect x="0.664062" y="0.961914" width="59.9617" height="60" fill="#667085"/>
</g>
</svg>
