<svg width="61" height="60" viewBox="0 0 61 60" fill="none" xmlns="http://www.w3.org/2000/svg">
<path d="M32.1831 7.4904C31.2197 5.83003 28.8219 5.83002 27.8584 7.4904L21.0733 19.1837C20.5974 20.0039 19.7748 20.5636 18.8371 20.7052L6.12131 22.6258C3.98561 22.9484 3.23646 25.6449 4.89972 27.0229L14.3724 34.8709C15.2493 35.5974 15.6616 36.7433 15.4486 37.8619L12.9707 50.8748C12.579 52.9319 14.7384 54.5301 16.5913 53.5545L28.5648 47.25C29.4762 46.7701 30.5654 46.7701 31.4767 47.25L43.4502 53.5545C45.3031 54.5301 47.4626 52.9319 47.0709 50.8748L44.593 37.8619C44.38 36.7433 44.7923 35.5974 45.6691 34.8709L55.1418 27.0229C56.8051 25.6449 56.056 22.9484 53.9202 22.6258L41.2045 20.7052C40.2668 20.5636 39.4442 20.0039 38.9682 19.1837L32.1831 7.4904Z" fill="#667085"/>
</svg>
