<svg width="61" height="61" viewBox="0 0 61 61" fill="none" xmlns="http://www.w3.org/2000/svg">
<mask id="mask0_2335_10501" style="mask-type:luminance" maskUnits="userSpaceOnUse" x="8" y="8" width="48" height="46">
<path fill-rule="evenodd" clip-rule="evenodd" d="M25.9522 28.4229C31.4672 28.4229 35.9522 23.9379 35.9522 18.4229C35.9522 12.9079 31.4672 8.42285 25.9522 8.42285C20.4372 8.42285 15.9522 12.9079 15.9522 18.4229C15.9522 23.9379 20.4372 28.4229 25.9522 28.4229ZM53.4558 15.9229H43.4558C42.0808 15.9229 40.9558 17.0479 40.9558 18.4229C40.9558 19.7979 42.0808 20.9229 43.4558 20.9229H53.4558C54.8308 20.9229 55.9558 19.7979 55.9558 18.4229C55.9558 17.0479 54.8308 15.9229 53.4558 15.9229ZM43.457 50.9227C43.457 52.3027 42.3395 53.4227 40.957 53.4227H10.957C9.57453 53.4227 8.45703 52.3027 8.45703 50.9227C8.45703 41.2727 16.3095 33.4227 25.957 33.4227C35.6045 33.4227 43.457 41.2727 43.457 50.9227Z" fill="white"/>
</mask>
<g mask="url(#mask0_2335_10501)">
<rect x="0.960938" y="0.922852" width="60" height="60" fill="#667085"/>
</g>
</svg>
