<svg width="61" height="61" viewBox="0 0 61 61" fill="none" xmlns="http://www.w3.org/2000/svg">
<mask id="mask0_2335_10504" style="mask-type:luminance" maskUnits="userSpaceOnUse" x="5" y="10" width="51" height="41">
<path fill-rule="evenodd" clip-rule="evenodd" d="M35.842 50.9113C35.6745 50.9113 35.502 50.9038 35.3295 50.8863C33.1295 50.6688 31.4045 49.1163 30.9295 46.9288L24.222 15.9488L17.3145 31.9038C16.917 32.8188 16.0145 33.4113 15.0195 33.4113H7.51953C6.13703 33.4113 5.01953 32.2913 5.01953 30.9113C5.01953 29.5288 6.13703 28.4113 7.51953 28.4113H13.3795L19.6445 13.9388C20.532 11.8988 22.487 10.7113 24.7095 10.9338C26.9095 11.1513 28.6345 12.7038 29.1095 14.8913L35.817 45.8713L42.7245 29.9163C43.122 29.0013 44.022 28.4113 45.0195 28.4113H52.5195C53.902 28.4113 55.0195 29.5288 55.0195 30.9113C55.0195 32.2913 53.902 33.4113 52.5195 33.4113H46.6595L40.3945 47.8813C39.577 49.7638 37.8245 50.9113 35.842 50.9113" fill="white"/>
</mask>
<g mask="url(#mask0_2335_10504)">
<rect x="0.0234375" y="0.910156" width="60" height="60" fill="#667085"/>
</g>
</svg>
