<svg width="61" height="61" viewBox="0 0 61 61" fill="none" xmlns="http://www.w3.org/2000/svg">
<mask id="mask0_2335_10568" style="mask-type:luminance" maskUnits="userSpaceOnUse" x="5" y="10" width="51" height="44">
<path fill-rule="evenodd" clip-rule="evenodd" d="M30.0245 53.4614V53.4614C29.3595 53.4614 28.7245 53.1989 28.2545 52.7264L8.83703 33.2764C3.74703 28.1764 3.74703 19.8789 8.83703 14.7789C11.2945 12.3189 14.577 10.9614 18.0745 10.9614C21.572 10.9614 24.8545 12.3189 27.312 14.7789L30.0245 17.4964L32.7345 14.7814C35.1945 12.3189 38.477 10.9614 41.9745 10.9614C45.472 10.9614 48.7545 12.3189 51.212 14.7789C56.302 19.8789 56.302 28.1764 51.2145 33.2764L31.7945 52.7289C31.3245 53.1989 30.6895 53.4614 30.0245 53.4614" fill="white"/>
</mask>
<g mask="url(#mask0_2335_10568)">
<rect x="0.0234375" y="0.961914" width="60" height="60" fill="#667085"/>
</g>
</svg>
