<svg width="61" height="61" viewBox="0 0 61 61" fill="none" xmlns="http://www.w3.org/2000/svg">
<mask id="mask0_2335_10509" style="mask-type:luminance" maskUnits="userSpaceOnUse" x="8" y="8" width="48" height="46">
<path fill-rule="evenodd" clip-rule="evenodd" d="M25.9522 28.4102C31.4672 28.4102 35.9522 23.9252 35.9522 18.4102C35.9522 12.8952 31.4672 8.41016 25.9522 8.41016C20.4372 8.41016 15.9522 12.8952 15.9522 18.4102C15.9522 23.9252 20.4372 28.4102 25.9522 28.4102ZM55.0959 11.5236C54.0534 10.6186 52.4759 10.7261 51.5684 11.7686L46.9034 17.1311L45.3184 15.3586C44.4009 14.3286 42.8209 14.2411 41.7884 15.1636C40.7609 16.0836 40.6709 17.6661 41.5934 18.6936L45.0659 22.5761C45.5409 23.1061 46.2184 23.4086 46.9284 23.4086H46.9459C47.6634 23.4036 48.3459 23.0911 48.8159 22.5511L55.3434 15.0511C56.2484 14.0086 56.1384 12.4286 55.0959 11.5236ZM43.457 50.91C43.457 52.29 42.3395 53.41 40.957 53.41H10.957C9.57453 53.41 8.45703 52.29 8.45703 50.91C8.45703 41.26 16.3095 33.41 25.957 33.41C35.6045 33.41 43.457 41.26 43.457 50.91Z" fill="white"/>
</mask>
<g mask="url(#mask0_2335_10509)">
<rect x="0.960938" y="0.910156" width="60" height="60" fill="#667085"/>
</g>
</svg>
