<svg width="61" height="61" viewBox="0 0 61 61" fill="none" xmlns="http://www.w3.org/2000/svg">
<mask id="mask0_2335_10485" style="mask-type:luminance" maskUnits="userSpaceOnUse" x="5" y="5" width="51" height="51">
<path fill-rule="evenodd" clip-rule="evenodd" d="M30.7457 27.1827C28.6796 27.1827 26.9981 28.8641 26.9981 30.9303C26.9981 32.9965 28.6796 34.6779 30.7457 34.6779C32.8119 34.6779 34.4933 32.9965 34.4933 30.9303C34.4933 28.8641 32.8119 27.1827 30.7457 27.1827M30.7457 39.6747C25.9238 39.6747 22.0013 35.7522 22.0013 30.9303C22.0013 26.1084 25.9238 22.1859 30.7457 22.1859C35.5677 22.1859 39.4902 26.1084 39.4902 30.9303C39.4902 35.7522 35.5677 39.6747 30.7457 39.6747M55.4639 26.7305L53.4977 20.432C53.028 18.9205 52.0036 17.6988 50.617 16.9892C49.2654 16.2972 47.7288 16.1797 46.2898 16.6594L45.4403 16.9418C44.1012 17.394 42.6071 17.1441 41.4604 16.2822L41.193 16.0798C40.1012 15.2603 39.4541 13.9237 39.4591 12.5096L39.4641 11.8125C39.4691 10.2261 38.8645 8.7395 37.7577 7.62771C36.6859 6.5509 35.2693 5.95628 33.7653 5.95378L27.4018 5.94629H27.3918C24.2589 5.94629 21.7005 8.54962 21.688 11.7576L21.6855 12.3597C21.6805 13.8537 20.9934 15.2628 19.8542 16.1323L19.5319 16.3771C18.2502 17.3515 16.5888 17.6288 15.0922 17.1191C13.6981 16.642 12.2066 16.7444 10.8874 17.409C9.53827 18.091 8.5414 19.2753 8.0792 20.7418L6.0405 27.2252C5.07362 30.3032 6.69758 33.5312 9.73814 34.573L10.1479 34.7129V34.7129C11.442 35.1551 12.4839 36.2844 12.9436 37.7385L13.081 38.1582C13.6281 39.7722 13.4383 41.4736 12.5039 42.7977C10.705 45.3536 11.2522 48.9588 13.7256 50.8326L18.9023 54.7651C19.8966 55.5196 21.0734 55.9143 22.2901 55.9143C22.5774 55.9143 22.8672 55.8944 23.1571 55.8494C24.6861 55.6095 26.0277 54.7726 26.9321 53.4909L27.5093 52.6714C28.3387 51.4922 29.6054 50.7951 31.077 50.7551C32.5436 50.6727 33.9427 51.4372 34.8171 52.6964L35.1119 53.1261C36.0088 54.4203 37.348 55.2698 38.882 55.5171C40.4035 55.7594 41.9201 55.3822 43.1568 54.4478L48.306 50.5603C50.7894 48.689 51.359 45.0713 49.5752 42.4929L48.9231 41.556C48.1036 40.3718 47.8638 38.8303 48.2785 37.4287C48.7307 35.8996 49.86 34.7004 51.3016 34.2157L51.8037 34.0483C54.7693 33.0565 56.4108 29.7736 55.4639 26.7305" fill="white"/>
</mask>
<g mask="url(#mask0_2335_10485)">
<rect x="0.765625" y="0.949219" width="59.9617" height="59.9617" fill="#667085"/>
</g>
</svg>
