<svg width="61" height="61" viewBox="0 0 61 61" fill="none" xmlns="http://www.w3.org/2000/svg">
<path d="M48.3239 7.77651C49.0562 7.04428 49.0562 5.85709 48.3239 5.12486C47.5917 4.39263 46.4045 4.39263 45.6723 5.12486L43.9045 6.89263C42.6659 8.13121 42.7292 10.0559 43.8098 11.2617C51.0661 19.3586 50.8029 31.814 43.0206 39.5963C38.9956 43.6214 33.7204 45.6351 28.4447 45.6373L28.4366 45.6372L28.4289 45.6373C23.5096 45.6356 18.5909 43.885 14.686 40.3855C13.4802 39.3049 11.5555 39.2416 10.3169 40.4802L8.54918 42.248C7.81694 42.9802 7.81694 44.1674 8.54917 44.8996C9.28141 45.6318 10.4686 45.6318 11.2008 44.8996L12.5769 43.5235C16.6264 47 21.5459 48.9306 26.5616 49.3154V53.1372H22.1866C21.151 53.1372 20.3116 53.9767 20.3116 55.0122C20.3116 56.0478 21.151 56.8872 22.1866 56.8872H34.6866C35.7221 56.8872 36.5616 56.0478 36.5616 55.0122C36.5616 53.9767 35.7221 53.1372 34.6866 53.1372H30.3116V49.3155C35.9108 48.8862 41.3899 46.5304 45.6723 42.248C54.7453 33.175 55.1703 18.7303 46.9478 9.15263L48.3239 7.77651Z" fill="#667085"/>
<path fill-rule="evenodd" clip-rule="evenodd" d="M12.1866 25.0122C12.1866 16.0376 19.4619 8.76224 28.4366 8.76224C37.4112 8.76224 44.6866 16.0376 44.6866 25.0122C44.6866 33.9869 37.4112 41.2622 28.4366 41.2622C19.4619 41.2622 12.1866 33.9869 12.1866 25.0122ZM33.4366 15.6372C29.6396 15.6372 26.5616 18.7153 26.5616 22.5122C26.5616 26.3092 29.6396 29.3872 33.4366 29.3872C37.2335 29.3872 40.3116 26.3092 40.3116 22.5122C40.3116 18.7153 37.2335 15.6372 33.4366 15.6372ZM16.5616 31.2622C16.5616 29.5363 17.9607 28.1372 19.6866 28.1372C21.4124 28.1372 22.8116 29.5363 22.8116 31.2622C22.8116 32.9881 21.4124 34.3872 19.6866 34.3872C17.9607 34.3872 16.5616 32.9881 16.5616 31.2622Z" fill="#667085"/>
</svg>
