<svg width="60" height="61" viewBox="0 0 60 61" fill="none" xmlns="http://www.w3.org/2000/svg">
<mask id="mask0_2335_10464" style="mask-type:luminance" maskUnits="userSpaceOnUse" x="5" y="13" width="50" height="36">
<path fill-rule="evenodd" clip-rule="evenodd" d="M49.9908 23.4756H10.0163V20.9756C10.0163 19.5981 11.1356 18.4756 12.5147 18.4756H47.4924C48.8715 18.4756 49.9908 19.5981 49.9908 20.9756V23.4756ZM42.4956 38.4745H37.4988C36.1246 38.4745 35.0004 37.3495 35.0004 35.9745C35.0004 34.5995 36.1246 33.4745 37.4988 33.4745H42.4956C43.8697 33.4745 44.994 34.5995 44.994 35.9745C44.994 37.3495 43.8697 38.4745 42.4956 38.4745V38.4745ZM27.5052 38.4745H17.5115C16.1374 38.4745 15.0131 37.3495 15.0131 35.9745C15.0131 34.5995 16.1374 33.4745 17.5115 33.4745H27.5052C28.8793 33.4745 30.0036 34.5995 30.0036 35.9745C30.0036 37.3495 28.8793 38.4745 27.5052 38.4745V38.4745ZM47.4924 13.4751H12.5147C8.38238 13.4751 5.01953 16.8401 5.01953 20.9751V40.9751C5.01953 45.1101 8.38238 48.4751 12.5147 48.4751H47.4924C51.6247 48.4751 54.9876 45.1101 54.9876 40.9751V20.9751C54.9876 16.8401 51.6247 13.4751 47.4924 13.4751V13.4751Z" fill="white"/>
</mask>
<g mask="url(#mask0_2335_10464)">
<rect x="0.0234375" y="0.974609" width="59.9617" height="60" fill="#667085"/>
</g>
</svg>
