<svg width="61" height="61" viewBox="0 0 61 61" fill="none" xmlns="http://www.w3.org/2000/svg">
<mask id="mask0_2335_10518" style="mask-type:luminance" maskUnits="userSpaceOnUse" x="8" y="8" width="46" height="46">
<path fill-rule="evenodd" clip-rule="evenodd" d="M21.8 14.779C22.2225 13.9315 23.09 13.3965 24.0375 13.3965H37.855C38.8025 13.3965 39.6675 13.9315 40.09 14.779L46.9 28.3965H40.945C39.565 28.3965 38.445 29.5165 38.445 30.8965V35.8965C38.445 37.279 37.325 38.3965 35.945 38.3965H25.945C24.565 38.3965 23.445 37.279 23.445 35.8965V30.8965C23.445 29.5165 22.325 28.3965 20.945 28.3965H14.99L21.8 14.779ZM52.9139 29.251L44.5589 12.541C43.2814 9.986 40.7114 8.396 37.8514 8.396H24.0314C21.1714 8.396 18.6039 9.986 17.3239 12.541L8.96891 29.251C8.62391 29.941 8.44141 30.716 8.44141 31.4885V45.896C8.44141 50.0335 11.8064 53.396 15.9414 53.396H45.9414C50.0789 53.396 53.4414 50.0335 53.4414 45.896V31.4885C53.4414 30.716 53.2589 29.941 52.9139 29.251V29.251Z" fill="white"/>
</mask>
<g mask="url(#mask0_2335_10518)">
<rect x="0.945312" y="0.897461" width="60" height="60" fill="#667085"/>
</g>
</svg>
