<svg width="61" height="60" viewBox="0 0 61 60" fill="none" xmlns="http://www.w3.org/2000/svg">
<mask id="mask0_2335_10445" style="mask-type:luminance" maskUnits="userSpaceOnUse" x="13" y="7" width="36" height="46">
<path fill-rule="evenodd" clip-rule="evenodd" d="M40.8965 17.5014C40.8965 23.0129 36.4144 27.495 30.9029 27.495C25.3914 27.495 20.9093 23.0129 20.9093 17.5014C20.9093 11.9899 25.3914 7.50781 30.9029 7.50781C36.4144 7.50781 40.8965 11.9899 40.8965 17.5014ZM48.3917 49.9807C48.3917 51.3598 47.2749 52.4791 45.8933 52.4791H15.9125C14.5308 52.4791 13.4141 51.3598 13.4141 49.9807C13.4141 40.3368 21.2615 32.4918 30.9029 32.4918C40.5442 32.4918 48.3917 40.3368 48.3917 49.9807Z" fill="white"/>
</mask>
<g mask="url(#mask0_2335_10445)">
<rect x="0.921875" y="0.0126953" width="59.9617" height="59.9617" fill="#667085"/>
</g>
</svg>
