<svg width="61" height="61" viewBox="0 0 61 61" fill="none" xmlns="http://www.w3.org/2000/svg">
<mask id="mask0_2335_10523" style="mask-type:luminance" maskUnits="userSpaceOnUse" x="5" y="5" width="44" height="51">
<path fill-rule="evenodd" clip-rule="evenodd" d="M38.4837 24.7345V13.3845C38.4837 12.717 38.2262 12.102 37.7662 11.6495C37.2687 11.1395 36.6512 10.8845 35.9837 10.8845C34.6037 10.8845 33.4837 12.007 33.4837 13.3845V24.7345H38.4837ZM35.9803 55.8853C29.0878 55.8853 23.4803 50.2778 23.4803 43.3853C23.4803 39.4353 25.3653 35.7278 28.4803 33.3928V13.3853C28.4803 9.25025 31.8453 5.88525 35.9803 5.88525C38.0103 5.88525 39.8953 6.67775 41.2978 8.11525C42.6903 9.47025 43.4803 11.3578 43.4803 13.3853V33.3928C46.5953 35.7278 48.4803 39.4353 48.4803 43.3853C48.4803 50.2778 42.8728 55.8853 35.9803 55.8853ZM10.9773 18.3851H8.48047C7.10547 18.3851 5.98047 17.2601 5.98047 15.8851C5.98047 14.5101 7.10547 13.3851 8.48047 13.3851H10.9773V10.8847C10.9773 9.50965 12.1023 8.38465 13.4773 8.38465C14.8523 8.38465 15.9773 9.50965 15.9773 10.8847V13.3851H18.4805C19.8555 13.3851 20.9805 14.5101 20.9805 15.8851C20.9805 17.2601 19.8555 18.3851 18.4805 18.3851H15.9773V20.8847C15.9773 22.2597 14.8523 23.3847 13.4773 23.3847C12.1023 23.3847 10.9773 22.2597 10.9773 20.8847V18.3851Z" fill="white"/>
</mask>
<g mask="url(#mask0_2335_10523)">
<rect x="0.984375" y="0.884766" width="60" height="60" fill="#667085"/>
</g>
</svg>
