<svg width="61" height="61" viewBox="0 0 61 61" fill="none" xmlns="http://www.w3.org/2000/svg">
<mask id="mask0_2335_10527" style="mask-type:luminance" maskUnits="userSpaceOnUse" x="15" y="15" width="31" height="31">
<path fill-rule="evenodd" clip-rule="evenodd" d="M43.4381 20.8844C42.0556 20.8844 40.9381 22.0044 40.9381 23.3844V37.3494L20.2056 16.6169C19.2281 15.6394 17.6481 15.6394 16.6706 16.6169C15.6931 17.5944 15.6931 19.1744 16.6706 20.1519L37.4031 40.8844H23.4381C22.0556 40.8844 20.9381 42.0044 20.9381 43.3844C20.9381 44.7644 22.0556 45.8844 23.4381 45.8844H43.4381C44.8206 45.8844 45.9381 44.7644 45.9381 43.3844V23.3844C45.9381 22.0044 44.8206 20.8844 43.4381 20.8844" fill="white"/>
</mask>
<g mask="url(#mask0_2335_10527)">
<rect x="0.9375" y="0.884766" width="60" height="60" fill="#667085"/>
</g>
</svg>
